<?xml version="1.0" encoding="UTF-8"?>
<svg version="1.1" xmlns="http://www.w3.org/2000/svg" width="214" height="117">
<path d="M0 0 C1.67542976 0.28604898 3.34385343 0.61781233 5 1 C6.74481003 8.19945886 7.38280486 15.30310078 7.75390625 22.6796875 C7.94735648 25.28973032 8.2435895 27.51197206 9 30 C9.39832031 29.57847656 9.79664062 29.15695313 10.20703125 28.72265625 C10.73683594 28.17480469 11.26664063 27.62695312 11.8125 27.0625 C12.33457031 26.51722656 12.85664062 25.97195312 13.39453125 25.41015625 C15.90111129 23.20851296 18.09601122 22.99111007 21.375 22.6875 C25.59334314 23.05115027 27.04884992 24.04884992 30 27 C32.64881087 32.29762175 31.65507794 40.40684175 30.24609375 45.984375 C29.24576474 48.69899333 28.15561695 51.34795703 27 54 C23.69782892 62.06558163 19.94846324 71.24414737 23.0625 79.9375 C25.37590705 83.59417566 27.08256502 85.15215331 31 87 C35.26425338 87.82561393 38.23018071 87.3471734 42.1875 85.5625 C47.27070932 80.93113151 50.56846501 74.66804741 51.375 67.8125 C50.89563526 62.93895849 49.49109056 59.49109056 46 56 C42.4233569 55.15461163 40.43375895 55.11793353 37.25390625 57.07421875 C35.04878324 58.83514432 33.27117185 60.4576563 32 63 C31.63535161 66.93820264 31.44075142 69.17148358 33.6875 72.5 C35.92859881 74.29204136 35.92859881 74.29204136 38.75 73.75 C39.4925 73.5025 40.235 73.255 41 73 C41 72.01 41 71.02 41 70 C38.61435923 70.57584432 36.33317216 71.22227595 34 72 C34.3125 69.625 34.3125 69.625 35 67 C38 65 38 65 41.0625 65.1875 C44 66 44 66 46 69 C45.92579613 73.08121288 45.56999683 75.28750397 43 78.5 C38.7615254 80.6192373 35.49843191 80.28045253 31 79 C27.5578861 76.88177606 26.66944381 74.5125926 25.625 70.75 C24.7914813 66.07770709 24.89462915 62.30375005 27 58 C29.69275983 54.35153644 32.80075963 51.19924037 36 48 C35.51402344 47.45085937 35.02804688 46.90171875 34.52734375 46.3359375 C31.84069413 42.22694396 32.37548982 37.73529696 33 33 C35.5742684 27.85146319 38.54602401 24.817992 44 23 C45.8096818 22.88119646 47.62396447 22.8248035 49.4375 22.8125 C50.38496094 22.79832031 51.33242187 22.78414062 52.30859375 22.76953125 C55.04501644 23.00385482 56.66428123 23.60298617 59 25 C59.66 24.34 60.32 23.68 61 23 C64.625 22.875 64.625 22.875 68 23 C68.495 29.435 68.495 29.435 69 36 C69.763125 34.411875 70.52625 32.82375 71.3125 31.1875 C74.21529867 25.14654061 74.21529867 25.14654061 77 23 C79.6875 23.3125 79.6875 23.3125 82 24 C82 24.99 82 25.98 82 27 C82.71349609 26.58427734 82.71349609 26.58427734 83.44140625 26.16015625 C90.6506684 22.42939628 97.98833641 21.94890521 106 22 C106.33 22.33 106.66 22.66 107 23 C106.9140625 24.75 106.9140625 24.75 106.625 27 C106.52574219 27.82371094 106.42648438 28.64742187 106.32421875 29.49609375 C106.12813914 31.01039534 105.92459805 32.52379222 105.70703125 34.03515625 C104.41182582 43.77735362 102.65688163 57.24210673 108 66 C112.0088824 69.64443855 115.59549622 70.903491 121 71 C125.70568231 69.33917095 128.22353702 67.1132785 131 63 C132.67973059 57.96080822 132.55739548 53.64122002 130.875 48.6875 C128.54519837 45.34811766 126.83710223 44.32822769 123 43 C118.84324549 42.64165909 115.44299257 42.44963513 112 45 C109.9316901 47.99904936 109.80072357 50.41302423 110 54 C110.45375 52.865625 110.9075 51.73125 111.375 50.5625 C113 47 113 47 115 46 C118.7621596 45.65165189 121.14128053 45.49357569 124.4375 47.4375 C126.7633392 51.25187628 126.76013057 54.64864029 126 59 C124.11955323 62.47159403 122.91932592 63.64480589 119.25 65.0625 C114.75171103 64.97599444 111.62324361 63.63944899 108 61 C104.98326068 56.94625653 104.45688298 53.11402117 104.65625 48.1796875 C105.22099917 44.59866435 106.55465666 42.63344667 109 40 C114.21174229 36.93426924 119.08445375 36.09538898 125 37 C129.60169873 38.43904713 132.38555754 40.24376312 135.4375 44 C138.72336904 50.30886856 139.06801055 57.31117036 137 64.125 C134.53713003 69.96118477 129.57764323 73.68375665 124.0625 76.5 C118.39683272 77.4250069 113.78444367 76.94272496 108.6875 74.25 C102.15089887 68.77749672 99.30102811 62.32657992 98 54 C97.14535156 54.48146484 97.14535156 54.48146484 96.2734375 54.97265625 C92.53216922 56.6632981 89.01965938 56.66296465 85 56 C79.35050329 52.6521501 77.83577591 49.01726547 76 43 C75.65066406 43.85464844 75.30132812 44.70929687 74.94140625 45.58984375 C74.48636719 46.69457031 74.03132813 47.79929688 73.5625 48.9375 C73.11003906 50.03964844 72.65757812 51.14179687 72.19140625 52.27734375 C71 55 71 55 70 56 C67.66702567 56.04092937 65.33294775 56.04241723 63 56 C62.505 51.545 62.505 51.545 62 47 C60.88625 47.680625 60.88625 47.680625 59.75 48.375 C57.53069422 49.68640796 55.32032178 50.88280803 53 52 C53.639375 52.928125 54.27875 53.85625 54.9375 54.8125 C58.56727847 60.42215763 58.60717539 65.48355421 58 72 C56.10178181 79.39762748 52.32689393 86.63358143 46.22265625 91.3828125 C40.81842429 94.54356984 35.11899484 95.03319272 29 94 C23.90142586 91.92311838 19.90846595 88.69829115 17 84 C12.76867848 73.42169619 15.09184859 63.28394971 19 53 C19.87542634 51.05319433 20.77039417 49.11502185 21.6875 47.1875 C23.83671001 42.6436455 24.91003136 39.03824387 25 34 C24.34 33.01 23.68 32.02 23 31 C19.51628457 31.06967431 16.92141508 31.18866548 14.234375 33.5546875 C9.91647338 38.60621318 8.81058572 41.99508327 8.4375 48.625 C8.39431641 49.33140625 8.35113281 50.0378125 8.30664062 50.765625 C8.20055249 52.51018537 8.09977111 54.25506697 8 56 C5.69 56 3.38 56 1 56 C-1.19701145 23.92713872 -1.19701145 23.92713872 -1.1875 10 C-1.18814453 9.08847168 -1.18878906 8.17694336 -1.18945312 7.23779297 C-1.13676515 1.13676515 -1.13676515 1.13676515 0 0 Z M59 27 C58.95875 28.0725 58.9175 29.145 58.875 30.25 C58 34 58 34 55.5625 36.25 C51.16389968 38.41071595 46.73139632 39.7657227 42 41 C42.66821688 44.12779105 42.66821688 44.12779105 45.125 45.1875 C51.67331641 47.03811116 54.83222422 46.08388789 61 43 C60.67 37.72 60.34 32.44 60 27 C59.67 27 59.34 27 59 27 Z M40 32 C40 32.99 40 33.98 40 35 C45.841744 35.35050464 49.8531808 35.16727335 55 32 C55 31.01 55 30.02 55 29 C49.38573467 26.19286733 44.0692204 27.54929019 40 32 Z M86 31 C83.02375761 34.19946057 81.75988744 36.75811426 81.5 41.0625 C82.05819125 45.45825609 82.67239256 47.11023564 86 50 C88.80857748 51.26010343 88.80857748 51.26010343 92 51 C94.31 49.68 96.62 48.36 99 47 C99 40.73 99 34.46 99 28 C93.8514568 28 90.46646147 28.52899313 86 31 Z M117 50 C114.63307034 52.84826598 114.63307034 52.84826598 115.375 56.1875 C115.58125 57.115625 115.7875 58.04375 116 59 C117.83700789 59.77242269 117.83700789 59.77242269 120 60 C121.95625978 59.04451019 121.95625978 59.04451019 123 57 C122.76716851 53.85078091 122.76716851 53.85078091 122 51 C120.35 50.67 118.7 50.34 117 50 Z " fill="#EAEAEA" transform="translate(65,19)"/>
<path d="M0 0 C1.71864825 0.93623894 3.44840171 1.85231838 5.1875 2.75 C5.98542969 3.17796875 6.78335938 3.6059375 7.60546875 4.046875 C10.3264205 5.12992921 12.09563725 5.31910992 15 5 C17.13078594 4.07546904 19.03488483 2.953741 21.03515625 1.77734375 C23.43648218 0.8273162 24.60740356 1.15273311 27 2 C27.495 4.475 27.495 4.475 28 7 C24.39058387 9.40627742 21.5064318 9.65843673 17.27734375 10.2421875 C14.88418617 10.79095972 14.88418617 10.79095972 13.71484375 12.79296875 C10.63654448 22.29700749 14.84826691 31.75187129 17.93359375 40.7109375 C20.67056378 49.43257407 22.28071659 61.05897129 18.375 69.6875 C14.87784872 75.26570256 10.34465096 78.26964065 4 80 C-4.11632063 80.76035248 -12.34386691 81.30178343 -19 76 C-24.4542508 70.78816035 -26.99645127 64.42062674 -27.4375 56.9375 C-26.7651262 50.88613581 -24.69882371 46.22940496 -20.125 42.125 C-13.6816612 37.74352962 -7.62439183 37.44148407 0 38 C1 39 1 39 1.0625 41.5625 C1.041875 42.366875 1.02125 43.17125 1 44 C0.11957031 44.08636719 -0.76085937 44.17273437 -1.66796875 44.26171875 C-8.79636816 45.06670876 -8.79636816 45.06670876 -15.1875 48.0625 C-17.60086314 51.97381267 -18.94596386 55.36833117 -19 60 C-17.85331887 64.49182678 -15.70325946 67.33022909 -12.375 70.5 C-7.10513244 72.84216336 -2.20295498 73.01003808 3.31640625 71.26953125 C7.57785527 69.34677801 10.22783217 67.48254217 12 63 C14.32846115 54.04438021 11.4159026 45.62629051 7.953125 37.3828125 C5.38186021 30.95465053 5.0077052 25.71186685 5.5 18.8125 C5.67251158 13.84482721 5.67251158 13.84482721 3.0625 9.875 C0.43301312 8.27165434 -2.12513048 7.09812613 -5 6 C-5.72574219 5.66613281 -6.45148437 5.33226562 -7.19921875 4.98828125 C-12.94618162 2.49303804 -18.04375469 2.39440344 -24 4 C-24.0270043 5.45823212 -24.04639787 6.91660675 -24.0625 8.375 C-24.07410156 9.18710937 -24.08570313 9.99921875 -24.09765625 10.8359375 C-24.14466334 13.04937142 -24.14466334 13.04937142 -23 15 C-18.34947128 15.26932521 -18.34947128 15.26932521 -14 14 C-13.34444881 11.47266765 -13.34444881 11.47266765 -13 9 C-13.99 9.495 -13.99 9.495 -15 10 C-15.33 10.99 -15.66 11.98 -16 13 C-16.99 13 -17.98 13 -19 13 C-19.33 11.35 -19.66 9.7 -20 8 C-15.75757576 4 -15.75757576 4 -12.3125 4 C-10 5 -10 5 -8.625 6.6875 C-7.75687678 9.89955593 -8.02468637 11.81397547 -9 15 C-14.01418901 20.78560271 -14.01418901 20.78560271 -18.20703125 21.23828125 C-25.28164844 21.43980708 -25.28164844 21.43980708 -29.0625 19.125 C-32.46235763 15.39612388 -32.34404976 12.43639804 -32.2734375 7.54296875 C-31.86317602 3.72753699 -30.62662245 1.76132103 -28 -1 C-19.2776823 -6.56743683 -8.46986993 -5.26005811 0 0 Z M23 4 C22.01 4.66 21.02 5.32 20 6 C21.32 6 22.64 6 24 6 C23.67 5.34 23.34 4.68 23 4 Z " fill="#EAEAEA" transform="translate(44,7)"/>
<path d="M0 0 C4.62 0 9.24 0 14 0 C13.67 1.65 13.34 3.3 13 5 C9.04 5 5.08 5 1 5 C0.67 3.35 0.34 1.7 0 0 Z " fill="#AFAFAF" transform="translate(164,102)"/>
<path d="M0 0 C0.99 0 1.98 0 3 0 C3 0.66 3 1.32 3 2 C4.98 2 6.96 2 9 2 C8.67 3.65 8.34 5.3 8 7 C4.37 7 0.74 7 -3 7 C-3.33 6.01 -3.66 5.02 -4 4 C-3.67 3.34 -3.34 2.68 -3 2 C-2.01 2 -1.02 2 0 2 C0 1.34 0 0.68 0 0 Z " fill="#ACACAC" transform="translate(183,100)"/>
<path d="M0 0 C6.93 0.495 6.93 0.495 14 1 C14 1.99 14 2.98 14 4 C10.73086376 5.03115279 8.13958652 4.9638984 4.75 4.5625 C3.85796875 4.46066406 2.9659375 4.35882813 2.046875 4.25390625 C1.37140625 4.17011719 0.6959375 4.08632813 0 4 C0 2.68 0 1.36 0 0 Z " fill="#D3D3D3" transform="translate(154,34)"/>
<path d="M0 0 C0.66 0.66 1.32 1.32 2 2 C2.99 2.33 3.98 2.66 5 3 C4.67 4.32 4.34 5.64 4 7 C1.36 7 -1.28 7 -4 7 C-4 5.02 -4 3.04 -4 1 C-2 0 -2 0 0 0 Z " fill="#BBBBBB" transform="translate(145,100)"/>
<path d="M0 0 C0.33 1.65 0.66 3.3 1 5 C-0.65 5.66 -2.3 6.32 -4 7 C-4 5.68 -4 4.36 -4 3 C-4.66 3 -5.32 3 -6 3 C-6.33 2.01 -6.66 1.02 -7 0 C-3.86650268 -1.04449911 -3.01031744 -0.93423645 0 0 Z " fill="#BBBBBB" transform="translate(71,9)"/>
<path d="M0 0 C2.64 0 5.28 0 8 0 C8 1.65 8 3.3 8 5 C5.69 5 3.38 5 1 5 C0.67 3.35 0.34 1.7 0 0 Z " fill="#CECECE" transform="translate(131,102)"/>
<path d="M0 0 C0.66 0 1.32 0 2 0 C2.33 2.31 2.66 4.62 3 7 C1.02 7 -0.96 7 -3 7 C-3.33 5.35 -3.66 3.7 -4 2 C-2.68 2 -1.36 2 0 2 C0 1.34 0 0.68 0 0 Z " fill="#AEAEAE" transform="translate(127,100)"/>
<path d="M0 0 C1.32 0 2.64 0 4 0 C4 2.31 4 4.62 4 7 C2.68 7 1.36 7 0 7 C0 4.69 0 2.38 0 0 Z " fill="#B2B2B2" transform="translate(155,100)"/>
<path d="M0 0 C1.32 0 2.64 0 4 0 C3.67 1.65 3.34 3.3 3 5 C1.68 5 0.36 5 -1 5 C-0.67 3.35 -0.34 1.7 0 0 Z " fill="#D5D5D5" transform="translate(188,102)"/>
<path d="M0 0 C0.66 0 1.32 0 2 0 C2.33 2.31 2.66 4.62 3 7 C2.01 7 1.02 7 0 7 C0 4.69 0 2.38 0 0 Z " fill="#999999" transform="translate(151,100)"/>
<path d="M0 0 C0.66 0 1.32 0 2 0 C2 1.65 2 3.3 2 5 C1.34 5 0.68 5 0 5 C0 3.35 0 1.7 0 0 Z " fill="#A0A0A0" transform="translate(160,102)"/>
<path d="M0 0 C1.65 0 3.3 0 5 0 C4.67 0.66 4.34 1.32 4 2 C2.68 2 1.36 2 0 2 C0 1.34 0 0.68 0 0 Z " fill="#969696" transform="translate(194,105)"/>
</svg>
