<?xml version="1.0" encoding="UTF-8"?>
<svg id="Layer_1" data-name="Layer 1" xmlns="http://www.w3.org/2000/svg" viewBox="0 0 208 65.4">
  <defs>
    <style>
      .cls-1 {
        fill: #fff;
        stroke-width: 0px;
      }
    </style>
  </defs>
  <g>
    <path class="cls-1" d="M2.48,39.8c0-.19.13-.32.32-.32h9.79c.19,0,.32.13.32.32v1.36c0,.19-.13.32-.32.32h-7.56c-.13,0-.19.06-.19.19v7.27c0,.13.06.19.19.19h7.14c.19,0,.32.13.32.32v1.23c0,.19-.13.32-.32.32h-7.14c-.13,0-.19.06-.19.19v8.05c0,.13.06.19.19.19h8.14c.19,0,.32.13.32.32v1.36c0,.19-.13.32-.32.32H2.81c-.19,0-.32-.13-.32-.32v-21.33Z"/>
    <path class="cls-1" d="M17.12,52.82c0-6.24,1.97-8.98,7.66-8.98,1.03,0,2.23.19,2.88.29.16,0,.23-.1.23-.26v-5.85c0-.19.13-.32.32-.32h1.65c.19,0,.32.13.32.32v22.81c0,.19-.1.29-.32.36-1.39.35-3.1.58-5.04.58-6.2,0-7.69-2.84-7.69-8.95ZM27.88,46.46c0-.26-.03-.39-.26-.45-.61-.16-1.81-.32-2.84-.32-4.17,0-5.27,1.62-5.27,7.14s.97,7.14,5.3,7.14c1.1,0,2.1-.1,2.78-.29.26-.1.29-.23.29-.45v-12.76Z"/>
    <path class="cls-1" d="M43.03,61.78c-6.53,0-7.85-4.04-7.85-8.98s1.61-8.95,6.98-8.95,6.33,3.1,6.33,7.4v.71c0,1.26-.29,1.45-.84,1.45h-9.92c-.16,0-.19.06-.19.23,0,4.62,1.71,6.3,5.95,6.3,1.45,0,3.04-.35,4.04-.78.23-.1.42-.1.45.16l.13,1.2c0,.16-.06.29-.23.39-1.33.55-2.97.87-4.85.87ZM37.74,51.66h8.24c.29,0,.39-.06.39-1.13,0-3.23-.9-4.91-4.2-4.91-3.78,0-4.62,2.75-4.62,5.82,0,.13.03.23.19.23Z"/>
    <path class="cls-1" d="M65.94,49.43v11.7c0,.19-.13.32-.32.32h-1.65c-.19,0-.32-.13-.32-.32v-11.47c0-3.04-.84-3.98-4.36-3.98-1.36,0-2.65.13-3.36.29-.23.06-.32.13-.32.35v14.8c0,.19-.13.32-.32.32h-1.65c-.19,0-.32-.13-.32-.32v-16.35c0-.19.13-.29.32-.32,1.74-.36,4.1-.61,5.69-.61,5.07,0,6.62,1.23,6.62,5.59Z"/>
    <path class="cls-1" d="M84.2,39.48c4.17,0,6.43,1.49,6.43,5.4,0,3.01-1.52,4.07-2.75,4.78-.32.16-.39.23-.39.39,0,.13.1.23.29.29,1.58.68,3.3,1.91,3.3,5.27,0,4.27-3.04,5.85-6.17,5.85h-6.53c-.19,0-.32-.13-.32-.32v-21.33c0-.19.13-.32.32-.32h5.82ZM82.9,49.4c3.01,0,5.33-.74,5.33-4.36,0-2.78-1.45-3.68-4.56-3.68h-3.01c-.19,0-.26.1-.26.23v7.56c0,.23.1.26.29.26h2.2ZM83.71,59.58c3.26,0,4.94-.84,4.94-4.2s-2.39-4.27-5.2-4.27h-2.75c-.19,0-.29.06-.29.29v7.92c0,.19.06.26.26.26h3.04Z"/>
    <path class="cls-1" d="M103.32,61.78c-6.53,0-7.85-4.04-7.85-8.98s1.62-8.95,6.98-8.95,6.33,3.1,6.33,7.4v.71c0,1.26-.29,1.45-.84,1.45h-9.92c-.16,0-.19.06-.19.23,0,4.62,1.71,6.3,5.95,6.3,1.45,0,3.04-.35,4.04-.78.23-.1.42-.1.45.16l.13,1.2c0,.16-.06.29-.23.39-1.32.55-2.97.87-4.85.87ZM98.02,51.66h8.24c.29,0,.39-.06.39-1.13,0-3.23-.9-4.91-4.2-4.91-3.78,0-4.62,2.75-4.62,5.82,0,.13.03.23.19.23Z"/>
    <path class="cls-1" d="M113.92,44.45c1.58-.36,3.23-.61,4.75-.61,1.03,0,1.87.03,2.58.16.13.03.19.1.19.26l-.16,1.49c-.03.13-.1.19-.23.16-.71-.13-1.52-.23-2.42-.23-.68,0-1.78.1-2.46.32-.23.06-.29.16-.29.35v14.77c0,.23-.13.35-.36.32h-1.62c-.19,0-.32-.13-.32-.32v-16.35c0-.19.13-.29.32-.32Z"/>
    <path class="cls-1" d="M124.36,56.12v-11.63c0-.19.13-.32.32-.32h1.65c.19,0,.32.13.32.32v11.38c0,3.04.9,4.04,4.43,4.04,1.26,0,2.59-.13,3.3-.29.23-.06.32-.13.32-.36v-14.77c0-.19.13-.32.32-.32h1.65c.19,0,.32.13.32.32v16.35c0,.19-.13.29-.32.32-1.75.35-4.01.61-5.59.61-5.07,0-6.72-1.29-6.72-5.65Z"/>
    <path class="cls-1" d="M160.51,61.45h-3.1c-.13,0-.23-.06-.29-.26-.81-2.91-2.75-10.47-3.72-14.77-.03-.16-.13-.19-.29-.19-.23,0-.29.03-.32.19-1.07,4.3-3.1,11.76-4.01,14.77-.07.23-.19.26-.39.26h-3.01c-.13,0-.23-.13-.26-.26-1.07-3.33-3.91-14.54-4.36-16.74,0-.19.07-.29.23-.29h1.97c.16,0,.19.13.23.29.84,4.1,2.68,11.73,3.49,14.9.06.16.16.19.35.19s.29-.03.32-.19c.94-3.2,2.88-10.79,3.81-14.9.06-.19.16-.29.32-.29h3.17c.16,0,.26.13.29.29.94,4.1,2.88,11.73,3.72,14.9.03.16.13.19.32.19.23,0,.29-.03.35-.19.9-3.17,2.88-10.79,3.72-14.9.06-.19.16-.29.32-.29h1.81c.13,0,.19.16.19.32-.39,2.1-3.52,13.38-4.56,16.71-.07.19-.13.26-.32.26Z"/>
    <path class="cls-1" d="M170.36,46.1c-.19.03-.35,0-.39-.19l-.19-1.07c-.03-.19,0-.36.19-.42,1.23-.36,2.91-.58,4.85-.58,4.01,0,5.69,1.49,5.69,5.27v11.67c0,.23-.06.42-.39.52-1,.29-2.84.48-4.75.48-5.4,0-6.95-1.2-6.95-4.72,0-3.07.68-4.72,5.36-5.17l4.33-.42c.13-.03.19-.1.19-.23v-1.75c0-2.88-.94-3.78-3.91-3.78-1.36,0-3.01.19-4.04.39ZM178.31,53.54c0-.13-.06-.19-.19-.19h-3.56c-3.07,0-3.85.81-3.85,3.46s.84,3.3,4.49,3.3c1,0,2.29-.06,2.78-.19.26-.06.32-.13.32-.26v-6.11Z"/>
    <path class="cls-1" d="M189.4,61.74c-2.46,0-3.2-1-3.2-4.17v-19.55c0-.19.13-.32.32-.32h1.65c.19,0,.32.13.32.32v19.55c0,1.91.23,2.39,1.58,2.39h1.33c.16,0,.29.06.29.26l-.07,1c-.03.16-.1.26-.26.29-.55.13-1.16.23-1.97.23Z"/>
    <path class="cls-1" d="M196.34,46.1c-.19.03-.36,0-.39-.19l-.19-1.07c-.03-.19,0-.36.19-.42,1.23-.36,2.91-.58,4.85-.58,4.01,0,5.69,1.49,5.69,5.27v11.67c0,.23-.06.42-.39.52-1,.29-2.84.48-4.75.48-5.4,0-6.95-1.2-6.95-4.72,0-3.07.68-4.72,5.36-5.17l4.33-.42c.13-.03.19-.1.19-.23v-1.75c0-2.88-.94-3.78-3.91-3.78-1.36,0-3.01.19-4.04.39ZM204.29,53.54c0-.13-.06-.19-.19-.19h-3.55c-3.07,0-3.85.81-3.85,3.46s.84,3.3,4.49,3.3c1,0,2.3-.06,2.78-.19.26-.06.32-.13.32-.26v-6.11Z"/>
  </g>
  <path class="cls-1" d="M149.58,27.7c.16-.03.32-.2.32-.39l.1-2.14c0-.26-.16-.32-.32-.32h-1.04c-.94,0-1.36-.32-1.36-1.36V4.24c0-.23-.13-.36-.32-.36h-3.6c-.19,0-.32.13-.32.36v19.83c0,3.01,1.36,3.95,4.05,3.95,1.01,0,1.78-.13,2.5-.32M134.39,24.91c0,.1-.03.16-.23.23-.42.1-1.3.16-2.04.16-2.56,0-3.14-.26-3.14-2.56s.71-2.75,3.05-2.75h2.17c.13,0,.19.07.19.2v4.73ZM130.95,13.44c2.53,0,3.43.45,3.43,2.4v1.3c0,.13-.07.16-.19.19l-3.82.49c-4.76.58-5.51,2.07-5.51,5.38,0,3.73,1.75,4.83,7.58,4.83,2.24,0,4.54-.23,5.67-.58.36-.13.42-.29.42-.49v-11.76c0-3.79-2.43-5.15-6.45-5.15-2.17,0-4.44.26-5.67.62-.2.07-.23.26-.2.45l.23,2.49c.03.19.29.19.49.16,1.04-.16,2.85-.32,4.02-.32M121.98,27.73c.16-.03.32-.23.32-.42l.1-2.17c0-.26-.16-.32-.32-.32h-1.01c-1.04,0-1.39-.29-1.39-1.36v-9.62c0-.13.06-.19.19-.19h2.72c.19,0,.32-.13.32-.32v-2.62c0-.19-.13-.32-.32-.32h-2.72c-.13,0-.19-.07-.19-.2v-4.05c0-.19-.13-.32-.32-.32h-3.6c-.19,0-.32.13-.32.32v4.05c0,.13-.07.2-.2.2h-2.24c-.19,0-.32.13-.32.32v2.62c0,.19.13.32.32.32h2.24c.13,0,.2.06.2.19v10.63c0,2.37,1.33,3.56,3.92,3.56.91,0,1.91-.13,2.62-.29M109.7,27.7c.19,0,.32-.13.32-.32v-11.15c0-4.73-1.52-6.19-7.22-6.19-2.04,0-4.96.39-6.71.68-.19.03-.32.13-.32.32v16.33c0,.19.13.32.32.32h3.6c.19,0,.32-.13.32-.32v-13.54c0-.19.1-.26.32-.32.55-.13,1.33-.19,2.3-.19,2.59,0,3.14.65,3.14,3.11v10.95c0,.19.13.32.32.32h3.6ZM91.1,27.09c.16-.07.23-.16.23-.29l-.23-2.53c-.07-.13-.19-.16-.36-.16-1.01.32-2.92.74-4.57.74-3.01,0-4.67-.87-4.67-4.34,0-.13.03-.19.2-.19h9.14c.78,0,.87-.55.87-2.75,0-4.7-1.56-7.52-6.74-7.52s-7.74,3.24-7.74,9.04c0,5.48,2.01,8.94,8.33,8.94,2.27,0,4.28-.36,5.54-.94M81.45,17.46c0-2.53.58-4.47,3.47-4.47,2.46,0,3.08,1.3,3.08,3.76,0,.87-.1.94-.36.94h-5.99c-.13,0-.19-.1-.19-.23M68.91,24.46c0,.16-.07.26-.29.32-.45.13-1.26.16-1.78.16-3.43,0-3.99-1.2-3.99-5.96s.97-5.8,3.92-5.8c.71,0,1.43.07,1.88.16.19.03.26.26.26.42v10.69ZM66.8,28.02c2.07,0,4.96-.23,6.03-.68.29-.13.32-.26.32-.42V4.21c0-.19-.13-.32-.32-.32h-3.6c-.19,0-.32.13-.32.32v5.77c0,.16-.03.29-.23.29-.42,0-1.65-.19-2.75-.19-5.28,0-7.49,2.92-7.49,8.85,0,6.64,1.62,9.1,8.36,9.1M53.97,7.48c.19,0,.32-.13.32-.32v-3.21c0-.19-.13-.32-.32-.32h-3.79c-.19,0-.32.13-.32.32v3.21c0,.19.13.32.32.32h3.79ZM53.87,27.7c.19,0,.32-.13.32-.32V10.69c0-.19-.13-.32-.32-.32h-3.6c-.19,0-.32.13-.32.32v16.69c0,.19.13.32.32.32h3.6ZM46.48,27.57c.1-.07.16-.13.13-.29l-.19-2.79c-.03-.16-.19-.13-.32-.1-.65.16-1.62.29-2.46.29-2.75,0-3.53-1.3-3.53-5.51,0-4.54.81-5.86,3.5-5.86.91,0,1.88.16,2.53.32.16.06.26-.03.26-.13l.13-2.79c0-.16-.07-.2-.16-.23-.71-.26-2.01-.45-3.53-.45-5.35,0-7.19,3.5-7.19,9.1s1.91,8.88,7.23,8.88c1.33,0,2.69-.16,3.63-.45M33.2,27.57c.1-.07.16-.13.13-.29l-.2-2.79c-.03-.16-.19-.13-.32-.1-.65.16-1.62.29-2.46.29-2.75,0-3.53-1.3-3.53-5.51,0-4.54.81-5.86,3.5-5.86.91,0,1.88.16,2.53.32.16.06.26-.03.26-.13l.13-2.79c0-.16-.07-.2-.16-.23-.71-.26-2.01-.45-3.53-.45-5.35,0-7.19,3.5-7.19,9.1s1.91,8.88,7.23,8.88c1.33,0,2.69-.16,3.63-.45M18.78,16.68c0-4.12-.78-7.61-2.2-9.3-1.36-1.62-3.24-2.04-6.38-2.04s-5.12.42-6.51,2.04c-1.39,1.68-2.17,5.18-2.17,9.3s.78,7.61,2.17,9.3c1.39,1.62,3.27,2.04,6.42,2.04s5.12-.42,6.48-2.04c1.43-1.68,2.2-5.18,2.2-9.3M6.01,16.68c0-3.11.32-5.96,1.04-6.97.52-.71,1.43-.81,3.14-.81s2.53.1,3.05.81c.71,1.01,1.04,3.86,1.04,6.97s-.32,5.96-1.04,6.97c-.52.71-1.39.81-3.11.81s-2.56-.1-3.08-.81c-.71-1.01-1.04-3.89-1.04-6.97"/>
</svg>