<?xml version="1.0" encoding="UTF-8"?>
<svg version="1.1" xmlns="http://www.w3.org/2000/svg" width="255" height="71">
<path d="M0 0 C8.86123441 5.3756519 14.72703056 13.71448755 17.3203125 23.7109375 C18.81822664 34.04234533 15.73977516 42.38059864 10.1953125 51.0234375 C9.2465625 51.9103125 8.2978125 52.7971875 7.3203125 53.7109375 C6.66417969 54.34128906 6.00804687 54.97164062 5.33203125 55.62109375 C-3.04330799 62.34006606 -12.94562847 62.13198561 -23.203125 61.12011719 C-30.74654582 59.87378701 -35.59235715 55.38626386 -40.1796875 49.5859375 C-41.04447812 48.31511713 -41.87751382 47.02218294 -42.6796875 45.7109375 C-43.21335937 45.02515625 -43.74703125 44.339375 -44.296875 43.6328125 C-48.04807962 35.70653832 -47.23590874 23.15324175 -44.390625 15.03125 C-40.91905496 9.30870761 -36.35848342 5.18502441 -30.6796875 1.7109375 C-29.99390625 1.17726563 -29.308125 0.64359375 -28.6015625 0.09375 C-20.67528832 -3.65745462 -8.12199175 -2.84528374 0 0 Z " fill="#2B186C" transform="translate(50.6796875,6.2890625)"/>
<path d="M0 0 C0.20674944 5.78898419 -0.40837921 10.42932723 -2 16 C-1.01 16 -0.02 16 1 16 C1 15.34 1 14.68 1 14 C4.57644848 12.7619986 7.33694766 13.25073929 11 14 C11 13.34 11 12.68 11 12 C9.35 12 7.7 12 6 12 C6.875 4.25 6.875 4.25 8 2 C10.31 2.33 12.62 2.66 15 3 C15.495 4.98 15.495 4.98 16 7 C15.360625 7.12375 14.72125 7.2475 14.0625 7.375 C13.381875 7.58125 12.70125 7.7875 12 8 C11.67 8.66 11.34 9.32 11 10 C12.65 10 14.3 10 16 10 C16.4375 12.125 16.4375 12.125 16 15 C13.916878 17.33462754 11.61288556 19.27975181 9 21 C8.34 21 7.68 21 7 21 C6.67 21.99 6.34 22.98 6 24 C4.68 24 3.36 24 2 24 C2 24.66 2 25.32 2 26 C6.57619757 26.07756267 10.51322418 25.89735516 15 25 C15.99 25.33 16.98 25.66 18 26 C18 26.66 18 27.32 18 28 C19.32 28 20.64 28 22 28 C22 28.99 22 29.98 22 31 C21.14535156 30.91621094 20.29070313 30.83242188 19.41015625 30.74609375 C18.30542969 30.64425781 17.20070312 30.54242188 16.0625 30.4375 C14.96035156 30.33308594 13.85820313 30.22867188 12.72265625 30.12109375 C11.82417969 30.08113281 10.92570312 30.04117188 10 30 C9.67 30.33 9.34 30.66 9 31 C7.47480724 30.91062197 5.95318071 30.75462854 4.4375 30.5625 C3.61121094 30.46066406 2.78492187 30.35882813 1.93359375 30.25390625 C1.29550781 30.17011719 0.65742188 30.08632813 0 30 C-0.33 28.68 -0.66 27.36 -1 26 C-2.35544922 25.92652344 -2.35544922 25.92652344 -3.73828125 25.8515625 C-4.91777344 25.77679688 -6.09726562 25.70203125 -7.3125 25.625 C-8.48425781 25.55539063 -9.65601563 25.48578125 -10.86328125 25.4140625 C-14 25 -14 25 -17 23 C-16.48088587 18.36258043 -14.40586256 15.20445554 -11.75 11.5 C-11.36714844 10.94441406 -10.98429687 10.38882813 -10.58984375 9.81640625 C-3.68371324 0 -3.68371324 0 0 0 Z " fill="#CE912B" transform="translate(31,23)"/>
<path d="M0 0 C0.3152595 5.98993047 -0.31780178 9.63560356 -3 15 C-4.98 15 -6.96 15 -9 15 C-9.33 16.65 -9.66 18.3 -10 20 C-8.68 20.33 -7.36 20.66 -6 21 C-6 20.34 -6 19.68 -6 19 C-6.66 19 -7.32 19 -8 19 C-8 18.34 -8 17.68 -8 17 C-5.03 17 -2.06 17 1 17 C1.04241723 19.33294775 1.04092937 21.66702567 1 24 C-0.92578255 25.92578255 -4.32035408 25.17443944 -6.875 25.1875 C-8.13054688 25.20167969 -9.38609375 25.21585938 -10.6796875 25.23046875 C-14 25 -14 25 -17 23 C-16.48088587 18.36258043 -14.40586256 15.20445554 -11.75 11.5 C-11.36714844 10.94441406 -10.98429687 10.38882813 -10.58984375 9.81640625 C-3.68371324 0 -3.68371324 0 0 0 Z " fill="#DB9B25" transform="translate(31,23)"/>
<path d="M0 0 C10.46186157 -0.36924217 10.46186157 -0.36924217 12.8046875 1.23828125 C15.0158335 4.49719252 15 8.14929563 15 12 C14.27767505 15.02063161 13.44380837 16.48518229 11.4375 18.8125 C9 20 9 20 0 20 C0 13.4 0 6.8 0 0 Z M6 3 C6 7.62 6 12.24 6 17 C9.11351716 14.46559165 9.11351716 14.46559165 9.328125 12.0625 C9.30234375 11.381875 9.2765625 10.70125 9.25 10 C9.23453125 9.319375 9.2190625 8.63875 9.203125 7.9375 C9.04772119 5.78385108 9.04772119 5.78385108 8 3 C7.34 3 6.68 3 6 3 Z " fill="#FFFFFF" transform="translate(216,17)"/>
<path d="M0 0 C2.15625 0.56640625 2.15625 0.56640625 3.90625 2.23046875 C6.30668669 6.71628482 5.86879077 11.63911964 5.15625 16.56640625 C3.03125 19.81640625 3.03125 19.81640625 0.15625 21.56640625 C-3.98599306 22.14632028 -5.32550489 21.91190299 -8.84375 19.56640625 C-10.69153127 14.02306245 -10.54914515 7.96474976 -8.90625 2.37890625 C-6.02561473 -0.15256111 -3.73634965 0.00622725 0 0 Z M-2.84375 2.56640625 C-4.98928377 5.7847069 -5.13958868 6.83427132 -5.15625 10.56640625 C-5.17300781 11.43265625 -5.18976563 12.29890625 -5.20703125 13.19140625 C-4.78078947 15.97801915 -4.00543863 16.83249242 -1.84375 18.56640625 C-0.47842451 17.42939028 -0.47842451 17.42939028 -0.74609375 14.40625 C-0.75769531 13.11847656 -0.76929687 11.83070312 -0.78125 10.50390625 C-0.79027344 9.21355469 -0.79929687 7.92320313 -0.80859375 6.59375 C-0.82019531 5.59472656 -0.83179687 4.59570312 -0.84375 3.56640625 C-1.50375 3.23640625 -2.16375 2.90640625 -2.84375 2.56640625 Z " fill="#FFFFFF" transform="translate(101.84375,16.43359375)"/>
<path d="M0 0 C1.76949095 -0.10815225 3.54087487 -0.18566083 5.3125 -0.25 C6.29863281 -0.29640625 7.28476563 -0.3428125 8.30078125 -0.390625 C11 0 11 0 12.828125 1.67578125 C14.98494202 5.95346835 14.59298246 10.33888207 14 15 C12.5625 18.1875 12.5625 18.1875 10 20 C6.94612699 20.44313192 4.05505802 20.43378106 1 20 C0 19 0 19 -0.11352539 17.14233398 C-0.10828857 16.35157471 -0.10305176 15.56081543 -0.09765625 14.74609375 C-0.09443359 13.89208984 -0.09121094 13.03808594 -0.08789062 12.15820312 C-0.07951172 11.26037109 -0.07113281 10.36253906 -0.0625 9.4375 C-0.05798828 8.53580078 -0.05347656 7.63410156 -0.04882812 6.70507812 C-0.03700225 4.46998686 -0.0205222 2.23502563 0 0 Z M5 2 C5 6.95 5 11.9 5 17 C6.32 16.34 7.64 15.68 9 15 C9.05416188 13.39620659 9.09286638 11.79188594 9.125 10.1875 C9.14820313 9.29417969 9.17140625 8.40085937 9.1953125 7.48046875 C9.18285827 4.74597286 9.18285827 4.74597286 7 2 C6.34 2 5.68 2 5 2 Z " fill="#FFFFFF" transform="translate(126,17)"/>
<path d="M0 0 C2.475 0.495 2.475 0.495 5 1 C5.33 1.66 5.66 2.32 6 3 C6.33 2.01 6.66 1.02 7 0 C8.65 0 10.3 0 12 0 C12 6.6 12 13.2 12 20 C8 19 8 19 6.734375 17.37109375 C5.82291667 15.58072917 4.91145833 13.79036458 4 12 C3.67 14.64 3.34 17.28 3 20 C2.01 20 1.02 20 0 20 C0 13.4 0 6.8 0 0 Z " fill="#FFFFFF" transform="translate(200,17)"/>
<path d="M0 0 C2.05078125 0.03255208 4.1015625 0.06510417 6.15234375 0.09765625 C6.81234375 1.41765625 7.47234375 2.73765625 8.15234375 4.09765625 C3.40234375 3.22265625 3.40234375 3.22265625 1.15234375 2.09765625 C1.125408 4.22258766 1.10597747 6.34761537 1.08984375 8.47265625 C1.07824219 9.65601563 1.06664063 10.839375 1.0546875 12.05859375 C0.93767782 15.01687146 0.93767782 15.01687146 2.15234375 17.09765625 C2.15234375 15.44765625 2.15234375 13.79765625 2.15234375 12.09765625 C3.80234375 12.09765625 5.45234375 12.09765625 7.15234375 12.09765625 C7.48234375 15.06765625 7.81234375 18.03765625 8.15234375 21.09765625 C6.54855034 21.15181813 4.94422969 21.19052263 3.33984375 21.22265625 C2.44652344 21.24585937 1.55320312 21.2690625 0.6328125 21.29296875 C-1.84765625 21.09765625 -1.84765625 21.09765625 -4.84765625 19.09765625 C-6.52544256 13.91177131 -6.81052599 8.06525962 -4.41015625 3.16015625 C-2.10019229 0.11100382 -2.10019229 0.11100382 0 0 Z " fill="#FFFFFF" transform="translate(78.84765625,16.90234375)"/>
<path d="M0 0 C1.65 0 3.3 0 5 0 C6.62875999 4.4482941 7.50525722 8.68266178 8.125 13.375 C8.29257813 14.62023438 8.46015625 15.86546875 8.6328125 17.1484375 C8.75398437 18.08945312 8.87515625 19.03046875 9 20 C7.35 20 5.7 20 4 20 C3.67 19.01 3.34 18.02 3 17 C2.34 16.67 1.68 16.34 1 16 C0.67 17.32 0.34 18.64 0 20 C-0.99 20 -1.98 20 -3 20 C-2.22095672 6.3667426 -2.22095672 6.3667426 0 0 Z " fill="#FFFFFF" transform="translate(186,17)"/>
<path d="M0 0 C3.5625 0.125 3.5625 0.125 5.5625 1.125 C5.5625 1.785 5.5625 2.445 5.5625 3.125 C4.2425 3.455 2.9225 3.785 1.5625 4.125 C1.5625 3.465 1.5625 2.805 1.5625 2.125 C0.9025 2.125 0.2425 2.125 -0.4375 2.125 C1.51255528 5.62656936 1.51255528 5.62656936 4.1875 8.5625 C6.31717218 10.98258203 6.49775116 12.95230697 6.5625 16.125 C5.125 18.5625 5.125 18.5625 2.5625 20.125 C-0.25922484 20.15187357 -2.6417342 19.68415316 -5.4375 19.125 C-5.1075 17.805 -4.7775 16.485 -4.4375 15.125 C-3.4475 15.125 -2.4575 15.125 -1.4375 15.125 C-1.4375 15.785 -1.4375 16.445 -1.4375 17.125 C-0.7775 17.125 -0.1175 17.125 0.5625 17.125 C-0.48790987 14.06130455 -1.43835851 12.12404338 -3.625 9.6875 C-5.4375 7.125 -5.4375 7.125 -5.25 3.875 C-4.14969716 0.15089808 -4.14969716 0.15089808 0 0 Z " fill="#FFFFFF" transform="translate(172.4375,16.875)"/>
<path d="M0 0 C2.01822917 0.06510417 4.03645833 0.13020833 6.0546875 0.1953125 C6.0546875 1.5153125 6.0546875 2.8353125 6.0546875 4.1953125 C5.0646875 4.1953125 4.0746875 4.1953125 3.0546875 4.1953125 C3.0546875 3.5353125 3.0546875 2.8753125 3.0546875 2.1953125 C2.3946875 2.1953125 1.7346875 2.1953125 1.0546875 2.1953125 C1.41628668 5.44970513 2.137142 6.27173374 4.6171875 8.5703125 C7.0546875 11.1953125 7.0546875 11.1953125 7.5546875 14.3203125 C7.0546875 17.1953125 7.0546875 17.1953125 5.9296875 19.0703125 C3.23751207 20.68561776 1.13315545 20.45730977 -1.9453125 20.1953125 C-2.6053125 19.8653125 -3.2653125 19.5353125 -3.9453125 19.1953125 C-3.9453125 17.8753125 -3.9453125 16.5553125 -3.9453125 15.1953125 C-1.77656998 15.70135242 0.05436377 16.19515063 2.0546875 17.1953125 C0.85393832 13.38434074 0.85393832 13.38434074 -2.0703125 10.8203125 C-3.9453125 9.1953125 -3.9453125 9.1953125 -4.3203125 5.6328125 C-3.74686289 0.37619105 -3.74686289 0.37619105 0 0 Z " fill="#FFFFFF" transform="translate(238.9453125,16.8046875)"/>
<path d="M0 0 C1.134375 0.020625 2.26875 0.04125 3.4375 0.0625 C3.4375 0.7225 3.4375 1.3825 3.4375 2.0625 C4.4275 2.0625 5.4175 2.0625 6.4375 2.0625 C6.7675 1.4025 7.0975 0.7425 7.4375 0.0625 C7.4375 3.0325 7.4375 6.0025 7.4375 9.0625 C9.0875 8.7325 10.7375 8.4025 12.4375 8.0625 C12.1075 8.7225 11.7775 9.3825 11.4375 10.0625 C10.1175 10.0625 8.7975 10.0625 7.4375 10.0625 C7.4375 10.7225 7.4375 11.3825 7.4375 12.0625 C12.01369757 12.14006267 15.95072418 11.95985516 20.4375 11.0625 C21.4275 11.3925 22.4175 11.7225 23.4375 12.0625 C23.4375 12.7225 23.4375 13.3825 23.4375 14.0625 C24.7575 14.0625 26.0775 14.0625 27.4375 14.0625 C27.4375 15.0525 27.4375 16.0425 27.4375 17.0625 C26.58285156 16.97871094 25.72820313 16.89492188 24.84765625 16.80859375 C23.74292969 16.70675781 22.63820313 16.60492188 21.5 16.5 C20.39785156 16.39558594 19.29570313 16.29117188 18.16015625 16.18359375 C17.26167969 16.14363281 16.36320312 16.10367188 15.4375 16.0625 C15.1075 16.3925 14.7775 16.7225 14.4375 17.0625 C12.91230724 16.97312197 11.39068071 16.81712854 9.875 16.625 C9.04871094 16.52316406 8.22242188 16.42132813 7.37109375 16.31640625 C6.73300781 16.23261719 6.09492188 16.14882813 5.4375 16.0625 C5.31375 15.423125 5.19 14.78375 5.0625 14.125 C4.85625 13.444375 4.65 12.76375 4.4375 12.0625 C3.7775 11.7325 3.1175 11.4025 2.4375 11.0625 C3.4275 10.7325 4.4175 10.4025 5.4375 10.0625 C5.7675 7.7525 6.0975 5.4425 6.4375 3.0625 C3.4675 3.0625 0.4975 3.0625 -2.5625 3.0625 C-2.5625 3.7225 -2.5625 4.3825 -2.5625 5.0625 C-1.9025 5.0625 -1.2425 5.0625 -0.5625 5.0625 C-0.5625 5.7225 -0.5625 6.3825 -0.5625 7.0625 C-2.2125 6.7325 -3.8625 6.4025 -5.5625 6.0625 C-4.48849278 0.07874549 -4.48849278 0.07874549 0 0 Z " fill="#432C69" transform="translate(25.5625,36.9375)"/>
<path d="M0 0 C0.99 0 1.98 0 3 0 C3.66 0.99 4.32 1.98 5 3 C5.33 2.01 5.66 1.02 6 0 C7.32 0 8.64 0 10 0 C10 4.62 10 9.24 10 14 C4 13 4 13 3 12 C2.67 12.66 2.34 13.32 2 14 C1.01 13.67 0.02 13.34 -1 13 C-1.0272415 11.58344207 -1.04650467 10.16672955 -1.0625 8.75 C-1.07410156 7.96109375 -1.08570313 7.1721875 -1.09765625 6.359375 C-1.00385306 4.09308998 -0.63241063 2.1711105 0 0 Z " fill="#FFFFFF" transform="translate(212,44)"/>
<path d="M0 0 C2.52017426 2.52017426 2.29730377 3.51499849 2.3125 7 C2.32925781 7.886875 2.34601563 8.77375 2.36328125 9.6875 C2.24339844 10.450625 2.12351563 11.21375 2 12 C-1.22143276 14.14762184 -2.2595467 14.561068 -6 14 C-7.875 12.5625 -7.875 12.5625 -9 10 C-9.0376142 6.92638244 -8.801913 3.97250459 -8 1 C-5.23749964 -0.38125018 -3.05268901 -0.19079306 0 0 Z M-4 3 C-4.6878236 5.35367713 -4.6878236 5.35367713 -5 8 C-4.01 9.485 -4.01 9.485 -3 11 C-1.64381501 9.87465895 -1.64381501 9.87465895 -1.9375 6.9375 C-1.958125 5.968125 -1.97875 4.99875 -2 4 C-2.66 3.67 -3.32 3.34 -4 3 Z " fill="#FFFFFF" transform="translate(246,44)"/>
<path d="M0 0 C2.54014875 3.81022313 2.58606955 6.53470816 2 11 C0.875 13 0.875 13 -1 14 C-4.0625 14.3125 -4.0625 14.3125 -7 14 C-9.41486943 11.58513057 -9.2961925 10.87292211 -9.3125 7.5625 C-9.32925781 6.78003906 -9.34601563 5.99757813 -9.36328125 5.19140625 C-8.47846272 -0.14604749 -4.82178118 -0.61554653 0 0 Z M-4 3 C-5.35618499 4.12534105 -5.35618499 4.12534105 -5.0625 7.0625 C-5.041875 8.031875 -5.02125 9.00125 -5 10 C-4.01 10 -3.02 10 -2 10 C-2 8.02 -2 6.04 -2 4 C-2.66 3.67 -3.32 3.34 -4 3 Z " fill="#FFFFFF" transform="translate(206,44)"/>
<path d="M0 0 C1.65 0 3.3 0 5 0 C5 5.61 5 11.22 5 17 C6.65 17 8.3 17 10 17 C10 17.99 10 18.98 10 20 C6.7 20 3.4 20 0 20 C0 13.4 0 6.8 0 0 Z " fill="#FFFFFF" transform="translate(112,17)"/>
<path d="M0 0 C0.3152595 5.98993047 -0.31780178 9.63560356 -3 15 C-4.36125 14.938125 -4.36125 14.938125 -5.75 14.875 C-8.8782046 14.99531556 -10.38614006 15.3914708 -13 17 C-12.46150719 12.8812577 -11.23564667 10.58047756 -8.625 7.375 C-8.01914062 6.61960937 -7.41328125 5.86421875 -6.7890625 5.0859375 C-2.42696629 0 -2.42696629 0 0 0 Z " fill="#E09E24" transform="translate(31,23)"/>
<path d="M0 0 C2.31 0 4.62 0 7 0 C8.62229977 4.77146992 9.28773671 8.0831871 8 13 C7.67 13.33 7.34 13.66 7 14 C4.69 14 2.38 14 0 14 C0 9.38 0 4.76 0 0 Z M4 3 C5 5 5 5 5 5 Z M4 8 C5 11 5 11 5 11 Z " fill="#FFFFFF" transform="translate(225,44)"/>
<path d="M0 0 C3 0.25 3 0.25 5 2.25 C5.30078125 4.30859375 5.30078125 4.30859375 5.3125 6.6875 C5.32925781 7.46996094 5.34601563 8.25242187 5.36328125 9.05859375 C4.9163787 11.75442528 4.16134354 12.62384629 2 14.25 C-0.5625 14.5625 -0.5625 14.5625 -3 14.25 C-5 12.25 -5 12.25 -5.265625 9.9375 C-5.26046875 9.050625 -5.2553125 8.16375 -5.25 7.25 C-5.25515625 6.363125 -5.2603125 5.47625 -5.265625 4.5625 C-4.83803703 0.83996944 -3.62712046 0.30226004 0 0 Z M-1 3.25 C-1 5.89 -1 8.53 -1 11.25 C-0.34 11.25 0.32 11.25 1 11.25 C1.79953138 7.96303767 2.09658936 6.53976808 1 3.25 C0.34 3.25 -0.32 3.25 -1 3.25 Z " fill="#FFFFFF" transform="translate(93,43.75)"/>
<path d="M0 0 C1.32 0 2.64 0 4 0 C4 1.65 4 3.3 4 5 C4.66 5.33 5.32 5.66 6 6 C6 4.02 6 2.04 6 0 C6.99 0 7.98 0 9 0 C9 4.62 9 9.24 9 14 C8.01 14 7.02 14 6 14 C6 12.02 6 10.04 6 8 C5.01 8.495 5.01 8.495 4 9 C4 10.65 4 12.3 4 14 C2.68 14 1.36 14 0 14 C0 9.38 0 4.76 0 0 Z " fill="#FFFFFF" transform="translate(75,44)"/>
<path d="M0 0 C1.65 0 3.3 0 5 0 C5 6.6 5 13.2 5 20 C3.35 20 1.7 20 0 20 C0 13.4 0 6.8 0 0 Z " fill="#FFFFFF" transform="translate(145,17)"/>
<path d="M0 0 C0.33 1.65 0.66 3.3 1 5 C-0.32 4.67 -1.64 4.34 -3 4 C-3 5.98 -3 7.96 -3 10 C-2.67 9.34 -2.34 8.68 -2 8 C-1.01 8 -0.02 8 1 8 C1.33 9.98 1.66 11.96 2 14 C0.72125 14.061875 -0.5575 14.12375 -1.875 14.1875 C-2.59429687 14.22230469 -3.31359375 14.25710937 -4.0546875 14.29296875 C-4.69664062 14.19628906 -5.33859375 14.09960938 -6 14 C-8.07358419 10.88962372 -8.29487123 10.00438748 -8.3125 6.4375 C-8.32925781 5.65246094 -8.34601563 4.86742187 -8.36328125 4.05859375 C-8.24339844 3.37925781 -8.12351563 2.69992188 -8 2 C-4.77208445 -0.1519437 -3.71599191 -0.20086443 0 0 Z " fill="#FFFFFF" transform="translate(192,44)"/>
<path d="M0 0 C4 1 4 1 5 2 C5 1.34 5 0.68 5 0 C5.99 0 6.98 0 8 0 C8 4.62 8 9.24 8 14 C7.34 14 6.68 14 6 14 C4.375 11.5 4.375 11.5 3 9 C2.67 10.65 2.34 12.3 2 14 C1.34 14 0.68 14 0 14 C0 9.38 0 4.76 0 0 Z " fill="#FFFFFF" transform="translate(161,44)"/>
<path d="M0 0 C0.66 0 1.32 0 2 0 C2 4.95 2 9.9 2 15 C0.68 14.34 -0.64 13.68 -2 13 C-5.18522204 13.30803455 -5.18522204 13.30803455 -8 14 C-8 12.02 -8 10.04 -8 8 C-6.68 8 -5.36 8 -4 8 C-3.71125 7.4225 -3.4225 6.845 -3.125 6.25 C-2.08333333 4.16666667 -1.04166667 2.08333333 0 0 Z " fill="#D39529" transform="translate(56,20)"/>
<path d="M0 0 C2.64 0 5.28 0 8 0 C8 0.99 8 1.98 8 3 C6.68 3 5.36 3 4 3 C4 3.99 4 4.98 4 6 C4.66 6 5.32 6 6 6 C6 6.66 6 7.32 6 8 C5.34 8 4.68 8 4 8 C4 8.99 4 9.98 4 11 C5.32 11 6.64 11 8 11 C8 11.99 8 12.98 8 14 C5.36 14 2.72 14 0 14 C0 9.38 0 4.76 0 0 Z " fill="#FFFFFF" transform="translate(112,44)"/>
<path d="M0 0 C2.64 0 5.28 0 8 0 C8 0.99 8 1.98 8 3 C6.02 3.99 6.02 3.99 4 5 C4.66 5.33 5.32 5.66 6 6 C6 6.66 6 7.32 6 8 C5.34 8.66 4.68 9.32 4 10 C5.32 10.33 6.64 10.66 8 11 C8 11.99 8 12.98 8 14 C5.36 14 2.72 14 0 14 C0 9.38 0 4.76 0 0 Z " fill="#FFFFFF" transform="translate(173,44)"/>
<path d="M0 0 C2.31 0.33 4.62 0.66 7 1 C7.33 2.32 7.66 3.64 8 5 C7.360625 5.12375 6.72125 5.2475 6.0625 5.375 C5.0415625 5.684375 5.0415625 5.684375 4 6 C3.67 6.66 3.34 7.32 3 8 C4.65 8 6.3 8 8 8 C8 9.65 8 11.3 8 13 C7.67 11.68 7.34 10.36 7 9 C6.01 9 5.02 9 4 9 C3.67 9.99 3.34 10.98 3 12 C3 11.34 3 10.68 3 10 C1.35 10 -0.3 10 -2 10 C-1.125 2.25 -1.125 2.25 0 0 Z " fill="#CD912B" transform="translate(39,25)"/>
<path d="M0 0 C0 0.66 0 1.32 0 2 C1.32 2 2.64 2 4 2 C4 2.99 4 3.98 4 5 C3.14535156 4.91621094 2.29070313 4.83242188 1.41015625 4.74609375 C0.30542969 4.64425781 -0.79929687 4.54242188 -1.9375 4.4375 C-3.03964844 4.33308594 -4.14179687 4.22867188 -5.27734375 4.12109375 C-6.17582031 4.08113281 -7.07429688 4.04117188 -8 4 C-8.33 4.33 -8.66 4.66 -9 5 C-11.69082872 4.82364548 -14.32851446 4.38164079 -17 4 C-17 3.01 -17 2.02 -17 1 C-16.06027344 0.90912109 -16.06027344 0.90912109 -15.1015625 0.81640625 C-13.87566406 0.69072266 -13.87566406 0.69072266 -12.625 0.5625 C-11.81289063 0.48128906 -11.00078125 0.40007813 -10.1640625 0.31640625 C-3.4214876 -0.66942149 -3.4214876 -0.66942149 0 0 Z " fill="#D2CEE0" transform="translate(49,49)"/>
<path d="M0 0 C2.97 0 5.94 0 9 0 C9 0.99 9 1.98 9 3 C8.34 3 7.68 3 7 3 C7 6.63 7 10.26 7 14 C5.68 14 4.36 14 3 14 C3 10.37 3 6.74 3 3 C2.01 3 1.02 3 0 3 C0 2.01 0 1.02 0 0 Z " fill="#FFFFFF" transform="translate(100,44)"/>
<path d="M0 0 C7.26 0 14.52 0 22 0 C22 0.66 22 1.32 22 2 C18.36211946 4.29186474 15.2381715 4.26795835 11 4.25 C9.783125 4.25515625 8.56625 4.2603125 7.3125 4.265625 C4.24711209 4.01981559 2.56337048 3.6149234 0 2 C0 1.34 0 0.68 0 0 Z " fill="#EFEEF4" transform="translate(27,55)"/>
<path d="M0 0 C0.99 0 1.98 0 3 0 C3 3.63 3 7.26 3 11 C3.99 11 4.98 11 6 11 C6 11.99 6 12.98 6 14 C4.02 14 2.04 14 0 14 C-1.31164842 11.37670316 -1.13262846 9.36301375 -1.125 6.4375 C-1.12757812 5.44621094 -1.13015625 4.45492187 -1.1328125 3.43359375 C-1 1 -1 1 0 0 Z " fill="#FFFFFF" transform="translate(124,44)"/>
<path d="M0 0 C0.33 0.66 0.66 1.32 1 2 C1.66 2 2.32 2 3 2 C3.33 2.99 3.66 3.98 4 5 C4.99 5.66 5.98 6.32 7 7 C6.01 7.33 5.02 7.66 4 8 C7.3 8.33 10.6 8.66 14 9 C14 9.33 14 9.66 14 10 C11.72942623 10.05398987 9.45848712 10.09278742 7.1875 10.125 C5.29064453 10.15980469 5.29064453 10.15980469 3.35546875 10.1953125 C0 10 0 10 -3 8 C-2.45276317 4.62537285 -1.9451 2.91765 0 0 Z " fill="#CA8E2C" transform="translate(17,38)"/>
<path d="M0 0 C2.31 0.33 4.62 0.66 7 1 C6.67 2.65 6.34 4.3 6 6 C4.02 6.66 2.04 7.32 0 8 C0 5.36 0 2.72 0 0 Z " fill="#E8A520" transform="translate(34,38)"/>
<path d="M0 0 C0.66 0 1.32 0 2 0 C2 4.95 2 9.9 2 15 C0.68 14.34 -0.64 13.68 -2 13 C-2.19294408 8.17639811 -1.75747614 4.50353262 0 0 Z " fill="#C08730" transform="translate(56,20)"/>
<path d="M0 0 C3.63 0 7.26 0 11 0 C11 0.66 11 1.32 11 2 C6.8204355 4.78637633 4.85331323 3.79562512 0 3 C0 2.01 0 1.02 0 0 Z " fill="#E3E0EC" transform="translate(32,50)"/>
<path d="M0 0 C0.99 0.33 1.98 0.66 3 1 C2.34 1 1.68 1 1 1 C1 2.98 1 4.96 1 7 C1.66 7.33 2.32 7.66 3 8 C2.34 8 1.68 8 1 8 C0.67 8.99 0.34 9.98 0 11 C0 9.35 0 7.7 0 6 C-1.65 6 -3.3 6 -5 6 C-4.67 5.01 -4.34 4.02 -4 3 C-2.68 3 -1.36 3 0 3 C0 2.01 0 1.02 0 0 Z " fill="#3E2663" transform="translate(47,27)"/>
<path d="M0 0 C2.0625 0.4375 2.0625 0.4375 4 1 C3.01 1 2.02 1 1 1 C1 2.32 1 3.64 1 5 C1.66 5 2.32 5 3 5 C3 5.66 3 6.32 3 7 C1.35 6.67 -0.3 6.34 -2 6 C-1.125 1.125 -1.125 1.125 0 0 Z " fill="#4D315D" transform="translate(22,37)"/>
<path d="M0 0 C1.98 0 3.96 0 6 0 C6 0.66 6 1.32 6 2 C4.02 2 2.04 2 0 2 C0 1.34 0 0.68 0 0 Z " fill="#FFFFFF" transform="translate(142,50)"/>
</svg>
