<?xml version="1.0" encoding="UTF-8"?>
<svg version="1.1" xmlns="http://www.w3.org/2000/svg" width="159" height="160">
<path d="M0 0 C52.47 0 104.94 0 159 0 C159 52.8 159 105.6 159 160 C106.53 160 54.06 160 0 160 C0 107.2 0 54.4 0 0 Z " fill="#77CDE3" transform="translate(0,0)"/>
<path d="M0 0 C0.66 -0.33 1.32 -0.66 2 -1 C2.33 -0.34 2.66 0.32 3 1 C4.32 1 5.64 1 7 1 C7 2.32 7 3.64 7 5 C7.99 5 8.98 5 10 5 C10.22384382 6.72722728 10.42839969 8.45696007 10.625 10.1875 C10.79902344 11.63189453 10.79902344 11.63189453 10.9765625 13.10546875 C11.00194942 16.24075323 10.34359283 18.19486535 9 21 C7.68 21 6.36 21 5 21 C5 21.99 5 22.98 5 24 C3.68 23.67 2.36 23.34 1 23 C0.67 23.99 0.34 24.98 0 26 C-1.98 25.67 -3.96 25.34 -6 25 C-6 24.34 -6 23.68 -6 23 C-7.32 23 -8.64 23 -10 23 C-10.33 22.01 -10.66 21.02 -11 20 C-11.99 19.34 -12.98 18.68 -14 18 C-13.67 17.01 -13.34 16.02 -13 15 C-13.66 15 -14.32 15 -15 15 C-15 12.69 -15 10.38 -15 8 C-14.34 7.67 -13.68 7.34 -13 7 C-13 6.01 -13 5.02 -13 4 C-11.68 4 -10.36 4 -9 4 C-9 3.01 -9 2.02 -9 1 C-5.47873697 -0.66281865 -3.71030749 -1.15147474 0 0 Z " fill="#1F2D32" transform="translate(83,33)"/>
<path d="M0 0 C0.66 -0.33 1.32 -0.66 2 -1 C2.33 -0.34 2.66 0.32 3 1 C4.32 1 5.64 1 7 1 C7 2.32 7 3.64 7 5 C7.99 5 8.98 5 10 5 C10.22384382 6.72722728 10.42839969 8.45696007 10.625 10.1875 C10.79902344 11.63189453 10.79902344 11.63189453 10.9765625 13.10546875 C11.00194942 16.24075323 10.34359283 18.19486535 9 21 C7.68 21 6.36 21 5 21 C5 21.99 5 22.98 5 24 C3.68 23.67 2.36 23.34 1 23 C0.67 23.99 0.34 24.98 0 26 C-1.98 25.67 -3.96 25.34 -6 25 C-6 24.34 -6 23.68 -6 23 C-7.32 23 -8.64 23 -10 23 C-10.33 22.01 -10.66 21.02 -11 20 C-11.99 19.34 -12.98 18.68 -14 18 C-13.67 17.01 -13.34 16.02 -13 15 C-13.66 15 -14.32 15 -15 15 C-15 12.69 -15 10.38 -15 8 C-14.34 7.67 -13.68 7.34 -13 7 C-13 6.01 -13 5.02 -13 4 C-11.68 4 -10.36 4 -9 4 C-9 3.01 -9 2.02 -9 1 C-5.47873697 -0.66281865 -3.71030749 -1.15147474 0 0 Z M-11 9 C-11.61304266 12.67825595 -11.26122201 14.46568226 -9.625 17.8125 C-8.18398646 20.09605332 -8.18398646 20.09605332 -6 21 C-0.48164235 21.53946819 -0.48164235 21.53946819 4.4375 19.5 C6.58524993 16.06360011 7.45019756 13.05981729 7 9 C5.03917788 5.96388834 3.63769122 4.40200871 0.05859375 3.5234375 C-5.2088401 3.14362254 -7.90822198 4.55556909 -11 9 Z " fill="#2F4951" transform="translate(83,33)"/>
<path d="M0 0 C7 1 7 1 8.9375 2.5 C10.58731061 6.38190731 10.89482419 9.86577349 10 14 C8.30756258 16.68827741 6.32625685 18.84682774 4 21 C8.97094431 23.77598189 13.20459798 25.659094 19 26 C19.99 25.67 20.98 25.34 22 25 C21.67 25.99 21.34 26.98 21 28 C13.57488991 28.70048208 8.5490142 26.37081613 2 23 C2 24.65 2 26.3 2 28 C1.34 28 0.68 28 0 28 C0 26.02 0 24.04 0 22 C-0.66 21.67 -1.32 21.34 -2 21 C-1.34 21 -0.68 21 0 21 C0 14.07 0 7.14 0 0 Z " fill="#1F2E33" transform="translate(65,90)"/>
<path d="M0 0 C2.16450226 0.95892162 4.30885632 1.96391276 6.4375 3 C14.90888886 6.95269623 22.81760056 6.56218772 32 6 C32 6.99 32 7.98 32 9 C25.91240851 11.73231216 19.77712807 12.12758382 13.34375 10.20703125 C10.85828887 9.20594274 8.42721309 8.13459043 6 7 C0.42576033 4.45412258 -3.89277523 3.29308055 -10 5 C-12.64089269 6.04691126 -15.22907972 7.14834354 -17.80078125 8.35546875 C-18.52652344 8.56816406 -19.25226562 8.78085938 -20 9 C-20.99 8.34 -21.98 7.68 -23 7 C-22.67 5.35 -22.34 3.7 -22 2 C-20.68 1.67 -19.36 1.34 -18 1 C-17.67 1.99 -17.34 2.98 -17 4 C-15.2984375 3.01 -15.2984375 3.01 -13.5625 2 C-8.86636988 -0.2784017 -5.15660376 -1.0765678 0 0 Z " fill="#5F9FAF" transform="translate(41,125)"/>
<path d="M0 0 C2.89453715 1.09200825 5.31031353 2.43509151 8 4 C8.33 3.01 8.66 2.02 9 1 C11.475 1.495 11.475 1.495 14 2 C14 3.65 14 5.3 14 7 C12.23046875 8.11328125 12.23046875 8.11328125 10 9 C8.17578125 8.35546875 8.17578125 8.35546875 6.3125 7.1875 C1.8708437 4.79898501 -1.91152533 3.50628258 -7 4 C-10.15256394 5.03322741 -13.10064674 6.27192197 -16.10546875 7.67578125 C-20.97963839 9.90566453 -25.17705868 11.28064262 -30.5625 11.25 C-31.47128906 11.25515625 -32.38007812 11.2603125 -33.31640625 11.265625 C-36.1951578 10.98068307 -38.37860182 10.1945612 -41 9 C-41 8.01 -41 7.02 -41 6 C-39.25976562 6.08701172 -39.25976562 6.08701172 -37.484375 6.17578125 C-27.52886416 6.51837548 -19.95866779 5.87927442 -11 1 C-7.51933065 -0.74033467 -3.80538011 -0.46436493 0 0 Z " fill="#60A1B2" transform="translate(129,125)"/>
<path d="M0 0 C3.93701667 2.62467778 4.42721076 5.60834934 5.6875 9.9375 C5.91244141 10.66646484 6.13738281 11.39542969 6.36914062 12.14648438 C7.28634456 15.188033 8 17.80691218 8 21 C9.32 20.67 10.64 20.34 12 20 C11.67 20.66 11.34 21.32 11 22 C10.34 22 9.68 22 9 22 C9.33 23.65 9.66 25.3 10 27 C9.62230469 26.37609375 9.24460938 25.7521875 8.85546875 25.109375 C6.50390998 22.43602397 4.74555477 22.05777759 1.3125 21.25 C0.31863281 21.00765625 -0.67523438 20.7653125 -1.69921875 20.515625 C-2.45847656 20.34546875 -3.21773438 20.1753125 -4 20 C-4.33 22.31 -4.66 24.62 -5 27 C-5.99 26.67 -6.98 26.34 -8 26 C-7.649375 25.05125 -7.29875 24.1025 -6.9375 23.125 C-5.64973223 20.12939828 -5.64973223 20.12939828 -7 18 C-6.34 17.67 -5.68 17.34 -5 17 C-4.22443234 14.33087658 -3.54903747 11.7065765 -2.9375 9 C-1.11536313 1.11536313 -1.11536313 1.11536313 0 0 Z " fill="#1C292D" transform="translate(125,91)"/>
<path d="M0 0 C2.4375 0.5 2.4375 0.5 4.25 1.5625 C6.08900018 4.56297398 5.74421285 7.06481613 5.4375 10.5 C4.4475 11.985 4.4475 11.985 3.4375 13.5 C3.77570153 15.51954441 3.77570153 15.51954441 4.4375 17.5 C4.4375 18.49 4.4375 19.48 4.4375 20.5 C1.40507222 20.42947842 -0.77661119 20.21684431 -3.07421875 18.12109375 C-5.51176476 14.99907923 -6.50932139 12.84270661 -7.125 8.875 C-6.34655181 4.20431084 -4.91944106 0.95989094 0 0 Z " fill="#3C606A" transform="translate(78.5625,59.5)"/>
<path d="M0 0 C2.4375 1.125 2.4375 1.125 4 3 C4.45947423 6.1506804 4.52225401 8.07837528 2.9375 10.875 C-0.09876756 12.63799406 -2.55093401 12.29229373 -6 12 C-9.4375 11 -9.4375 11 -12 10 C-12.33 11.32 -12.66 12.64 -13 14 C-15 12 -15 12 -15.34765625 9.61328125 C-14.79410747 5.45233591 -12.36666001 3.94233973 -9.23046875 1.39453125 C-5.96952759 -0.64427084 -3.73521139 -0.71830988 0 0 Z " fill="#487481" transform="translate(62,40)"/>
<path d="M0 0 C2 2 2 2 2.25 4.9375 C2 8 2 8 0 11 C-2.62356462 11.98515378 -5.24524123 12.42238929 -8 13 C-7.67 14.65 -7.34 16.3 -7 18 C-9.86724686 17.42655063 -10.8614515 17.1385485 -13 15 C-13.89063434 8.43157176 -13.89063434 8.43157176 -11.7265625 4.953125 C-7.92754114 0.46842662 -6.00351208 -1.65096582 0 0 Z " fill="#4E7F8D" transform="translate(69,54)"/>
<path d="M0 0 C2.5 0.5625 2.5 0.5625 4.75 2.6875 C6.61609306 5.75322431 7.17009575 8.01602934 7.5 11.5625 C8.82 11.5625 10.14 11.5625 11.5 11.5625 C10.625 15.4375 10.625 15.4375 9.5 16.5625 C5.59444946 17.03385955 2.93752786 17.35382486 -0.55078125 15.43359375 C-3.64300576 12.98158136 -5.27151342 11.16378047 -6.6875 7.4375 C-6.5 4.5625 -6.5 4.5625 -4.875 2.1875 C-2.5 0.5625 -2.5 0.5625 0 0 Z " fill="#426A75" transform="translate(92.5,56.4375)"/>
<path d="M0 0 C2.375 0.125 2.375 0.125 5 1 C7.42436864 3.84236324 7.96911873 5.71692172 8.375 9.4375 C7.9543352 13.43381558 7.39384127 15.75673118 5 19 C1.5 20.0625 1.5 20.0625 -2 20 C-3.9375 18.9375 -3.9375 18.9375 -5 17 C-5.5625 14.1875 -5.5625 14.1875 -5 11 C-3.5609874 9.23564542 -2.03681064 7.78169805 -0.3125 6.296875 C0.120625 5.86890625 0.55375 5.4409375 1 5 C1 4.34 1 3.68 1 3 C0.34 2.34 -0.32 1.68 -1 1 C-0.67 0.67 -0.34 0.34 0 0 Z " fill="#508290" transform="translate(90,13)"/>
<path d="M0 0 C1.69321939 1.29944744 3.36395804 2.62926214 5 4 C7.88214887 3.11785113 7.88214887 3.11785113 10 2 C10.33 3.65 10.66 5.3 11 7 C8.26395332 9.88004914 6.48519688 11.7384559 2.515625 12.4375 C-3.99728782 12.59165178 -3.99728782 12.59165178 -7.27734375 10.65625 C-9 9 -9 9 -9.4375 6 C-9 3 -9 3 -7.875 1.125 C-5.06181421 -0.56291147 -3.22507435 -0.45151041 0 0 Z " fill="#46717D" transform="translate(104,46)"/>
<path d="M0 0 C3.77312005 -0.35098791 5.53511035 -0.30640454 8.75 1.8125 C12.80700481 5.75681024 12.80700481 5.75681024 13.30078125 8.9375 C13.33157025 14.35636364 13.33157025 14.35636364 11.9375 17.0625 C8.7970884 18.582054 6.29352683 17.79288609 3 17 C1.61773984 14.23547967 1.90474613 11.9538637 1.9375 8.875 C1.94652344 7.77929688 1.95554687 6.68359375 1.96484375 5.5546875 C1.97644531 4.71164063 1.98804687 3.86859375 2 3 C0.68 3.33 -0.64 3.66 -2 4 C-1.34 2.68 -0.68 1.36 0 0 Z " fill="#487480" transform="translate(69,13)"/>
<path d="M0 0 C2 1.0625 2 1.0625 4 3 C4.573156 6.375252 4.75649475 8.7466194 2.94140625 11.75390625 C1.16388539 13.94284144 -0.45892014 15.72946007 -3 17 C-9.25748503 17.45508982 -9.25748503 17.45508982 -11.9375 15.8125 C-13.38718434 13.33950907 -13.42317323 11.82115488 -13 9 C-11.35703667 6.84589252 -10.40391002 6.09138551 -7.73828125 5.48828125 C-6.93777344 5.43027344 -6.13726562 5.37226563 -5.3125 5.3125 C-4.50425781 5.24675781 -3.69601563 5.18101563 -2.86328125 5.11328125 C-1.94095703 5.05720703 -1.94095703 5.05720703 -1 5 C-0.67 3.35 -0.34 1.7 0 0 Z " fill="#46717E" transform="translate(107,26)"/>
<path d="M0 0 C4.05565847 0.0798358 5.40755915 0.25087277 8.875 2.5625 C10.97279173 5.89003171 11.28815303 7.57615912 10.6875 11.4375 C8.6875 13.4375 8.6875 13.4375 5.375 14 C1.6875 13.4375 1.6875 13.4375 0.1171875 11.87109375 C-1.13261057 10.1035222 -2.26441195 8.33082035 -3.3125 6.4375 C-4.9625 6.7675 -6.6125 7.0975 -8.3125 7.4375 C-7.380969 1.53780366 -5.99987843 0.13802156 0 0 Z " fill="#538796" transform="translate(59.3125,24.5625)"/>
<path d="M0 0 C2 2 2 2 2.125 4.625 C2.08375 5.40875 2.0425 6.1925 2 7 C0.35 7.33 -1.3 7.66 -3 8 C-3.33 7.01 -3.66 6.02 -4 5 C-4.66 5 -5.32 5 -6 5 C-3.9859524 8.0210714 -2.36720387 9.60667426 1 11 C-0.32 11 -1.64 11 -3 11 C-3 11.66 -3 12.32 -3 13 C-6.375 12.6875 -6.375 12.6875 -10 12 C-12.16551116 8.75173326 -12.55156953 7.76905843 -12 4 C-8.8026818 -0.92919889 -5.39055643 -0.52166675 0 0 Z " fill="#7BD4E9" transform="translate(36,91)"/>
<path d="M0 0 C1.5 1.3125 1.5 1.3125 3 3 C3 3.99 3 4.98 3 6 C2.01 6.33 1.02 6.66 0 7 C-0.33 7.99 -0.66 8.98 -1 10 C-1.66 10 -2.32 10 -3 10 C-2.814375 10.78375 -2.62875 11.5675 -2.4375 12.375 C-2 15 -2 15 -3 17 C-2.34 17 -1.68 17 -1 17 C-1 17.99 -1 18.98 -1 20 C-0.34 20.33 0.32 20.66 1 21 C1 22.65 1 24.3 1 26 C0.319375 25.484375 -0.36125 24.96875 -1.0625 24.4375 C-4.80118832 22.60792912 -7.00443413 23.13821128 -11 24 C-11.33 23.34 -11.66 22.68 -12 22 C-11.01 21.46375 -10.02 20.9275 -9 20.375 C-5.72953462 18.29752954 -5.72953462 18.29752954 -5.3125 14.9375 C-5.68791634 11.81500618 -5.68791634 11.81500618 -8.375 10.4375 C-9.24125 9.963125 -10.1075 9.48875 -11 9 C-12.3125 6.3125 -12.3125 6.3125 -13 4 C-11.515 4.99 -11.515 4.99 -10 6 C-6.45812169 6.33338596 -6.45812169 6.33338596 -3 6 C-0.8614515 3.8614515 -0.57344937 2.86724686 0 0 Z " fill="#7CD5E8" transform="translate(71,31)"/>
<path d="M0 0 C0.66 0 1.32 0 2 0 C2 1.32 2 2.64 2 4 C2.99 4 3.98 4 5 4 C5.22384382 5.72722728 5.42839969 7.45696007 5.625 9.1875 C5.79902344 10.63189453 5.79902344 10.63189453 5.9765625 12.10546875 C6.00194942 15.24075323 5.34359283 17.19486535 4 20 C2.68 20 1.36 20 0 20 C0 20.99 0 21.98 0 23 C-1.32 22.67 -2.64 22.34 -4 22 C-4.33 22.99 -4.66 23.98 -5 25 C-6.98 24.67 -8.96 24.34 -11 24 C-11 23.34 -11 22.68 -11 22 C-11.99 21.67 -12.98 21.34 -14 21 C-13.24074219 20.89042969 -12.48148437 20.78085937 -11.69921875 20.66796875 C-10.70535156 20.50941406 -9.71148437 20.35085937 -8.6875 20.1875 C-7.70136719 20.03667969 -6.71523437 19.88585937 -5.69921875 19.73046875 C-2.80844579 18.94816116 -1.71982822 18.41675208 0 16 C0.80868596 13.25915161 0.86201887 10.89760364 1 8 C0.34 7.34 -0.32 6.68 -1 6 C-1 5.01 -1 4.02 -1 3 C-0.34 3 0.32 3 1 3 C0.67 2.01 0.34 1.02 0 0 Z " fill="#314C53" transform="translate(88,34)"/>
<path d="M0 0 C2.475 0.495 2.475 0.495 5 1 C6.84457074 4.68914149 6.4871454 8.97293139 6 13 C4.125 15.625 4.125 15.625 2 17 C1.34 17 0.68 17 0 17 C0 11.39 0 5.78 0 0 Z " fill="#7CD5EA" transform="translate(67,92)"/>
<path d="M0 0 C-0.33 0.99 -0.66 1.98 -1 3 C-0.34 3 0.32 3 1 3 C1 4.65 1 6.3 1 8 C0.01 8 -0.98 8 -2 8 C-2 8.66 -2 9.32 -2 10 C-3.32 10.33 -4.64 10.66 -6 11 C-6.66 10.01 -7.32 9.02 -8 8 C-8.66 8 -9.32 8 -10 8 C-10 6.02 -10 4.04 -10 2 C-9.34 2 -8.68 2 -8 2 C-8 1.34 -8 0.68 -8 0 C-4.71023192 -1.09658936 -3.28696233 -0.79953138 0 0 Z " fill="#528897" transform="translate(85,126)"/>
<path d="M0 0 C2.9555377 2.75170751 5.11563315 5.41970299 7 9 C7 9.66 7 10.32 7 11 C7.66 11 8.32 11 9 11 C9.37125 9.6696875 9.37125 9.6696875 9.75 8.3125 C11.03934768 4.89572865 12.59980129 2.7202252 15 0 C14.59807494 3.31588177 13.96515553 5.04900004 12 7.8125 C8.41221814 13.6101475 9.15854508 21.39659747 9 28 C8.34 28 7.68 28 7 28 C7.00902344 27.04480469 7.01804687 26.08960937 7.02734375 25.10546875 C6.82848712 16.43359065 5.80138976 11.21764773 0.3984375 4.07421875 C-0.06304687 3.38972656 -0.52453125 2.70523438 -1 2 C-0.67 1.34 -0.34 0.68 0 0 Z " fill="#223339" transform="translate(101,90)"/>
<path d="M0 0 C3.57909747 0.87857121 4.98058413 2.44045084 6.94140625 5.4765625 C7.39160381 9.53637979 6.52665618 12.54016261 4.37890625 15.9765625 C0.91276442 18.10957285 -2.09118183 18.30751941 -6.05859375 17.4765625 C-9.40285004 14.90405766 -10.87559227 12.84907357 -11.43359375 8.6640625 C-11.05859375 5.4765625 -11.05859375 5.4765625 -9.05859375 2.6015625 C-5.7191632 0.23613253 -3.99988821 -0.28841699 0 0 Z M-9.05859375 5.4765625 C-9.48319956 8.93406695 -9.7595906 11.30823442 -7.93359375 14.3515625 C-5.20791707 15.98696851 -3.24269352 16.4128805 -0.05859375 16.4765625 C2.93157055 15.06778154 2.93157055 15.06778154 4.94140625 12.4765625 C5.77490576 9.51996377 5.77490576 9.51996377 4.94140625 6.4765625 C2.6240302 3.43086827 1.16314712 1.74474952 -2.62109375 0.9140625 C-5.95444273 1.68329688 -7.11061809 2.66281987 -9.05859375 5.4765625 Z " fill="#7DD4E0" transform="translate(83.05859375,36.5234375)"/>
<path d="M0 0 C2 2 2 2 2.25 4.9375 C2 8 2 8 0 11 C-2.62356462 11.98515378 -5.24524123 12.42238929 -8 13 C-7.67 14.65 -7.34 16.3 -7 18 C-9.86724686 17.42655063 -10.8614515 17.1385485 -13 15 C-13.89063434 8.43157176 -13.89063434 8.43157176 -11.7265625 4.953125 C-7.92754114 0.46842662 -6.00351208 -1.65096582 0 0 Z M-10 5 C-11.14352916 7.28705831 -11.10334439 8.59264762 -11.0625 11.125 C-11.041875 12.40375 -11.02125 13.6825 -11 15 C-10.113125 14.38125 -9.22625 13.7625 -8.3125 13.125 C-5 11 -5 11 -2.1875 10.0625 C0.24602256 9.18813038 0.24602256 9.18813038 0.9375 6.5625 C1.25162602 3.75471394 1.25162602 3.75471394 -1 1 C-5.49346179 0.17225704 -7.19130267 1.58943896 -10 5 Z " fill="#324C54" transform="translate(69,54)"/>
<path d="M0 0 C2 1.0625 2 1.0625 4 3 C4.573156 6.375252 4.75649475 8.7466194 2.94140625 11.75390625 C1.16388539 13.94284144 -0.45892014 15.72946007 -3 17 C-9.25748503 17.45508982 -9.25748503 17.45508982 -11.9375 15.8125 C-13.38718434 13.33950907 -13.42317323 11.82115488 -13 9 C-11.24774282 6.57965814 -10.27174503 6.05151751 -7.30078125 5.48828125 C-5.82158203 5.40126953 -5.82158203 5.40126953 -4.3125 5.3125 C-2.82169922 5.21388672 -2.82169922 5.21388672 -1.30078125 5.11328125 C-0.54152344 5.07589844 0.21773437 5.03851562 1 5 C0.67 5.66 0.34 6.32 0 7 C-2.32156597 7.40729228 -4.6568787 7.74438677 -7 8 C-6.67 8.99 -6.34 9.98 -6 11 C-7.65 11.33 -9.3 11.66 -11 12 C-10.01 13.485 -10.01 13.485 -9 15 C-4.35690434 14.6308418 -4.35690434 14.6308418 -0.125 12.875 C1.62149255 9.96417908 1.82332188 7.3568842 2 4 C1.19420215 1.6284995 1.19420215 1.6284995 0 0 Z " fill="#2A3E44" transform="translate(107,26)"/>
<path d="M0 0 C3.77312005 -0.35098791 5.53511035 -0.30640454 8.75 1.8125 C12.80700481 5.75681024 12.80700481 5.75681024 13.30078125 8.9375 C13.33157025 14.35636364 13.33157025 14.35636364 11.9375 17.0625 C8.7970884 18.582054 6.29352683 17.79288609 3 17 C1.61773984 14.23547967 1.90474613 11.9538637 1.9375 8.875 C1.94652344 7.77929688 1.95554687 6.68359375 1.96484375 5.5546875 C1.97644531 4.71164063 1.98804687 3.86859375 2 3 C2.66 3 3.32 3 4 3 C4.28875 3.61875 4.5775 4.2375 4.875 4.875 C5.93720042 7.13325765 5.93720042 7.13325765 8 9 C6.35 9.33 4.7 9.66 3 10 C3.33 11.98 3.66 13.96 4 16 C6.31 16 8.62 16 11 16 C11.29025698 11.06563126 11.29261483 7.84138396 8 4 C5.13245966 2.43285805 5.13245966 2.43285805 2 2 C-0.33725801 2.74875954 -0.33725801 2.74875954 -2 4 C-1.34 2.68 -0.68 1.36 0 0 Z " fill="#2D444B" transform="translate(69,13)"/>
<path d="M0 0 C2.24808254 3.37212381 3.05160443 6.2874961 4.125 10.1875 C4.30675781 10.84169922 4.48851562 11.49589844 4.67578125 12.16992188 C5.12199044 13.77862343 5.56164215 15.38914131 6 17 C3.03 16.01 0.06 15.02 -3 14 C-2.68872484 12.41642541 -2.37592711 10.83315007 -2.0625 9.25 C-1.80146484 7.92742187 -1.80146484 7.92742187 -1.53515625 6.578125 C-1.07631512 4.36764947 -0.56663926 2.18487932 0 0 Z " fill="#7BD3E8" transform="translate(126,95)"/>
<path d="M0 0 C0.8971875 0.309375 0.8971875 0.309375 1.8125 0.625 C2.5625 2.375 2.5625 2.375 2.8125 4.625 C0.76023334 7.38766666 -0.60281259 8.4655398 -3.9375 9.375 C-5.05125 9.49875 -5.05125 9.49875 -6.1875 9.625 C-6.1875 8.965 -6.1875 8.305 -6.1875 7.625 C-6.8475 6.965 -7.5075 6.305 -8.1875 5.625 C-7.8575 4.965 -7.5275 4.305 -7.1875 3.625 C-6.5275 3.625 -5.8675 3.625 -5.1875 3.625 C-5.1875 2.965 -5.1875 2.305 -5.1875 1.625 C-2.1875 -0.375 -2.1875 -0.375 0 0 Z " fill="#518492" transform="translate(62.1875,42.375)"/>
<path d="M0 0 C2.375 0.125 2.375 0.125 5 1 C7.48180481 3.90970219 7.97709463 5.73887876 8.3125 9.5625 C8.02962563 12.6741181 7.65799999 14.40937502 6 17 C4.53492354 14.06984708 4.9786411 11.32231769 5.0625 8.09375 C5.14500866 5.93974478 5.14500866 5.93974478 4 4 C3.6596875 4.86625 3.6596875 4.86625 3.3125 5.75 C2 8 2 8 -0.625 9.875 C-3.35469673 11.83413698 -3.35469673 11.83413698 -3.3125 15.25 C-3.209375 16.1575 -3.10625 17.065 -3 18 C-3.66 17.67 -4.32 17.34 -5 17 C-5.375 14.375 -5.375 14.375 -5 11 C-3.57064427 9.21957444 -2.0411973 7.78547545 -0.3125 6.296875 C0.120625 5.86890625 0.55375 5.4409375 1 5 C1 4.34 1 3.68 1 3 C0.34 2.34 -0.32 1.68 -1 1 C-0.67 0.67 -0.34 0.34 0 0 Z " fill="#2C434A" transform="translate(90,13)"/>
<path d="M0 0 C2.11434065 3.17151097 3.01955937 5.86432861 4.125 9.5 C4.47820312 10.6446875 4.83140625 11.789375 5.1953125 12.96875 C6 16 6 16 6 19 C7.32 18.67 8.64 18.34 10 18 C9.67 18.66 9.34 19.32 9 20 C8.34 20 7.68 20 7 20 C7.33 21.65 7.66 23.3 8 25 C7.61199219 24.37609375 7.22398437 23.7521875 6.82421875 23.109375 C4.60764835 20.54631715 3.05887601 20.09321455 -0.1875 19.25 C-1.08855469 19.00765625 -1.98960938 18.7653125 -2.91796875 18.515625 C-3.60503906 18.34546875 -4.29210937 18.1753125 -5 18 C-4.67 16.68 -4.34 15.36 -4 14 C-3.67 14.66 -3.34 15.32 -3 16 C-0.6859378 16.73075648 1.64828869 17.40138258 4 18 C3.566875 16.67935547 3.566875 16.67935547 3.125 15.33203125 C2.75375 14.17058594 2.3825 13.00914063 2 11.8125 C1.62875 10.66394531 1.2575 9.51539062 0.875 8.33203125 C0.09369447 5.35679188 -0.18363306 3.04716104 0 0 Z " fill="#324F57" transform="translate(127,93)"/>
<path d="M0 0 C0 2.14583333 0 4.29166667 0 6.4375 C0.59717755 9.99167142 0.59717755 9.99167142 2.77734375 11.2734375 C4.19321051 11.95448733 5.6316172 12.59090273 7.08984375 13.17578125 C9 14 9 14 11 16 C11.46879799 19.59411792 11.44361448 21.35164037 9.375 24.375 C6.3962104 26.4131192 4.53677664 26.32152515 1 26 C1 25.67 1 25.34 1 25 C3.31 24.34 5.62 23.68 8 23 C8.7555432 20.2587435 8.7555432 20.2587435 8 17 C5.22551166 14.60535232 2.16180257 12.83492134 -1 11 C-2.89488952 9.10511048 -2.18019112 6.42860854 -2.23046875 3.91015625 C-2 2 -2 2 0 0 Z " fill="#1A272B" transform="translate(25,92)"/>
<path d="M0 0 C0.66 0.66 1.32 1.32 2 2 C1.505 2.391875 1.01 2.78375 0.5 3.1875 C-1.20243525 4.92909927 -1.20243525 4.92909927 -1.375 7.4375 C-0.93956032 10.41300448 0.02461472 11.77769156 2 14 C0.02 13.34 -1.96 12.68 -4 12 C-3.67 10.68 -3.34 9.36 -3 8 C-3.99 8 -4.98 8 -6 8 C-6 6.68 -6 5.36 -6 4 C-7.32 4.33 -8.64 4.66 -10 5 C-10 4.01 -10 3.02 -10 2 C-8.3603125 2.061875 -8.3603125 2.061875 -6.6875 2.125 C-2.91107771 2.32074666 -2.91107771 2.32074666 0 0 Z " fill="#81DEF1" transform="translate(96,30)"/>
<path d="M0 0 C0.598125 0.20625 1.19625 0.4125 1.8125 0.625 C2.9375 5.375 2.9375 5.375 1.8125 7.625 C-0.18704746 7.66754356 -2.18791636 7.66580783 -4.1875 7.625 C-5.1875 6.625 -5.1875 6.625 -5.4375 4.1875 C-5.355 3.341875 -5.2725 2.49625 -5.1875 1.625 C-2.1875 -0.375 -2.1875 -0.375 0 0 Z " fill="#7BD4E6" transform="translate(82.1875,41.375)"/>
<path d="M0 0 C3.9640332 1.9820166 6.58212522 6.37318783 9 10 C11.58380177 10.25030977 11.58380177 10.25030977 14 10 C14.80967438 7.08517222 15.21845993 5.53886783 14.0625 2.6875 C13.711875 2.130625 13.36125 1.57375 13 1 C16 2 16 2 17 4 C17.1875 7 17.1875 7 17 10 C15 12 15 12 11.6875 12.5625 C8 12 8 12 6.4296875 10.43359375 C5.17988943 8.6660222 4.04808805 6.89332035 3 5 C1.35 5.33 -0.3 5.66 -2 6 C-1.125 1.125 -1.125 1.125 0 0 Z " fill="#293B41" transform="translate(53,26)"/>
<path d="M0 0 C2.25 -0.3125 2.25 -0.3125 5 0 C8.55388833 3.35645009 9.55229771 6.18720039 10 11 C11.32 11 12.64 11 14 11 C13.125 14.875 13.125 14.875 12 16 C10.33382885 16.04063832 8.66611905 16.042721 7 16 C7.99 15.67 8.98 15.34 10 15 C9.319375 13.9790625 9.319375 13.9790625 8.625 12.9375 C6.83163514 9.69564814 5.91246131 6.5796559 5 3 C2.03 2.505 2.03 2.505 -1 2 C-0.67 1.34 -0.34 0.68 0 0 Z " fill="#324D55" transform="translate(90,57)"/>
<path d="M0 0 C2.27141109 0.11402064 4.54214552 0.24158505 6.8125 0.375 C8.07707031 0.44460937 9.34164062 0.51421875 10.64453125 0.5859375 C14 1 14 1 17 3 C15.10768055 3.39234694 13.21089343 3.76318316 11.3125 4.125 C10.25675781 4.33382812 9.20101562 4.54265625 8.11328125 4.7578125 C4.75602341 5.01897936 2.9770956 4.49130948 0 3 C0 2.01 0 1.02 0 0 Z " fill="#67AFC2" transform="translate(88,131)"/>
<path d="M0 0 C1.65 0.33 3.3 0.66 5 1 C5.6875 3.3125 5.6875 3.3125 6 6 C4.38010972 8.51982932 3.22117209 8.94342109 0.3125 9.6875 C-0.8321875 9.8421875 -0.8321875 9.8421875 -2 10 C-1.67 8.68 -1.34 7.36 -1 6 C-1.66 6 -2.32 6 -3 6 C-2.67 5.01 -2.34 4.02 -2 3 C-1.34 3 -0.68 3 0 3 C0 3.99 0 4.98 0 6 C0.66 6 1.32 6 2 6 C2 4.35 2 2.7 2 1 C1.34 0.67 0.68 0.34 0 0 Z " fill="#4E7F8D" transform="translate(64,55)"/>
<path d="M0 0 C0.33 0.66 0.66 1.32 1 2 C1.66 2 2.32 2 3 2 C3.66 3.65 4.32 5.3 5 7 C2.3125 7.8125 2.3125 7.8125 -1 8 C-3.875 5.5625 -3.875 5.5625 -6 3 C-4 2 -2 1 0 0 Z " fill="#436B77" transform="translate(95,65)"/>
<path d="M0 0 C3.91985956 -0.3646381 5.49718219 -0.38588343 8.6875 2.0625 C9.450625 2.701875 10.21375 3.34125 11 4 C13.88214887 3.11785113 13.88214887 3.11785113 16 2 C16.75 4.25 16.75 4.25 17 7 C15.0625 9.3125 15.0625 9.3125 13 11 C12.01 10.67 11.02 10.34 10 10 C10.99 9.01 11.98 8.02 13 7 C12.2575 6.731875 11.515 6.46375 10.75 6.1875 C8 5 8 5 6 3.375 C3.51246105 1.66481697 1.95602718 1.7536644 -1 2 C-0.67 1.34 -0.34 0.68 0 0 Z " fill="#2F474E" transform="translate(98,46)"/>
<path d="M0 0 C3.3 0 6.6 0 10 0 C10.33 0.99 10.66 1.98 11 3 C9.88625 3.12375 8.7725 3.2475 7.625 3.375 C3.96896323 3.6465813 3.96896323 3.6465813 2 6 C1.30251417 7.31747324 0.63040043 8.64914193 0 10 C-1.125 2.25 -1.125 2.25 0 0 Z " fill="#75C9DC" transform="translate(94,43)"/>
<path d="M0 0 C1.76949095 -0.10815225 3.54087487 -0.18566083 5.3125 -0.25 C6.29863281 -0.29640625 7.28476562 -0.3428125 8.30078125 -0.390625 C11 0 11 0 12.91796875 1.828125 C14 4 14 4 13 7 C12.38125 6.67 11.7625 6.34 11.125 6 C9.08981656 4.85806765 9.08981656 4.85806765 7 5 C6.67 4.34 6.34 3.68 6 3 C5.01 3.495 5.01 3.495 4 4 C4 3.34 4 2.68 4 2 C2.68 1.67 1.36 1.34 0 1 C0 0.67 0 0.34 0 0 Z " fill="#406671" transform="translate(54,25)"/>
<path d="M0 0 C0.66 0.33 1.32 0.66 2 1 C1.67 1.99 1.34 2.98 1 4 C0.01 3.67 -0.98 3.34 -2 3 C-2 3.66 -2 4.32 -2 5 C-0.35 5.33 1.3 5.66 3 6 C3 6.66 3 7.32 3 8 C0.6875 8.6875 0.6875 8.6875 -2 9 C-3.8125 7.8125 -3.8125 7.8125 -5 6 C-5 4.68 -5 3.36 -5 2 C-2.625 0.9375 -2.625 0.9375 0 0 Z " fill="#4F8390" transform="translate(77,21)"/>
<path d="M0 0 C0.66 0 1.32 0 2 0 C2.433125 0.94875 2.86625 1.8975 3.3125 2.875 C4.79302201 6.20041937 4.79302201 6.20041937 8 8 C7.67 8.99 7.34 9.98 7 11 C6.46375 10.525625 5.9275 10.05125 5.375 9.5625 C2.57157164 7.71813924 0.30379742 7.37543153 -3 7 C-3 6.01 -3 5.02 -3 4 C-2.01 4 -1.02 4 0 4 C0 2.68 0 1.36 0 0 Z " fill="#81DEF2" transform="translate(92,50)"/>
<path d="M0 0 C2 2 2 2 3 5 C5.64 5 8.28 5 11 5 C10.67 6.32 10.34 7.64 10 9 C4.58614052 10.32338787 4.58614052 10.32338787 2.1875 9 C0.47385538 6.1138617 0.31163769 3.30335954 0 0 Z " fill="#283C42" transform="translate(75,43)"/>
<path d="M0 0 C6.22222222 -0.35897436 6.22222222 -0.35897436 9.4375 1.125 C11 3 11 3 11.4375 6 C11 9 11 9 9.75 10.9375 C8 12 8 12 5.8125 11.6875 C5.214375 11.460625 4.61625 11.23375 4 11 C4.639375 10.7525 5.27875 10.505 5.9375 10.25 C8.15640538 9.18591701 8.15640538 9.18591701 8.8125 7 C9.18451089 4.92839876 9.18451089 4.92839876 8 3 C6.10466658 2.53476937 6.10466658 2.53476937 3.9375 2.375 C2.638125 2.25125 1.33875 2.1275 0 2 C0 1.34 0 0.68 0 0 Z " fill="#345159" transform="translate(55,40)"/>
<path d="M0 0 C-1.96822886 1.96822886 -5.34808709 1.66248381 -8 2 C-7.67 2.99 -7.34 3.98 -7 5 C-8.175625 5.4640625 -8.175625 5.4640625 -9.375 5.9375 C-11.92330128 6.92875038 -11.92330128 6.92875038 -14 8 C-14.36616652 3.4839462 -14.36616652 3.4839462 -12.7734375 1.37890625 C-10.593095 -0.31638208 -9.17052005 -0.51586978 -6.4375 -0.75 C-5.65246094 -0.82734375 -4.86742188 -0.9046875 -4.05859375 -0.984375 C-2 -1 -2 -1 0 0 Z " fill="#395862" transform="translate(108,32)"/>
<path d="M0 0 C1.32 0 2.64 0 4 0 C4.29296875 6.0546875 4.29296875 6.0546875 4 8 C0.77208445 10.1519437 -0.28400809 10.20086443 -4 10 C-4.33 9.34 -4.66 8.68 -5 8 C-0.25 5 -0.25 5 2 5 C2 4.01 2 3.02 2 2 C1.34 2 0.68 2 0 2 C0 1.34 0 0.68 0 0 Z " fill="#416973" transform="translate(92,23)"/>
<path d="M0 0 C0 0.99 0 1.98 0 3 C-0.66 3.66 -1.32 4.32 -2 5 C-2.24253813 7.21072977 -2.24253813 7.21072977 -2.125 9.625 C-2.10695313 10.44226562 -2.08890625 11.25953125 -2.0703125 12.1015625 C-2.04710938 12.72804688 -2.02390625 13.35453125 -2 14 C-0.68 14.66 0.64 15.32 2 16 C1.34 16.33 0.68 16.66 0 17 C-4.82222222 12.33333333 -4.82222222 12.33333333 -5.375 8.1875 C-4.88157547 3.99339153 -3.14580144 2.67393123 0 0 Z " fill="#73BECB" transform="translate(77,37)"/>
<path d="M0 0 C0.66 0 1.32 0 2 0 C1.44854729 5.23880078 0.57077907 9.97350697 -1 15 C-1.99 14.67 -2.98 14.34 -4 14 C-3.649375 13.05125 -3.29875 12.1025 -2.9375 11.125 C-1.64973223 8.12939828 -1.64973223 8.12939828 -3 6 C-2.34 5.67 -1.68 5.34 -1 5 C-0.34444881 2.47266765 -0.34444881 2.47266765 0 0 Z " fill="#12191C" transform="translate(121,103)"/>
<path d="M0 0 C0.33 0.99 0.66 1.98 1 3 C2.32 3 3.64 3 5 3 C5.33 3.99 5.66 4.98 6 6 C5.030625 6.268125 4.06125 6.53625 3.0625 6.8125 C2.051875 7.204375 1.04125 7.59625 0 8 C-0.33 8.99 -0.66 9.98 -1 11 C-2.31625194 8.36749612 -1.74813658 7.19820944 -1.0625 4.375 C-0.86785156 3.55773438 -0.67320313 2.74046875 -0.47265625 1.8984375 C-0.23869141 0.95871094 -0.23869141 0.95871094 0 0 Z " fill="#72C4D8" transform="translate(72,53)"/>
<path d="M0 0 C0 3 0 3 -1 5 C0.11375 4.6596875 0.11375 4.6596875 1.25 4.3125 C4 4 4 4 6.3125 5.4375 C7.1478125 6.2109375 7.1478125 6.2109375 8 7 C5.36 6.67 2.72 6.34 0 6 C-0.33 7.32 -0.66 8.64 -1 10 C-3 8 -3 8 -3.3125 5.5625 C-2.95209822 2.60720543 -2.28773145 1.81112073 0 0 Z " fill="#304B52" transform="translate(50,44)"/>
<path d="M0 0 C0.639375 0.165 1.27875 0.33 1.9375 0.5 C4.04582216 1.24598544 4.04582216 1.24598544 6 0 C6.33 0.66 6.66 1.32 7 2 C7.99 2.33 8.98 2.66 10 3 C10 3.66 10 4.32 10 5 C9.34 5 8.68 5 8 5 C7.67 5.66 7.34 6.32 7 7 C3.5625 5.6875 3.5625 5.6875 0 4 C-0.33 3.01 -0.66 2.02 -1 1 C-0.67 0.67 -0.34 0.34 0 0 Z " fill="#273A40" transform="translate(79,32)"/>
<path d="M0 0 C0.99 0.33 1.98 0.66 3 1 C3 2.98 3 4.96 3 7 C2.01 7.33 1.02 7.66 0 8 C-0.33 8.99 -0.66 9.98 -1 11 C-1.99 11 -2.98 11 -4 11 C-3.39816251 8.97954558 -2.72693904 6.97888961 -2 5 C-1.34 4.67 -0.68 4.34 0 4 C0 2.68 0 1.36 0 0 Z " fill="#2C4249" transform="translate(91,42)"/>
<path d="M0 0 C2.97 0 5.94 0 9 0 C9 0.66 9 1.32 9 2 C9.66 2.33 10.32 2.66 11 3 C9.54263913 3.19491452 8.08405407 3.38069358 6.625 3.5625 C5.81289063 3.66691406 5.00078125 3.77132812 4.1640625 3.87890625 C2 4 2 4 0 3 C0 2.01 0 1.02 0 0 Z " fill="#64A8BB" transform="translate(32,125)"/>
<path d="M0 0 C0.66 0.33 1.32 0.66 2 1 C1.67 1.33 1.34 1.66 1 2 C2.98 2.66 4.96 3.32 7 4 C6.67 5.32 6.34 6.64 6 8 C5.484375 7.484375 4.96875 6.96875 4.4375 6.4375 C1.0289729 4.42734299 -1.23106857 5.20272604 -5 6 C-5.33 5.34 -5.66 4.68 -6 4 C-4.02 2.68 -2.04 1.36 0 0 Z " fill="#82E0F3" transform="translate(65,49)"/>
<path d="M0 0 C0.66 0.33 1.32 0.66 2 1 C1.67 2.98 1.34 4.96 1 7 C-0.32 7.33 -1.64 7.66 -3 8 C-3 7.34 -3 6.68 -3 6 C-4.65 6.33 -6.3 6.66 -8 7 C-8.33 6.01 -8.66 5.02 -9 4 C-6.36 3.67 -3.72 3.34 -1 3 C-0.67 2.01 -0.34 1.02 0 0 Z " fill="#518492" transform="translate(108,29)"/>
<path d="M0 0 C1.32 0 2.64 0 4 0 C3.814375 0.763125 3.62875 1.52625 3.4375 2.3125 C2.77180827 5.08967375 2.77180827 5.08967375 4 8 C2.35 7.67 0.7 7.34 -1 7 C-1.04254356 5.00045254 -1.04080783 2.99958364 -1 1 C-0.67 0.67 -0.34 0.34 0 0 Z " fill="#BFE7F0" transform="translate(30,141)"/>
<path d="M0 0 C0 1.32 0 2.64 0 4 C-0.66 4 -1.32 4 -2 4 C-2 4.99 -2 5.98 -2 7 C-2.99 6.67 -3.98 6.34 -5 6 C-5.33 4.35 -5.66 2.7 -6 1 C-3 0 -3 0 0 0 Z " fill="#477480" transform="translate(102,49)"/>
<path d="M0 0 C0.66 1.32 1.32 2.64 2 4 C0.35 5.32 -1.3 6.64 -3 8 C-3.99 7.01 -4.98 6.02 -6 5 C-5.34 4.01 -4.68 3.02 -4 2 C-2.68 2.33 -1.36 2.66 0 3 C0 2.01 0 1.02 0 0 Z " fill="#75C8DC" transform="translate(88,54)"/>
<path d="M0 0 C2.97 0.495 2.97 0.495 6 1 C5.67 2.32 5.34 3.64 5 5 C3.68 5.33 2.36 5.66 1 6 C0.67 4.02 0.34 2.04 0 0 Z " fill="#4A7884" transform="translate(86,25)"/>
<path d="M0 0 C0.99 0.33 1.98 0.66 3 1 C3 2.98 3 4.96 3 7 C1.68 7 0.36 7 -1 7 C-1 4.37886292 -0.68707555 2.49064888 0 0 Z " fill="#BEE7F0" transform="translate(151,141)"/>
<path d="M0 0 C2.475 0.99 2.475 0.99 5 2 C5 2.99 5 3.98 5 5 C4 6 4 6 1.4375 6.0625 C0.2309375 6.0315625 0.2309375 6.0315625 -1 6 C-0.67 4.02 -0.34 2.04 0 0 Z " fill="#497683" transform="translate(63,31)"/>
<path d="M0 0 C1.91015625 0.23046875 1.91015625 0.23046875 3.91015625 2.23046875 C0.8969143 3.73708972 -1.77270752 3.40817248 -5.08984375 3.23046875 C-5.74984375 2.57046875 -6.40984375 1.91046875 -7.08984375 1.23046875 C-5.19495423 -0.66442077 -2.51845229 0.05027763 0 0 Z " fill="#67AFC2" transform="translate(64.08984375,131.76953125)"/>
<path d="M0 0 C1.67542976 0.28604898 3.34385343 0.61781233 5 1 C4.01 2.98 3.02 4.96 2 7 C1.01 7 0.02 7 -1 7 C-1.04254356 5.00045254 -1.04080783 2.99958364 -1 1 C-0.67 0.67 -0.34 0.34 0 0 Z " fill="#497784" transform="translate(80,125)"/>
<path d="M0 0 C0.99 0 1.98 0 3 0 C2.67 0.99 2.34 1.98 2 3 C2.66 3.33 3.32 3.66 4 4 C3.67 5.32 3.34 6.64 3 8 C1.68 7.67 0.36 7.34 -1 7 C-0.67 6.34 -0.34 5.68 0 5 C-0.32380126 3.66431979 -0.65657551 2.33076989 -1 1 C-0.67 0.67 -0.34 0.34 0 0 Z " fill="#CCEBF2" transform="translate(54,141)"/>
<path d="M0 0 C3.02227062 1.00742354 3.88609233 1.79000562 6 4 C6.33 4 6.66 4 7 4 C7 5.65 7 7.3 7 9 C6.278125 8.195625 5.55625 7.39125 4.8125 6.5625 C1.97484311 3.97707928 0.72833853 3.31957187 -3 3 C-2.01 2.01 -1.02 1.02 0 0 Z " fill="#84E5F9" transform="translate(79,57)"/>
<path d="M0 0 C0.66 0.33 1.32 0.66 2 1 C2 1.66 2 2.32 2 3 C2.66 3 3.32 3 4 3 C4 3.99 4 4.98 4 6 C4.66 6.66 5.32 7.32 6 8 C3.69 7.67 1.38 7.34 -1 7 C-0.67 4.69 -0.34 2.38 0 0 Z " fill="#75C8DB" transform="translate(66,45)"/>
<path d="M0 0 C1.98 0.495 1.98 0.495 4 1 C4.33 2.32 4.66 3.64 5 5 C4.34 5 3.68 5 3 5 C3 4.34 3 3.68 3 3 C2.34 3 1.68 3 1 3 C1.33 4.32 1.66 5.64 2 7 C1.01 7 0.02 7 -1 7 C-0.67 4.69 -0.34 2.38 0 0 Z " fill="#47737F" transform="translate(60,42)"/>
<path d="M0 0 C0.99 0.99 1.98 1.98 3 3 C3.99 2.34 4.98 1.68 6 1 C5.34 2.65 4.68 4.3 4 6 C2.35 5.67 0.7 5.34 -1 5 C-1.33 4.01 -1.66 3.02 -2 2 C-1.34 2 -0.68 2 0 2 C0 1.34 0 0.68 0 0 Z " fill="#528594" transform="translate(98,36)"/>
<path d="M0 0 C0 1.65 0 3.3 0 5 C-0.66 4.67 -1.32 4.34 -2 4 C-3.32 4.99 -4.64 5.98 -6 7 C-6.33 5.35 -6.66 3.7 -7 2 C-1.125 0 -1.125 0 0 0 Z " fill="#548A99" transform="translate(97,62)"/>
<path d="M0 0 C1.98 1.65 3.96 3.3 6 5 C4.02 5.99 4.02 5.99 2 7 C1.34 6.01 0.68 5.02 0 4 C-0.99 3.34 -1.98 2.68 -3 2 C-2.01 1.34 -1.02 0.68 0 0 Z " fill="#25383D" transform="translate(72,49)"/>
<path d="M0 0 C0.86625 0.556875 0.86625 0.556875 1.75 1.125 C-4 4.125 -4 4.125 -6.25 4.125 C-6.25 3.135 -6.25 2.145 -6.25 1.125 C-2.80384615 -1.09038462 -2.80384615 -1.09038462 0 0 Z " fill="#5D9BA9" transform="translate(116.25,128.875)"/>
<path d="M0 0 C2.375 -0.125 2.375 -0.125 5 0 C5.66 0.66 6.32 1.32 7 2 C6.625 4.125 6.625 4.125 6 6 C5.34 5.01 4.68 4.02 4 3 C1.43717258 2.27034634 1.43717258 2.27034634 -1 2 C-0.67 1.34 -0.34 0.68 0 0 Z " fill="#528593" transform="translate(76,62)"/>
<path d="M0 0 C0.99 0.33 1.98 0.66 3 1 C3 2.65 3 4.3 3 6 C2.34 6 1.68 6 1 6 C1 5.01 1 4.02 1 3 C-0.32 3.99 -1.64 4.98 -3 6 C-3 4.68 -3 3.36 -3 2 C-2.01 1.34 -1.02 0.68 0 0 Z " fill="#456F7B" transform="translate(63,55)"/>
<path d="M0 0 C2 0.9375 2 0.9375 3.25 4 C3.4975 4.969375 3.745 5.93875 4 6.9375 C2.68 6.9375 1.36 6.9375 0 6.9375 C0 5.2875 0 3.6375 0 1.9375 C-1.32 1.6075 -2.64 1.2775 -4 0.9375 C-2 -0.0625 -2 -0.0625 0 0 Z " fill="#508491" transform="translate(73,14.0625)"/>
<path d="M0 0 C1.65 0.99 3.3 1.98 5 3 C5.33 2.34 5.66 1.68 6 1 C6.99 1.33 7.98 1.66 9 2 C8.67 2.99 8.34 3.98 8 5 C5.125 4.75 5.125 4.75 2 4 C0.625 1.9375 0.625 1.9375 0 0 Z " fill="#2E474E" transform="translate(75,75)"/>
<path d="M0 0 C0.99 0.66 1.98 1.32 3 2 C2.67 3.32 2.34 4.64 2 6 C-1.875 4.25 -1.875 4.25 -3 2 C-2.01 1.34 -1.02 0.68 0 0 Z " fill="#47737F" transform="translate(78,72)"/>
<path d="M0 0 C0.66 0 1.32 0 2 0 C2 0.99 2 1.98 2 3 C2.66 3 3.32 3 4 3 C4.33 3.99 4.66 4.98 5 6 C3.35 6.33 1.7 6.66 0 7 C0.33 5.68 0.66 4.36 1 3 C0.34 3 -0.32 3 -1 3 C-0.67 2.01 -0.34 1.02 0 0 Z " fill="#558C9B" transform="translate(62,58)"/>
<path d="M0 0 C0.99 0 1.98 0 3 0 C3 0.66 3 1.32 3 2 C3.66 2.33 4.32 2.66 5 3 C5.99 4.485 5.99 4.485 7 6 C6.38125 5.79375 5.7625 5.5875 5.125 5.375 C4.42375 5.25125 3.7225 5.1275 3 5 C2.34 5.66 1.68 6.32 1 7 C0.67 4.69 0.34 2.38 0 0 Z " fill="#70BED1" transform="translate(69,28)"/>
<path d="M0 0 C0.66 0 1.32 0 2 0 C2.28875 0.61875 2.5775 1.2375 2.875 1.875 C3.93720042 4.13325765 3.93720042 4.13325765 6 6 C4.02 6.33 2.04 6.66 0 7 C0 4.69 0 2.38 0 0 Z " fill="#3B5E68" transform="translate(71,16)"/>
<path d="M0 0 C2.31 0.33 4.62 0.66 7 1 C6.67 1.99 6.34 2.98 6 4 C3.03 3.505 3.03 3.505 0 3 C0 2.01 0 1.02 0 0 Z " fill="#5E9DAD" transform="translate(88,131)"/>
<path d="M0 0 C0.99 0.33 1.98 0.66 3 1 C2.3125 2.9375 2.3125 2.9375 1 5 C-1.625 5.75 -1.625 5.75 -4 6 C-3.67 5.01 -3.34 4.02 -3 3 C-2.34 3 -1.68 3 -1 3 C-0.67 2.01 -0.34 1.02 0 0 Z " fill="#528795" transform="translate(79,68)"/>
<path d="M0 0 C2.51083114 1.25541557 2.87125446 2.50063488 4 5 C2.02 5.33 0.04 5.66 -2 6 C-1.125 1.125 -1.125 1.125 0 0 Z " fill="#2F484F" transform="translate(53,26)"/>
<path d="M0 0 C0.33 0 0.66 0 1 0 C1.28571429 7.42857143 1.28571429 7.42857143 -1 11 C-2.4783226 8.04335481 -2.06032783 5.25770263 -2 2 C-1.34 2 -0.68 2 0 2 C0 1.34 0 0.68 0 0 Z " fill="#37545D" transform="translate(97,19)"/>
<path d="M0 0 C0 0.99 0 1.98 0 3 C-1.65 3.33 -3.3 3.66 -5 4 C-5 3.34 -5 2.68 -5 2 C-5.66 1.67 -6.32 1.34 -7 1 C-4.50935112 0.31292445 -2.62113708 0 0 0 Z " fill="#5E9DAE" transform="translate(73,131)"/>
<path d="M0 0 C2.29633824 3.44450737 2.54016485 5.93812283 3 10 C1.68 9.34 0.36 8.68 -1 8 C-0.67 5.36 -0.34 2.72 0 0 Z " fill="#82DEEE" transform="translate(126,95)"/>
<path d="M0 0 C1.98 0.495 1.98 0.495 4 1 C4 1.99 4 2.98 4 4 C2.35 4.33 0.7 4.66 -1 5 C-0.67 3.35 -0.34 1.7 0 0 Z " fill="#477380" transform="translate(92,59)"/>
<path d="M0 0 C0.66 0.33 1.32 0.66 2 1 C0.68 2.65 -0.64 4.3 -2 6 C-2.99 5.67 -3.98 5.34 -5 5 C-4.1875 3.0625 -4.1875 3.0625 -3 1 C-2.01 0.67 -1.02 0.34 0 0 Z " fill="#4B7A87" transform="translate(111,52)"/>
<path d="M0 0 C2.31 0.66 4.62 1.32 7 2 C7 2.99 7 3.98 7 5 C6.34 5 5.68 5 5 5 C4.67 4.34 4.34 3.68 4 3 C2.68 3 1.36 3 0 3 C0 2.01 0 1.02 0 0 Z " fill="#7DD7E9" transform="translate(86,32)"/>
<path d="M0 0 C1.32 0 2.64 0 4 0 C4 0.66 4 1.32 4 2 C4.66 2 5.32 2 6 2 C6 2.99 6 3.98 6 5 C5.34 5 4.68 5 4 5 C4 4.34 4 3.68 4 3 C2.35 2.67 0.7 2.34 -1 2 C-0.67 1.34 -0.34 0.68 0 0 Z " fill="#548C9A" transform="translate(88,23)"/>
</svg>
