<?xml version="1.0" encoding="UTF-8"?>
<svg id="Layer_1" xmlns="http://www.w3.org/2000/svg" viewBox="0 0 265.44 65.4">
  <defs>
    <style>
      .cls-1 {
        fill: #fff;
      }
    </style>
  </defs>
  <g>
    <path class="cls-1" d="M10.63,39.52c4.23,0,6.54,1.72,6.54,6.38,0,5.14-2.73,6.76-7.09,6.76h-2.73c-.13,0-.19.06-.19.2v8.46c0,.19-.13.32-.33.32h-1.72c-.2,0-.33-.13-.33-.32v-21.47c0-.2.13-.33.33-.33h5.53ZM10.01,50.77c3.16,0,4.72-1.01,4.72-4.81,0-3.58-1.46-4.59-4.72-4.59h-2.67c-.13,0-.19.07-.19.2v9.01c0,.13.06.2.19.2h2.67Z"/>
    <path class="cls-1" d="M22.89,46.19c-.2.03-.36,0-.39-.2l-.19-1.07c-.03-.2,0-.36.19-.42,1.24-.36,2.93-.59,4.88-.59,4.03,0,5.72,1.5,5.72,5.3v11.74c0,.23-.06.42-.39.52-1.01.29-2.86.49-4.78.49-5.43,0-6.99-1.2-6.99-4.75,0-3.09.68-4.75,5.4-5.2l4.36-.42c.13-.03.2-.1.2-.23v-1.76c0-2.9-.94-3.81-3.94-3.81-1.37,0-3.02.19-4.07.39ZM30.89,53.67c0-.13-.07-.2-.2-.2h-3.58c-3.09,0-3.87.81-3.87,3.48s.85,3.32,4.52,3.32c1.01,0,2.31-.06,2.8-.2.26-.06.33-.13.33-.26v-6.15Z"/>
    <path class="cls-1" d="M39.21,44.53c1.59-.36,3.25-.62,4.78-.62,1.04,0,1.89.03,2.6.16.13.03.2.1.2.26l-.16,1.5c-.03.13-.1.19-.23.16-.72-.13-1.53-.23-2.44-.23-.68,0-1.79.1-2.47.33-.23.06-.29.16-.29.36v14.86c0,.23-.13.36-.36.32h-1.63c-.2,0-.33-.13-.33-.32v-16.46c0-.19.13-.29.33-.32Z"/>
    <path class="cls-1" d="M51.08,46.19c-.2.03-.36,0-.39-.2l-.2-1.07c-.03-.2,0-.36.2-.42,1.24-.36,2.93-.59,4.88-.59,4.03,0,5.72,1.5,5.72,5.3v11.74c0,.23-.06.42-.39.52-1.01.29-2.86.49-4.78.49-5.43,0-6.99-1.2-6.99-4.75,0-3.09.68-4.75,5.4-5.2l4.36-.42c.13-.03.2-.1.2-.23v-1.76c0-2.9-.94-3.81-3.94-3.81-1.37,0-3.02.19-4.07.39ZM59.08,53.67c0-.13-.06-.2-.2-.2h-3.58c-3.09,0-3.87.81-3.87,3.48s.85,3.32,4.52,3.32c1.01,0,2.31-.06,2.8-.2.26-.06.33-.13.33-.26v-6.15Z"/>
    <path class="cls-1" d="M66.43,52.95c0-6.28,1.98-9.04,7.71-9.04,1.04,0,2.24.2,2.89.29.16,0,.23-.1.23-.26v-5.89c0-.2.13-.32.33-.32h1.66c.2,0,.33.13.33.32v22.96c0,.2-.1.29-.33.36-1.4.36-3.12.58-5.07.58-6.24,0-7.74-2.86-7.74-9.01ZM77.26,46.55c0-.26-.03-.39-.26-.46-.62-.16-1.82-.33-2.86-.33-4.2,0-5.3,1.63-5.3,7.19s.98,7.19,5.33,7.19c1.11,0,2.11-.1,2.8-.29.26-.1.29-.23.29-.46v-12.85Z"/>
    <path class="cls-1" d="M85.72,40.53c-.19,0-.32-.13-.32-.33v-2.11c0-.2.13-.32.32-.32h2.02c.2,0,.33.13.33.32v2.11c0,.2-.13.33-.33.33h-2.02ZM85.88,61.64c-.2,0-.33-.13-.33-.32v-16.75c0-.2.13-.32.33-.32h1.66c.2,0,.33.13.33.32v16.75c0,.19-.13.32-.33.32h-1.66Z"/>
    <path class="cls-1" d="M92.77,61.64c-.1-.03-.16-.06-.16-.23l.13-1.53c0-.1.1-.16.23-.13,1.14.23,2.34.36,3.41.36,2.7,0,3.64-.39,3.64-2.57,0-1.56-.62-2.18-3.38-4.2-2.76-2.02-3.81-2.86-3.81-5.14,0-2.96,1.66-4.29,5.37-4.29,1.53,0,2.67.1,3.55.26.1.03.16.07.16.23l-.13,1.53c0,.1-.1.16-.23.13-.85-.16-1.95-.29-3.02-.29-2.24,0-3.48.33-3.48,2.24,0,1.69.78,2.28,3.25,3.97,2.8,1.95,3.94,3.06,3.94,5.5,0,3.28-1.63,4.49-5.53,4.49-1.53,0-2.93-.13-3.94-.32Z"/>
    <path class="cls-1" d="M113.98,61.96c-6.57,0-7.9-4.07-7.9-9.04s1.63-9.01,7.03-9.01,6.37,3.12,6.37,7.45v.72c0,1.27-.29,1.46-.85,1.46h-9.98c-.16,0-.2.06-.2.23,0,4.65,1.72,6.34,5.98,6.34,1.46,0,3.06-.36,4.07-.78.23-.1.42-.1.46.16l.13,1.2c0,.16-.06.29-.23.39-1.33.55-2.99.88-4.88.88ZM108.64,51.78h8.29c.29,0,.39-.06.39-1.14,0-3.25-.91-4.94-4.23-4.94-3.81,0-4.65,2.76-4.65,5.85,0,.13.03.23.2.23Z"/>
    <path class="cls-1" d="M138.37,39.52c6.44,0,7.77,5.46,7.77,10.99s-1.43,11.12-7.77,11.12h-7.06c-.2,0-.33-.13-.33-.32v-21.47c0-.2.13-.33.33-.33h7.06ZM138.01,41.41h-4.46c-.13,0-.19.06-.19.19v17.95c0,.16.03.2.16.2h4.52c4.49,0,5.66-4.23,5.66-9.34s-1.07-9.01-5.69-9.01Z"/>
    <path class="cls-1" d="M152.38,46.19c-.2.03-.36,0-.39-.2l-.2-1.07c-.03-.2,0-.36.2-.42,1.24-.36,2.93-.59,4.88-.59,4.03,0,5.72,1.5,5.72,5.3v11.74c0,.23-.06.42-.39.52-1.01.29-2.86.49-4.78.49-5.43,0-6.99-1.2-6.99-4.75,0-3.09.68-4.75,5.4-5.2l4.36-.42c.13-.03.2-.1.2-.23v-1.76c0-2.9-.94-3.81-3.94-3.81-1.37,0-3.02.19-4.07.39ZM160.38,53.67c0-.13-.06-.2-.2-.2h-3.58c-3.09,0-3.87.81-3.87,3.48s.85,3.32,4.52,3.32c1.01,0,2.31-.06,2.8-.2.26-.06.33-.13.33-.26v-6.15Z"/>
    <path class="cls-1" d="M180.35,61.31c0,.19-.13.32-.33.32h-1.66c-.2,0-.33-.13-.33-.32v-13.47c0-1.63-1.14-2.08-3.58-2.08-1.07,0-2.6.1-3.45.29-.23.06-.33.13-.33.36v14.9c0,.19-.13.32-.33.32h-1.66c-.2,0-.33-.13-.33-.32v-16.43c0-.2.1-.33.33-.36,1.04-.23,3.94-.62,5.79-.62s3.48.16,4.52.85c.06.03.19.03.26,0,1.66-.62,3.51-.85,4.88-.85,4.36,0,6.15,1.82,6.15,4.98v12.42c0,.19-.13.32-.33.32h-1.66c-.2,0-.33-.13-.33-.32v-12.1c0-2.63-1.66-3.45-4.23-3.45-.94,0-2.18.1-3.02.33-.26.06-.39.16-.39.39v14.83Z"/>
    <path class="cls-1" d="M196.18,61.35c-.23-.07-.33-.13-.33-.33v-22.96c0-.2.13-.32.33-.32h1.66c.2,0,.33.13.33.32v5.89c0,.19.06.26.23.26.46,0,1.76-.29,3.41-.29,5.4,0,7.19,2.37,7.19,8.65s-1.53,9.4-7.61,9.4c-1.98,0-3.77-.26-5.2-.62ZM198.46,46.09c-.23.06-.29.23-.29.49v12.94c0,.2.06.29.33.36.65.16,1.89.26,2.89.26,4.26,0,5.2-1.98,5.2-7.42s-1.07-6.96-5.04-6.96c-1.33,0-2.47.16-3.09.33Z"/>
    <path class="cls-1" d="M213.87,56.27v-11.71c0-.2.13-.32.33-.32h1.66c.2,0,.33.13.33.32v11.45c0,3.06.91,4.07,4.46,4.07,1.27,0,2.6-.13,3.32-.29.23-.06.33-.13.33-.36v-14.86c0-.2.13-.32.32-.32h1.66c.2,0,.33.13.33.32v16.46c0,.2-.13.29-.33.33-1.76.36-4.03.62-5.63.62-5.11,0-6.77-1.3-6.77-5.69Z"/>
    <path class="cls-1" d="M235.47,61.93c-2.47,0-3.22-1.01-3.22-4.2v-19.68c0-.2.13-.32.33-.32h1.66c.2,0,.32.13.32.32v19.68c0,1.92.23,2.41,1.59,2.41h1.33c.16,0,.29.06.29.26l-.06,1.01c-.03.16-.1.26-.26.29-.55.13-1.17.23-1.98.23Z"/>
    <path class="cls-1" d="M244.44,61.93c-2.47,0-3.22-1.01-3.22-4.2v-19.68c0-.2.13-.32.33-.32h1.66c.2,0,.32.13.32.32v19.68c0,1.92.23,2.41,1.59,2.41h1.33c.16,0,.29.06.29.26l-.06,1.01c-.03.16-.1.26-.26.29-.55.13-1.17.23-1.98.23Z"/>
    <path class="cls-1" d="M251.43,46.19c-.19.03-.36,0-.39-.2l-.2-1.07c-.03-.2,0-.36.2-.42,1.24-.36,2.93-.59,4.88-.59,4.03,0,5.72,1.5,5.72,5.3v11.74c0,.23-.07.42-.39.52-1.01.29-2.86.49-4.78.49-5.43,0-6.99-1.2-6.99-4.75,0-3.09.68-4.75,5.4-5.2l4.36-.42c.13-.03.2-.1.2-.23v-1.76c0-2.9-.94-3.81-3.94-3.81-1.37,0-3.02.19-4.07.39ZM259.43,53.67c0-.13-.06-.2-.2-.2h-3.58c-3.09,0-3.87.81-3.87,3.48s.85,3.32,4.52,3.32c1.01,0,2.31-.06,2.8-.2.26-.06.32-.13.32-.26v-6.15Z"/>
  </g>
  <path class="cls-1" d="M152.83,27.67c.16-.03.33-.2.33-.39l.1-2.15c0-.26-.16-.33-.33-.33h-1.04c-.95,0-1.37-.33-1.37-1.37V4.06c0-.23-.13-.36-.33-.36h-3.62c-.2,0-.33.13-.33.36v19.96c0,3.03,1.37,3.98,4.08,3.98,1.01,0,1.79-.13,2.51-.33M137.53,24.86c0,.1-.03.16-.23.23-.42.1-1.3.16-2.05.16-2.58,0-3.16-.26-3.16-2.58s.72-2.77,3.07-2.77h2.19c.13,0,.2.07.2.2v4.76ZM134.08,13.32c2.54,0,3.46.46,3.46,2.41v1.3c0,.13-.07.16-.2.2l-3.85.49c-4.79.59-5.54,2.09-5.54,5.41,0,3.75,1.76,4.86,7.63,4.86,2.25,0,4.57-.23,5.71-.59.36-.13.42-.29.42-.49v-11.84c0-3.82-2.45-5.18-6.49-5.18-2.19,0-4.47.26-5.71.62-.2.07-.23.26-.2.46l.23,2.51c.03.2.29.2.49.16,1.04-.16,2.87-.33,4.04-.33M125.04,27.7c.16-.03.33-.23.33-.42l.1-2.18c0-.26-.16-.33-.33-.33h-1.01c-1.04,0-1.4-.29-1.4-1.37v-9.69c0-.13.06-.2.2-.2h2.74c.2,0,.33-.13.33-.33v-2.64c0-.2-.13-.33-.33-.33h-2.74c-.13,0-.2-.07-.2-.2v-4.08c0-.2-.13-.33-.33-.33h-3.62c-.2,0-.33.13-.33.33v4.08c0,.13-.07.2-.2.2h-2.25c-.2,0-.33.13-.33.33v2.64c0,.2.13.33.33.33h2.25c.13,0,.2.06.2.2v10.7c0,2.38,1.34,3.59,3.95,3.59.91,0,1.92-.13,2.64-.29M112.69,27.67c.2,0,.33-.13.33-.33v-11.22c0-4.76-1.53-6.23-7.27-6.23-2.05,0-4.99.39-6.75.69-.2.03-.33.13-.33.33v16.44c0,.2.13.33.33.33h3.62c.2,0,.33-.13.33-.33v-13.63c0-.2.1-.26.33-.33.55-.13,1.34-.2,2.32-.2,2.61,0,3.16.65,3.16,3.13v11.02c0,.2.13.33.33.33h3.62ZM93.97,27.05c.16-.07.23-.16.23-.29l-.23-2.54c-.07-.13-.2-.16-.36-.16-1.01.33-2.94.75-4.6.75-3.03,0-4.7-.88-4.7-4.37,0-.13.03-.2.2-.2h9.2c.78,0,.88-.55.88-2.77,0-4.73-1.57-7.57-6.78-7.57s-7.79,3.26-7.79,9.1c0,5.51,2.02,9,8.38,9,2.28,0,4.31-.36,5.58-.95M84.25,17.36c0-2.54.59-4.5,3.49-4.5,2.48,0,3.1,1.3,3.1,3.78,0,.88-.1.95-.36.95h-6.03c-.13,0-.2-.1-.2-.23M71.63,24.41c0,.16-.07.26-.29.33-.46.13-1.27.16-1.79.16-3.46,0-4.01-1.21-4.01-6s.98-5.84,3.95-5.84c.72,0,1.43.07,1.89.16.2.03.26.26.26.42v10.76ZM69.51,27.99c2.09,0,4.99-.23,6.07-.68.29-.13.33-.26.33-.42V4.02c0-.2-.13-.33-.33-.33h-3.62c-.2,0-.33.13-.33.33v5.8c0,.16-.03.29-.23.29-.42,0-1.66-.2-2.77-.2-5.32,0-7.53,2.94-7.53,8.9,0,6.69,1.63,9.16,8.41,9.16M56.59,7.32c.2,0,.33-.13.33-.33v-3.23c0-.2-.13-.33-.33-.33h-3.82c-.2,0-.33.13-.33.33v3.23c0,.2.13.33.33.33h3.82ZM56.5,27.67c.2,0,.33-.13.33-.33V10.55c0-.2-.13-.33-.33-.33h-3.62c-.2,0-.33.13-.33.33v16.8c0,.2.13.33.33.33h3.62ZM49.06,27.54c.1-.07.16-.13.13-.29l-.2-2.8c-.03-.16-.2-.13-.33-.1-.65.16-1.63.29-2.48.29-2.77,0-3.55-1.3-3.55-5.54,0-4.57.82-5.9,3.52-5.9.91,0,1.89.16,2.54.33.16.06.26-.03.26-.13l.13-2.8c0-.16-.07-.2-.16-.23-.72-.26-2.02-.46-3.55-.46-5.38,0-7.24,3.52-7.24,9.16s1.92,8.94,7.27,8.94c1.34,0,2.71-.16,3.65-.46M35.69,27.54c.1-.07.16-.13.13-.29l-.2-2.8c-.03-.16-.2-.13-.33-.1-.65.16-1.63.29-2.48.29-2.77,0-3.55-1.3-3.55-5.54,0-4.57.82-5.9,3.52-5.9.91,0,1.89.16,2.54.33.16.06.26-.03.26-.13l.13-2.8c0-.16-.07-.2-.16-.23-.72-.26-2.02-.46-3.55-.46-5.38,0-7.24,3.52-7.24,9.16s1.92,8.94,7.27,8.94c1.34,0,2.71-.16,3.65-.46M21.18,16.58c0-4.14-.78-7.66-2.22-9.36-1.37-1.63-3.26-2.05-6.43-2.05s-5.15.42-6.55,2.05c-1.4,1.7-2.19,5.22-2.19,9.36s.78,7.66,2.19,9.36c1.4,1.63,3.29,2.05,6.46,2.05s5.15-.42,6.52-2.05c1.43-1.7,2.22-5.22,2.22-9.36M8.33,16.58c0-3.13.33-6,1.04-7.01.52-.72,1.43-.82,3.16-.82s2.54.1,3.07.82c.72,1.01,1.04,3.88,1.04,7.01s-.33,6-1.04,7.01c-.52.72-1.4.82-3.13.82s-2.58-.1-3.1-.82c-.72-1.01-1.04-3.91-1.04-7.01"/>
</svg>