<?xml version="1.0" encoding="UTF-8"?>
<svg id="Layer_1" data-name="Layer 1" xmlns="http://www.w3.org/2000/svg" width="238" height="126" viewBox="0 0 238 126">
  <defs>
    <style>
      .cls-1 {
        fill: #fff;
      }
    </style>
  </defs>
  <g>
    <path class="cls-1" d="m205.36,51s-.98-.52-1.43-1.87c-.94-2.83,3.9-6.62,11.14-6.62s14.76,5.58,14.76,15.38v24.87c0,4.91,1.53,6.82,4.05,6.76,0,0,.25,3.31-2.84,3.31s-4.34-4.62-4.34-4.62c0,0-3.82,5.86-12.3,5.86-9.33,0-14.9-7.08-14.9-14.78,0-9.12,7.28-16.01,16.44-15,5.83.64,5.81,6.12,5.81,6.12,0,0-2.5-1.71-5.59-2.04-3.23-.35-12.6.32-12.6,10.83,0,7,5.6,10.83,10.23,10.83,7.32,0,11.94-3.55,11.94-11.66v-21.25c0-5.52-3.8-10.53-10.67-10.53s-9.69,4.42-9.69,4.42Z"/>
    <path class="cls-1" d="m140.91,52.47s-.98-.52-1.43-1.87c-.94-2.83,3.9-6.62,11.14-6.62s14.76,5.58,14.76,15.38v24.87c0,4.91,1.53,6.82,4.05,6.76,0,0,.25,3.31-2.84,3.31s-4.34-4.62-4.34-4.62c0,0-3.82,5.86-12.3,5.86-9.33,0-14.9-7.08-14.9-14.78,0-9.12,7.28-16.01,16.44-15,5.82.64,5.81,6.12,5.81,6.12,0,0-2.5-1.71-5.59-2.04-3.23-.35-12.6.32-12.6,10.83,0,7,5.6,10.83,10.23,10.83,7.32,0,11.94-3.55,11.94-11.66v-21.25c0-5.52-3.8-10.53-10.67-10.53s-9.69,4.42-9.69,4.42Z"/>
    <path class="cls-1" d="m181.34,84.77V11.42h0c-2.23,0-4.04,1.81-4.04,4.04v69.06c0,14.73,9.89,16.04,15.13,16.04,3.68,0,7.84-1.33,9.73-3.25,2.98-3.04-.39-5.24-.39-5.24,0,0-2.95,4.45-9.3,4.45-6.98,0-11.12-4.3-11.12-11.75Z"/>
    <path class="cls-1" d="m8.13,11.42c-2.22,0-4.01,1.8-4.01,4.01v.03h18.71v76.04c0,2.23,1.81,4.04,4.04,4.04V15.47h14.66c2.23,0,4.04-1.81,4.04-4.04H8.13Z"/>
    <path class="cls-1" d="m84.62,59.51c0-11.03-8.06-15.53-14.84-15.53-7.4,0-11.45,4.82-11.45,4.82V11.42c-2.22,0-4.01,1.8-4.01,4.01l-.03,76.07c0,2.23,1.81,4.04,4.04,4.04v-35.9c0-3.71,1.04-6.57,3.13-8.59,2.09-2.02,4.75-3.03,7.99-3.03,3.44,0,6.15,1.01,8.14,3.03,1.99,2.02,2.98,4.89,2.98,8.59v31.85c0,2.23,1.81,4.04,4.04,4.04v-36.04Z"/>
  </g>
  <path class="cls-1" d="m146.61,106.19c-.76.97-4.12,5.73-11.71,4.22-6.97-1.39-8.77-6.42-8.77-12.17v-38.99c0-9.81-7.52-15.38-14.76-15.38-8.5,0-13.93,4.58-13.93,10.34,0,3.85,3.12,6.98,6.98,6.98s6.98-3.12,6.98-6.98c0-2.48-1.3-4.66-3.25-5.9,0,0,1.9-.41,3.21-.37,6.87.17,10.67,5.01,10.67,10.53v21.25c0,8.11-4.63,11.66-11.94,11.66-4.63,0-10.23-3.83-10.23-10.83,0-10.51,9.36-11.18,12.6-10.83,3.08.33,5.59,2.04,5.59,2.04,0,0,.02-5.48-5.81-6.12-9.16-1.01-16.44,5.88-16.44,15,0,7.7,5.58,14.78,14.9,14.78,6.08,0,9.77-3.02,11.36-4.72v8.01c0,5.12,1.94,13.16,10.74,15.31,7.36,1.8,13.83-1.29,14.89-3.55,1.43-3.04-1.08-4.29-1.08-4.29Zm-42.19-48.32c-2.01,0-3.65-1.63-3.65-3.65s1.63-3.65,3.65-3.65,3.65,1.63,3.65,3.65-1.63,3.65-3.65,3.65Z"/>
  <g>
    <path class="cls-1" d="m83.24,27.35c-.26-.3-.58-.55-.93-.73-.31-.16-.64-.26-.99-.3.62-.23,1.13-.58,1.54-1.03.44-.49.66-1.14.66-1.92,0-.57-.11-1.08-.32-1.51-.21-.43-.5-.78-.87-1.06-.36-.27-.8-.48-1.3-.62-.5-.14-1.05-.21-1.63-.21h-4.7v13.49h4.65c.66,0,1.28-.08,1.85-.25.57-.16,1.08-.41,1.51-.73.43-.32.78-.72,1.03-1.18.25-.47.38-1.01.38-1.62,0-.46-.08-.89-.23-1.29-.15-.39-.36-.75-.62-1.05Zm-1.96-2.87c-.13.24-.3.45-.52.61-.22.16-.48.27-.77.34-.3.07-.62.1-.95.1h-2.42v-3.86h2.8c.71,0,1.24.19,1.56.57.33.38.5.83.5,1.34,0,.35-.07.66-.19.9Zm-4.67,2.75h2.63c.87,0,1.56.2,2.06.58.5.38.75.97.75,1.74,0,.47-.1.84-.29,1.12-.2.28-.44.51-.72.67-.28.17-.59.28-.92.33-.33.06-.63.08-.91.08h-2.61v-4.54Z"/>
    <polygon class="cls-1" points="88.89 27.47 95.24 27.47 95.24 25.66 88.89 25.66 88.89 21.78 95.72 21.78 95.72 19.97 86.97 19.97 86.97 33.46 96.06 33.46 96.06 31.65 88.89 31.65 88.89 27.47"/>
    <polygon class="cls-1" points="108.68 30.9 101.38 19.99 101.36 19.97 98.9 19.97 98.9 33.46 100.82 33.46 100.82 22.53 108.2 33.43 108.22 33.46 110.61 33.46 110.61 19.97 108.68 19.97 108.68 30.9"/>
    <polygon class="cls-1" points="112.8 21.78 117.11 21.78 117.11 33.46 119.04 33.46 119.04 21.78 123.34 21.78 123.34 19.97 112.8 19.97 112.8 21.78"/>
    <path class="cls-1" d="m136.79,21.67c-.61-.63-1.36-1.14-2.22-1.5-.86-.36-1.82-.54-2.84-.54s-1.98.18-2.84.54c-.86.36-1.61.86-2.22,1.5-.61.63-1.1,1.39-1.45,2.25-.35.86-.52,1.8-.52,2.8s.18,1.94.52,2.8c.35.86.84,1.62,1.45,2.25.61.63,1.36,1.14,2.22,1.5.86.36,1.82.54,2.84.54s1.98-.18,2.84-.54c.86-.36,1.61-.86,2.22-1.5.61-.63,1.1-1.39,1.45-2.25.35-.86.52-1.8.52-2.8s-.18-1.94-.52-2.8c-.35-.86-.84-1.61-1.45-2.25Zm-.07,5.05c0,.72-.12,1.41-.36,2.05-.24.64-.58,1.2-1.01,1.67-.43.47-.96.85-1.57,1.13-.61.28-1.3.42-2.06.42s-1.45-.14-2.06-.42c-.61-.28-1.13-.66-1.57-1.13-.43-.47-.77-1.04-1.01-1.67-.24-.64-.36-1.33-.36-2.05s.12-1.41.36-2.05c.24-.64.57-1.2,1.01-1.67.43-.47.96-.85,1.57-1.13.61-.28,1.3-.42,2.06-.42s1.45.14,2.06.42c.61.28,1.14.66,1.57,1.13.43.47.77,1.04,1.01,1.67.24.64.36,1.33.36,2.05Z"/>
    <polygon class="cls-1" points="150.67 19.97 140.13 19.97 140.13 21.78 144.44 21.78 144.44 33.46 146.36 33.46 146.36 21.78 150.67 21.78 150.67 19.97"/>
    <path class="cls-1" d="m157.07,20v-.03h-1.73l-5.94,13.49h2.24l1.32-3.31h6.29l1.33,3.27v.03h2.25l-5.76-13.46Zm1.47,8.45h-4.9l2.47-5.99,2.43,5.99Z"/>
  </g>
</svg>