<svg xmlns="http://www.w3.org/2000/svg" viewBox="0 0 106.26 123.03"><defs><style>.cls-1,.cls-2,.cls-3{fill:#fff;}.cls-2{stroke:#575756;stroke-width:0.19px;}.cls-3{fill-rule:evenodd;}</style></defs><g id="Layer_2" data-name="Layer 2"><g id="Layer_1-2" data-name="Layer 1"><path class="cls-1" d="M9.36,123H8.19c.19,0,.3-.16.33-.42v0a.38.38,0,0,0,0-.08v-2.76c0-.31-.11-.49-.33-.53l1.5,0a1.46,1.46,0,0,1,.77.2.77.77,0,0,1,.36.68,1.2,1.2,0,0,1-.75,1,.37.37,0,0,1-.14.07l-.13,0-.11,0a1.25,1.25,0,0,1-.27,0H9.2l-.17,0v1.22c0,.31.11.49.33.53Zm.86-2.93h0a.75.75,0,0,0-.06-.31.31.31,0,0,0-.14-.2h0a.87.87,0,0,0-.61-.18c-.23,0-.34,0-.35.11v.06l0,1.46h.24a1.25,1.25,0,0,0,.36,0h0a.7.7,0,0,0,.34-.21.89.89,0,0,0,.25-.64Z"/><path class="cls-1" d="M12.86,123h-.73v0a.25.25,0,0,0,.21-.13,1.88,1.88,0,0,0,.16-.23,4.21,4.21,0,0,0,.42-.8c.11-.23.2-.44.29-.61s.15-.34.2-.47c.29-.71.55-1.35.75-1.92l.79,1.87c.27.59.52,1.19.8,1.77a.94.94,0,0,0,.23.37.62.62,0,0,0,.29.15v0h-.92l-.24-.59c-.07-.17-.13-.32-.17-.44H13.23Zm2-1.31s-.07-.18-.19-.47-.3-.74-.55-1.32l-.76,1.84h1.53Z"/><path class="cls-1" d="M20,121.33a1,1,0,0,1,.29.61,1.19,1.19,0,0,1,0,.25.82.82,0,0,1-.11.28,1.46,1.46,0,0,1-.2.25.65.65,0,0,1-.19.14,1.64,1.64,0,0,1-.94.16,1.51,1.51,0,0,1-.93-.29V122h0a2.08,2.08,0,0,0,.47.56,1.09,1.09,0,0,0,.57.2c.4,0,.66-.05.78-.28a.67.67,0,0,0,0-.07,1.81,1.81,0,0,0,0-.22.66.66,0,0,0-.15-.46,5.93,5.93,0,0,0-.69-.52,4.44,4.44,0,0,1-.88-.65.89.89,0,0,1-.22-.68.85.85,0,0,1,.38-.66,1.38,1.38,0,0,1,.89-.21,2.93,2.93,0,0,1,.68.15c.18.07.27.15.26.21V120c0,.06,0,0-.12-.17a1.37,1.37,0,0,0-.36-.4,1.09,1.09,0,0,0-.56-.2.81.81,0,0,0-.49.11.44.44,0,0,0-.2.39.56.56,0,0,0,.15.44,2.22,2.22,0,0,0,.59.45,5.16,5.16,0,0,1,.57.37,1.86,1.86,0,0,1,.35.3"/><path class="cls-1" d="M23.23,119.08a1.56,1.56,0,0,0-.26.11.88.88,0,0,0-.18.23v3a.49.49,0,0,0,.08.29.79.79,0,0,0,.35.24h0s-.05,0-.14,0a11.56,11.56,0,0,0-1.19,0,.25.25,0,0,1-.12,0,.49.49,0,0,0,.34-.15.47.47,0,0,0,.16-.31v-2.9a.54.54,0,0,0-.05-.21,1,1,0,0,0-.13-.2.26.26,0,0,0-.18-.1h1.31"/><path class="cls-1" d="M25.8,121.07v1.31a.43.43,0,0,0,.08.29.55.55,0,0,0,.35.23v0s-.06,0-.14,0H24.9c-.07,0-.11,0-.13,0a.48.48,0,0,0,.34-.14.47.47,0,0,0,.16-.29c0-2,0-3-.06-3.06a1.37,1.37,0,0,0-.13-.2.23.23,0,0,0-.18-.08,3.93,3.93,0,0,1,.68,0,3.29,3.29,0,0,1,.65,0,.67.67,0,0,0-.26.09.87.87,0,0,0-.19.23l0,1.43.78-.66.74-.62a.6.6,0,0,0,.18-.21.15.15,0,0,0,0-.13.23.23,0,0,0-.13-.1l-.22-.08.29,0,.94,0-.69.52h0l-.14.1-.19.15-1.2,1c.15.14.35.35.61.62s.56.61.92,1a1.68,1.68,0,0,0,.34.32,1.4,1.4,0,0,0,.33.13l-.87,0Z"/><path class="cls-1" d="M33,119.07h1c-.22,0-.33.21-.33.53v1.7a1.57,1.57,0,0,1-.36,1.26,1.67,1.67,0,0,1-1.24.43c-1.15,0-1.72-.53-1.72-1.6v-1.78c0-.33-.12-.5-.34-.53v0h1.2a.32.32,0,0,0-.24.18,1.14,1.14,0,0,0-.1.5v1.53a1.54,1.54,0,0,0,.31,1.09,1.22,1.22,0,0,0,1,.35c.79,0,1.19-.46,1.19-1.35l0-1.76c0-.32-.11-.49-.34-.53"/><path class="cls-1" d="M35.81,123c.22,0,.33-.22.33-.53l0-2.75h0c0-.32-.11-.49-.33-.53.67,0,1.24,0,1.69,0a2.52,2.52,0,0,1,1.63.5,1.64,1.64,0,0,1,.63,1.36,1.83,1.83,0,0,1-.68,1.56,2.43,2.43,0,0,1-1.61.46H37l-1.14,0m.88-.71c0,.19,0,.31.15.37a1.17,1.17,0,0,0,.6.1,1.5,1.5,0,0,0,1.72-1.68,1.52,1.52,0,0,0-1.75-1.7H37c-.21,0-.31.08-.31.19Z"/><path class="cls-1" d="M42,123H41.3v0a.27.27,0,0,0,.22-.13,1.88,1.88,0,0,0,.16-.23,5,5,0,0,0,.42-.8c.11-.23.21-.44.28-.61s.15-.34.2-.47c.3-.71.55-1.35.76-1.92.26.64.53,1.26.79,1.87l.79,1.77a.85.85,0,0,0,.24.37.54.54,0,0,0,.29.15v0h-.93c-.09-.22-.16-.42-.23-.59s-.12-.32-.17-.44H42.41Zm2-1.31s-.07-.18-.2-.47-.3-.74-.55-1.32l-.75,1.84H44Z"/><path class="cls-1" d="M57.92,121.33a.93.93,0,0,1,.28.61,1.1,1.1,0,0,1,0,.25.85.85,0,0,1-.12.28,1.46,1.46,0,0,1-.2.25.65.65,0,0,1-.19.14,1.61,1.61,0,0,1-.94.16,1.54,1.54,0,0,1-.93-.29V122h0a1.89,1.89,0,0,0,.46.56,1.12,1.12,0,0,0,.57.2c.4,0,.66-.05.79-.28a.26.26,0,0,1,0-.07l0-.22a.62.62,0,0,0-.16-.46,4.55,4.55,0,0,0-.69-.52,4.28,4.28,0,0,1-.87-.65.94.94,0,0,1-.23-.68.86.86,0,0,1,.39-.66,1.35,1.35,0,0,1,.89-.21,3.05,3.05,0,0,1,.68.15c.18.07.26.15.25.21v.19c0,.11,0,.28,0,.48s0,0-.12-.17a1.37,1.37,0,0,0-.36-.4,1.13,1.13,0,0,0-.57-.2.83.83,0,0,0-.49.11.49.49,0,0,0-.2.39.56.56,0,0,0,.15.44,2.63,2.63,0,0,0,.59.45,4.36,4.36,0,0,1,.57.37,2.37,2.37,0,0,1,.36.3"/><path class="cls-1" d="M60,123c.18,0,.28-.17.32-.42v0a.13.13,0,0,0,0-.08v-2.76c0-.31-.13-.49-.34-.53h1.49a1.47,1.47,0,0,1,.79.2.76.76,0,0,1,.35.68,1.2,1.2,0,0,1-.76,1s-.09,0-.1.06A3.69,3.69,0,0,0,64,122.92l.21,0h-1a1.32,1.32,0,0,1-1-.52c-.41-.52-.76-1-1-1.26a2,2,0,0,0-.39,0v1.21c0,.31.11.49.34.54ZM62,120a.69.69,0,0,0-.2-.56,1,1,0,0,0-.63-.17c-.23,0-.35,0-.35.11v.06l0,1.45H61a.84.84,0,0,0,1-.89"/><path class="cls-1" d="M67,119.08a.65.65,0,0,0-.46.34v3a.58.58,0,0,0,.09.29A.76.76,0,0,0,67,123h0a.36.36,0,0,1-.15,0,11.56,11.56,0,0,0-1.19,0,.42.42,0,0,1-.13,0,.51.51,0,0,0,.35-.15.47.47,0,0,0,.16-.31v-2.9a.54.54,0,0,0,0-.21.72.72,0,0,0-.14-.2.2.2,0,0,0-.16-.1H67"/><path class="cls-1" d="M73.75,122.3c0,.19.11.3.32.34a3.82,3.82,0,0,0,.54,0,1.52,1.52,0,0,0,.38,0,1.61,1.61,0,0,0,.53-.21.6.6,0,0,0,.23-.28l-.12.77v0h-.16c-.32,0-.7,0-1.17,0H72.91c.23,0,.34-.2.34-.53v-2.75h0c0-.32-.12-.5-.34-.54h1.2a.4.4,0,0,0-.25.19,1.41,1.41,0,0,0-.09.51Z"/><path class="cls-1" d="M77.75,123H77v0a.3.3,0,0,0,.22-.13l.15-.23a4.21,4.21,0,0,0,.42-.8c.1-.23.2-.44.28-.61l.21-.47c.29-.71.55-1.35.75-1.92l.79,1.87.79,1.77a1.07,1.07,0,0,0,.23.37.61.61,0,0,0,.3.15v0h-.92l-.24-.59-.18-.44H78.12Zm2-1.31s-.08-.18-.21-.47L79,119.86l-.76,1.84h1.53Z"/><path class="cls-1" d="M86.51,119.61v2.13c0,.23,0,.43,0,.6s0,.33,0,.47a.21.21,0,0,1-.05.15h-.07c-.18-.19-.53-.51-1-1l-2-1.89,0,1.84v.43c0,.33.11.5.33.54v0h-1c.23,0,.34-.21.34-.54v-.52l0-2.21v-.34a1.4,1.4,0,0,0,0-.23h0l3,2.72.06.07a.11.11,0,0,0,0-.08v-2.16c0-.32-.11-.49-.34-.53h1c-.22,0-.32.21-.32.53"/><path class="cls-1" d="M89.6,121.07v1.31a.5.5,0,0,0,.07.29.57.57,0,0,0,.36.23l0,0s-.06,0-.15,0H88.69c-.06,0-.1,0-.12,0a.44.44,0,0,0,.34-.14.43.43,0,0,0,.16-.29c0-2,0-3-.06-3.06a.9.9,0,0,0-.14-.2.19.19,0,0,0-.17-.08,3.76,3.76,0,0,1,.67,0,3.45,3.45,0,0,1,.66,0,.57.57,0,0,0-.26.09.87.87,0,0,0-.19.23l0,1.43.78-.66.74-.62a.74.74,0,0,0,.18-.21.15.15,0,0,0,0-.13.2.2,0,0,0-.13-.1l-.22-.08.3,0,.93,0-.67.52h0l-.14.1-.2.15-1.18,1,.6.62c.25.27.56.61.92,1a1.46,1.46,0,0,0,.34.32,1.2,1.2,0,0,0,.32.13l-.87,0Z"/><path class="cls-1" d="M94.39,123h-.73v0a.27.27,0,0,0,.21-.13c.06-.07.11-.15.17-.23a5.35,5.35,0,0,0,.41-.8c.11-.23.21-.44.28-.61s.15-.34.21-.47c.29-.71.55-1.35.75-1.92.27.64.53,1.26.8,1.87s.52,1.19.79,1.77a1.06,1.06,0,0,0,.22.37.71.71,0,0,0,.3.15v0h-.92c-.1-.22-.17-.42-.24-.59s-.12-.32-.17-.44h-1.7Zm2-1.31s-.08-.18-.2-.47-.3-.74-.55-1.32l-.75,1.84h1.52Z"/><path class="cls-1" d="M69.4,107.09a6,6,0,0,1-.57-.82,1.21,1.21,0,0,1-.13-.52.91.91,0,0,1,.35-.71,1.35,1.35,0,0,1,1-.31,1.25,1.25,0,0,1,.9.3,1,1,0,0,1,.32.73,1.12,1.12,0,0,1-.22.72,1.79,1.79,0,0,1-.71.49,6.21,6.21,0,0,0,.53.64l.18.2.8,1a3.38,3.38,0,0,0,.58-.82,1.41,1.41,0,0,0,.19-.56.36.36,0,0,0-.08-.23.53.53,0,0,0-.29-.15.41.41,0,0,1,0-.07v0l.54,0,.45,0c.2,0,.47,0,.83,0v0a.25.25,0,0,1,0,.08,2.21,2.21,0,0,0-.55.32,7.27,7.27,0,0,0-.71.73c-.31.37-.58.71-.79,1a4.42,4.42,0,0,0,.82.87.88.88,0,0,0,.52.15.82.82,0,0,0,.53-.17.44.44,0,0,1,.22-.11l.07,0a1,1,0,0,1-.19.5,1.21,1.21,0,0,1-.78.28,1.57,1.57,0,0,1-.49-.07,2.34,2.34,0,0,1-.46-.25,3.28,3.28,0,0,1-.47-.42l-.28-.27a6,6,0,0,1-.56.51,2.61,2.61,0,0,1-.7.37,2.34,2.34,0,0,1-.87.13,1.83,1.83,0,0,1-1-.24,1.51,1.51,0,0,1-.58-.67,1.89,1.89,0,0,1-.17-.75,1.4,1.4,0,0,1,.1-.54,1.54,1.54,0,0,1,.27-.45,2.61,2.61,0,0,1,.45-.37c.07,0,.23-.13.48-.26a2.64,2.64,0,0,1,.52-.17m1.93,2.27,0,0v0l-1-1.24-.7-.8a2,2,0,0,0-.9.63,1.47,1.47,0,0,0-.3.86,2,2,0,0,0,.08.35,1.17,1.17,0,0,0,.28.44,1.39,1.39,0,0,0,.51.34,1.94,1.94,0,0,0,.7.13,1.75,1.75,0,0,0,.83-.19,1.58,1.58,0,0,0,.59-.44m-1.19-2.57a.82.82,0,0,0,.41-.37,1.16,1.16,0,0,0,.15-.57,1,1,0,0,0-.21-.69.65.65,0,0,0-.52-.22.64.64,0,0,0-.45.16.59.59,0,0,0-.18.41,1,1,0,0,0,.19.54,3.39,3.39,0,0,0,.61.74"/><path class="cls-1" d="M0,110.42c.26,0,.42-.24.46-.6v-4.14c0-.46-.17-.72-.49-.78l2.16,0a2,2,0,0,1,1.13.31,1.08,1.08,0,0,1,.51,1,1.73,1.73,0,0,1-1.08,1.47c-.08,0-.12,0-.14.07,1.11,1.63,2.19,2.52,3.24,2.66l.3,0H4.73a1.85,1.85,0,0,1-1.48-.75c-.6-.77-1.08-1.38-1.46-1.83a2.13,2.13,0,0,0-.57,0l0,1.74c0,.45.16.71.48.77Zm2.9-4.21a1,1,0,0,0-.28-.8,1.28,1.28,0,0,0-.88-.25q-.5,0-.51.15v.09l0,2.1h.34a1.29,1.29,0,0,0,1-.36,1.44,1.44,0,0,0,.32-.93"/><path class="cls-1" d="M15.11,110.44s-.09,0-.19,0q-.66-.06-1.68-.06h-.87l-1.13,0c.33,0,.49-.31.49-.78v-4c0-.46-.16-.72-.49-.78h2.22l.56,0h.43l.35,0c.18,0,.27,0,.27,0v.89a.45.45,0,0,0-.31-.35,5.22,5.22,0,0,0-1.09-.17l-.43,0h-.56c-.09,0-.15,0-.18,0s0,.06,0,.13v1.78q0,.09.12.09h.51l1.12,0a.69.69,0,0,0,.51-.16.59.59,0,0,0,.18-.37v1.39c-.05-.3-.3-.47-.76-.47l-.68,0h-.92c-.05,0-.08,0-.08.06v1.83a.48.48,0,0,0,.45.49h.79a2.12,2.12,0,0,0,.54-.06,2,2,0,0,0,.77-.32.94.94,0,0,0,.32-.39l-.17,1.1,0,0Z"/><path class="cls-1" d="M24.15,108.07a1.27,1.27,0,0,1,.4.87,1.53,1.53,0,0,1,0,.36,1.16,1.16,0,0,1-.16.4,1.93,1.93,0,0,1-.28.36,1.26,1.26,0,0,1-.29.21,2.4,2.4,0,0,1-1.36.23,2.14,2.14,0,0,1-1.33-.41V109a2.27,2.27,0,0,0,.67.8,1.49,1.49,0,0,0,.81.31c.58,0,1-.09,1.13-.42a.27.27,0,0,1,0-.1,2.34,2.34,0,0,0,.07-.32.93.93,0,0,0-.23-.65,6.51,6.51,0,0,0-1-.76,5.49,5.49,0,0,1-1.25-1,1.24,1.24,0,0,1-.32-1,1.15,1.15,0,0,1,.55-1,1.88,1.88,0,0,1,1.29-.31,3.43,3.43,0,0,1,1,.22c.27.11.39.2.38.3v.27c0,.17,0,.4,0,.69,0,.08,0,0-.18-.24a2.25,2.25,0,0,0-.53-.59,1.58,1.58,0,0,0-.8-.27,1.11,1.11,0,0,0-.71.15.64.64,0,0,0-.29.56.86.86,0,0,0,.21.64,3.61,3.61,0,0,0,.86.64c.33.2.6.38.82.54a3.59,3.59,0,0,1,.52.44"/><path class="cls-1" d="M36.18,107.79a2.7,2.7,0,0,1-.91,2.08,3.26,3.26,0,0,1-4.28,0,2.64,2.64,0,0,1-.91-2.1,2.67,2.67,0,0,1,.94-2.07,3,3,0,0,1,2.13-.84,3,3,0,0,1,2.15.82,2.69,2.69,0,0,1,.88,2.07m-.88.16a2.67,2.67,0,0,0-.67-1.93,2.17,2.17,0,0,0-1.69-.69,1.91,1.91,0,0,0-.8.16,2.07,2.07,0,0,0-.62.48,2.12,2.12,0,0,0-.41.74,2.67,2.67,0,0,0-.15,1,2.83,2.83,0,0,0,.64,2,2.24,2.24,0,0,0,1.71.68,1.75,1.75,0,0,0,1.43-.65A2.57,2.57,0,0,0,35.3,108"/><path class="cls-1" d="M41.84,110.42c.26,0,.41-.24.45-.6v-4.14q0-.69-.48-.78l2.16,0a2,2,0,0,1,1.13.31,1.08,1.08,0,0,1,.51,1,1.75,1.75,0,0,1-1.08,1.47c-.08,0-.13,0-.15.07,1.12,1.63,2.19,2.52,3.24,2.66l.31,0h-1.4a1.86,1.86,0,0,1-1.48-.75c-.59-.77-1.08-1.38-1.45-1.83a2.13,2.13,0,0,0-.57,0v1.74c0,.45.16.71.48.77Zm2.9-4.21a1,1,0,0,0-.28-.8,1.33,1.33,0,0,0-.89-.25c-.32,0-.49,0-.49.15v.09l0,2.1h.34a1.28,1.28,0,0,0,1-.36,1.39,1.39,0,0,0,.33-.93"/><path class="cls-1" d="M58.45,104.84v1.38h-.06a3.29,3.29,0,0,0-.65-.77,2,2,0,0,0-1.16-.24h-.31a.25.25,0,0,0-.19.06.19.19,0,0,0,0,.08v4.26a.71.71,0,0,0,.12.41.93.93,0,0,0,.51.34v0s-.08.05-.2.05a16.26,16.26,0,0,0-1.73,0c-.09,0-.14,0-.17-.07a.66.66,0,0,0,.48-.2.61.61,0,0,0,.22-.45v-4.34a.13.13,0,0,0-.09-.13h-.44a2,2,0,0,0-1.16.24,3.21,3.21,0,0,0-.65.76h0v-.63c0-.22,0-.48,0-.74l2.37,0Z"/><path class="cls-1" d="M85.66,108.07a1.31,1.31,0,0,1,.4.87,1.53,1.53,0,0,1,0,.36,1.16,1.16,0,0,1-.16.4,2,2,0,0,1-.29.36,1.08,1.08,0,0,1-.29.21,2.35,2.35,0,0,1-1.35.23,2.17,2.17,0,0,1-1.34-.41V109l0,0v0a2.37,2.37,0,0,0,.67.8,1.52,1.52,0,0,0,.81.31c.59,0,1-.09,1.13-.42a.42.42,0,0,1,.05-.1,2.67,2.67,0,0,0,.06-.32.92.92,0,0,0-.22-.65,7.07,7.07,0,0,0-1-.76,5.62,5.62,0,0,1-1.26-1,1.24,1.24,0,0,1-.32-1,1.2,1.2,0,0,1,.55-1,1.91,1.91,0,0,1,1.3-.31,3.29,3.29,0,0,1,1,.22c.28.11.41.2.38.3v.27c0,.17,0,.4,0,.69,0,.08,0,0-.17-.24a2.54,2.54,0,0,0-.55-.59,1.54,1.54,0,0,0-.79-.27,1.17,1.17,0,0,0-.72.15.69.69,0,0,0-.29.56.87.87,0,0,0,.22.64,3.4,3.4,0,0,0,.86.64c.32.2.6.38.82.54a3.59,3.59,0,0,1,.52.44"/><path class="cls-1" d="M93.3,110.4H91.61c.26,0,.42-.24.46-.59v-4.13c0-.46-.16-.72-.49-.78l2.17,0a2,2,0,0,1,1.12.31,1.06,1.06,0,0,1,.52,1,1.75,1.75,0,0,1-1.08,1.49.63.63,0,0,1-.2.09l-.19.07-.15,0a1.17,1.17,0,0,1-.39,0h-.33a1.57,1.57,0,0,0-.24,0v1.74c0,.46.16.72.49.77Zm1.21-4.21v0a1.11,1.11,0,0,0-.08-.46.48.48,0,0,0-.2-.28v0a1.29,1.29,0,0,0-.87-.25c-.33,0-.49,0-.51.15v.09l0,2.1h.35a1.5,1.5,0,0,0,.49-.06h0a1,1,0,0,0,.48-.3,1.4,1.4,0,0,0,.33-.92Z"/><path class="cls-1" d="M101.33,110.42h-1v0a.46.46,0,0,0,.32-.19,2.67,2.67,0,0,1,.24-.32,11.13,11.13,0,0,0,.58-1.16c.17-.34.3-.64.42-.9l.29-.67c.43-1,.79-2,1.09-2.77.39.92.76,1.81,1.14,2.69s.76,1.72,1.15,2.55a1.66,1.66,0,0,0,.32.55.85.85,0,0,0,.43.22v0h-1.33c-.13-.31-.24-.61-.34-.86s-.18-.46-.25-.64h-2.46Zm2.85-1.89s-.11-.25-.28-.68l-.8-1.92L102,108.59h2.2Z"/><line class="cls-2" y1="114.57" x2="106.26" y2="114.57"/><path class="cls-1" d="M48.59,121.34A1.94,1.94,0,0,1,50,120.4c.86,0,1.11,1.13,2.18.69a1.66,1.66,0,0,1-1.32.53c-.55-.06-.92-1.41-2.28-.28"/><path class="cls-1" d="M49.51,47.15c0,.73,0,1.35,0,1.87h-.05a4.26,4.26,0,0,0-.89-1A2.8,2.8,0,0,0,47,47.65h-.44c-.14,0-.22.05-.23.1s0,0,0,.09v5.75a.9.9,0,0,0,.17.55,1.22,1.22,0,0,0,.3.3,1.21,1.21,0,0,0,.4.17s0,0,0,0a.61.61,0,0,1-.29,0c-1,0-1.78,0-2.33,0a.3.3,0,0,1-.23,0,1.2,1.2,0,0,0,.68-.29.88.88,0,0,0,.29-.59l0-5.9a.19.19,0,0,0-.11-.18h-.62A2.63,2.63,0,0,0,43,48a3.94,3.94,0,0,0-.89,1h0c0-.51,0-1.14,0-1.86h3.22Z"/><path class="cls-1" d="M58.75,54.64h-2.3a.67.67,0,0,0,.48-.31,1.38,1.38,0,0,0,.17-.73V51.47a.77.77,0,0,0-.06-.33.35.35,0,0,0-.27-.08h-4c-.17,0-.28,0-.32.07a.57.57,0,0,0-.06.32v2.14a1.38,1.38,0,0,0,.17.73.7.7,0,0,0,.47.31h-2.3a.67.67,0,0,0,.47-.31,1.38,1.38,0,0,0,.17-.73v-5.3h0a1.38,1.38,0,0,0-.17-.73.62.62,0,0,0-.48-.3H53v0a.65.65,0,0,0-.48.35,2.41,2.41,0,0,0-.18,1v1.49a.34.34,0,0,0,.39.39h4a.58.58,0,0,0,.29,0,.65.65,0,0,0,.08-.38V48.29h0a1.27,1.27,0,0,0-.17-.73.66.66,0,0,0-.48-.31h2.33a.64.64,0,0,0-.48.34,2.43,2.43,0,0,0-.19,1v5a1.38,1.38,0,0,0,.17.73.67.67,0,0,0,.47.31Z"/><path class="cls-1" d="M65.75,54.66h-.24c-.6,0-1.34,0-2.27,0H60.53a.65.65,0,0,0,.47-.31,1.25,1.25,0,0,0,.18-.73V48.26h0v0a1.29,1.29,0,0,0-.18-.73.61.61,0,0,0-.47-.3v0h2.15l1.6,0h.08l1,0c.25,0,.37,0,.37,0v.19l0,1h0a.54.54,0,0,0-.11-.27.87.87,0,0,0-.31-.2,2.17,2.17,0,0,0-.56-.14c-.23,0-.53-.06-.9-.08H62.46a.36.36,0,0,0-.25.06.49.49,0,0,0,0,.17v2.38c0,.09.05.14.17.14h2.21a.86.86,0,0,0,.66-.22.88.88,0,0,0,.27-.52h0c0,.31,0,.93,0,1.88h0a.67.67,0,0,0-.31-.47,1.32,1.32,0,0,0-.73-.17c-.49,0-1.22,0-2.18,0-.07,0-.1,0-.1.07v2.5c0,.35.21.56.61.65a9.87,9.87,0,0,0,1.07,0,2.86,2.86,0,0,0,.75-.09,3.56,3.56,0,0,0,1-.43,1.17,1.17,0,0,0,.43-.54h0l-.23,1.51,0,.06Z"/><path class="cls-1" d="M47,75.29H40.21l-3.52,8.79a4.94,4.94,0,0,0-.37,1.16c0,.35.27.52.78.52V86H33.64v-.24a2,2,0,0,0,1.17-.34,4.35,4.35,0,0,0,1-1.76l8.43-21.27h.42L53,82.94a10.91,10.91,0,0,0,.64,1.49,2.07,2.07,0,0,0,1.95,1.33V86H50.14v-.24c.49,0,.75-.19.75-.59a3.69,3.69,0,0,0-.37-1.26.53.53,0,0,1-.11-.2,1.47,1.47,0,0,0,0-.16Zm-6.61-.65h6.29l-3.13-7.92Z"/><path class="cls-1" d="M56.13,86v-.24a1.81,1.81,0,0,0,1.41-.41,2.32,2.32,0,0,0,.32-1.4v-19a3.11,3.11,0,0,0-.25-1.46c-.17-.31-.68-.46-1.51-.48v-.24h6.23V63a2.42,2.42,0,0,0-1.22.22,1,1,0,0,0-.45.52,5.19,5.19,0,0,0-.11,1.36V81.4a3.69,3.69,0,0,0,1,3,5.29,5.29,0,0,0,3.45.87h2.84a3.93,3.93,0,0,0,3-1c.64-.67,1-1.94,1.06-3.8h.25V86Z"/><path class="cls-1" d="M95.78,62.74h3.68V63a1.75,1.75,0,0,0-1.87,2,7.62,7.62,0,0,0,.1,1.09l2.45,17.62a4.42,4.42,0,0,0,.49,1.68,1.56,1.56,0,0,0,1.14.45V86H96.55v-.24a.89.89,0,0,0,1-1c0-.16,0-.46-.1-.93L95.11,66.75,86.78,86h-.17L78.23,66.78,75.87,84a6,6,0,0,0-.06.89c0,.61.35.91,1.06.91V86H73.33v-.24a1.71,1.71,0,0,0,1-.2,1.24,1.24,0,0,0,.35-.63,7.25,7.25,0,0,0,.19-1l2.67-18.79a3.6,3.6,0,0,0-1.31-1.88A2.86,2.86,0,0,0,75,63v-.23H79.4l8.17,19Z"/><path class="cls-1" d="M36.26,55.13l1.56,4.41H37.4a19.46,19.46,0,0,0-14.23-6q-8.51,0-13.73,5.06A16.33,16.33,0,0,0,4.2,70.81,27.63,27.63,0,0,0,6.53,81a21.69,21.69,0,0,0,7.35,9.48A19.93,19.93,0,0,0,26.06,94.2a28.48,28.48,0,0,0,9.2-1.51,14.91,14.91,0,0,0,6.71-4l.36.11-2.9,4.46c-4.71,1-7.77,1.62-9.17,1.82a46.16,46.16,0,0,1-5.64.28q-13.07,0-18.72-6.07A20.57,20.57,0,0,1,.27,74.74a22.49,22.49,0,0,1,2.9-11,20.91,20.91,0,0,1,8.34-8.31,25.24,25.24,0,0,1,12.46-3,25.54,25.54,0,0,1,6.06.64,32.86,32.86,0,0,1,4.26,1.32l1.86.71a.19.19,0,0,1,.11.05"/><path class="cls-3" d="M72.12,31.12a1.3,1.3,0,0,0-1.58-.45,1.6,1.6,0,0,0-.9,1.21c.27-.38,1-.73,1.32-.4s-.26,1.19-1.22,1S66.84,30.61,65,30A8.22,8.22,0,0,0,59,30a3.49,3.49,0,0,0-2.28,3.38c.18,1.57,1.84,2.3,3.54,2.28s3.49-1.24,3.75-2.64-1.8-2.6-4-1.82-2.21,2.71-.66,2.92a1.85,1.85,0,0,0,2.16-1.06s-.17.1-.48-.15-.54-.5-1-.35-.64.44-.82.11.61-1,1.49-1,2.08.67,2.19,1.4-.62,2.29-2.78,2.2a2.38,2.38,0,0,1-2.46-2.89c.52-1.34,2-2.12,4.05-2.15s3.55,1.13,4.9,1.95a6.39,6.39,0,0,0,4.41.93c1.08-.37,1.43-1.59,1.11-2M60.68,33.29c.06.15-.13.43-.46.54a.83.83,0,0,1-.68-.13,1.91,1.91,0,0,0,1.14-.41m6.11-1.74c-.18-.24.23-.09.41.06a13.84,13.84,0,0,0,1.72,1.15,3.42,3.42,0,0,1-2.13-1.21M71,31.2c-.25-.05-.46-.15-.69,0a.54.54,0,0,1,.54-.28c.41,0,.4.32.15.26"/><path class="cls-3" d="M27.8,25.71c0-.15-.09.45.44,1.14a4,4,0,0,0,3.41,1.52c.55-.09,1.24-.44,1.11-1.09a1.5,1.5,0,0,0-2.1-.76c-.27.17-.32.4-.22.4s.31-.18.41-.21a.74.74,0,0,1,.68,0,.57.57,0,0,1-.1,1,2.45,2.45,0,0,1-2-.19,2.74,2.74,0,0,1-1.62-1.8"/><path class="cls-3" d="M69.21,26.06s-.11.07-.06.17a.84.84,0,0,0,.5.49.61.61,0,0,0,.8-.45.87.87,0,0,0-.2-.78.94.94,0,0,0-1.09-.4,1.17,1.17,0,0,0-.8,1.55c.26.77,1.08,1.16,1.41,1.53a1.15,1.15,0,0,1-.12,1.8c-.83.61-1.84.62-2.27-.13a1.11,1.11,0,0,0,1-.19c.19-.18.25-1.24,1.16-1.14a1.93,1.93,0,0,0-2.09-.06,1.23,1.23,0,0,0,0,2,2.76,2.76,0,0,0,2.89,0c1-.63.64-1.94-.13-2.7s-1.66-1.1-1.59-1.63a.76.76,0,0,1,1.09-.56.36.36,0,0,1,0,.63.44.44,0,0,1-.51-.11"/><path class="cls-3" d="M70.14,27.67s-.12,0-.1-.32a.53.53,0,0,1,.61-.48.72.72,0,0,1,.61.73.4.4,0,0,1-.42.42c-.09,0-.36-.09-.41-.3s0-.1.08-.07.28.11.37-.07a.4.4,0,0,0-.33-.53c-.3,0-.63.41-.14.9-.13.15-.27-.28-.27-.28"/><path class="cls-3" d="M78,30.18a.77.77,0,0,1-.39.55,1,1,0,0,1-1.28-.08.65.65,0,0,1,0-.91,1.27,1.27,0,0,1,1.16-.36c.45.11.75.72,1.1.68s.43-.28.5-.27-.08.39-.41.44a1.48,1.48,0,0,1-1-.37.55.55,0,0,0-.78,0c-.18.23.14.56.45.52S78,30,78,30.18"/><path class="cls-3" d="M72.47,27.42a1.09,1.09,0,0,0-.89.54,1.15,1.15,0,0,0,.7,1.64,2.64,2.64,0,0,0,2.78-.3,1,1,0,0,0-.37-1.6,1.27,1.27,0,0,0-1.68,1c.26-.22.92-.53,1.31-.15s0,1.16-.94,1.13a1.69,1.69,0,0,1-1.58-.74.86.86,0,0,1,.39-1.17c.22-.1.51-.31.28-.32"/><path class="cls-3" d="M79.23,28.36a.6.6,0,0,0-.47.29c-.16.25-.1.65.37.87a1.4,1.4,0,0,0,1.47-.16.51.51,0,0,0-.2-.85c-.29-.09-.85,0-.89.51.14-.11.49-.28.69-.07s0,.61-.5.6a.91.91,0,0,1-.83-.4.46.46,0,0,1,.2-.62c.12-.05.28-.16.16-.17"/><path class="cls-3" d="M74.29,30.74c-.1-.42.54-.52.73-.22.57.9-1.15,1.63-1.74,1-.28-.3-.29-1.37,1.21-1.84a1.8,1.8,0,0,0-1.34.72,1.08,1.08,0,0,0,.39,1.76,1.74,1.74,0,0,0,2.1-.87c.6-1.47-1.64-1.83-1.35-.53"/><path class="cls-1" d="M51.94,27.69c-3.49.67-3.6,4.31-1.1,4.95s3.4-2.2,3.4-2.2c-.79.25-.67,0-2-.51a2.57,2.57,0,0,0-2.51.72,2.19,2.19,0,0,1,1.21-1.76c2.17-1,4,.82,3.46,2.52-.77,2.3-3.59,3.41-5.76,3.12a2.58,2.58,0,0,1-2.07-1.23c-.66-1.31.85-1.79,1.63-1.63a2.75,2.75,0,0,0-.94-.1,1.29,1.29,0,0,0-1.32,1.51c.33,2.11,4.82,3,7.51,1.08,3.89-2.75,1.8-7.1-1.51-6.47m1.13,3.09a3.54,3.54,0,0,0-2.85.46,1.92,1.92,0,0,1,2.85-.46"/><path class="cls-1" d="M29.13,15.89a5.33,5.33,0,0,0-3.61-1c.25-.21.12-.5-.48-.62a1.73,1.73,0,0,0-1.48.46c.48-.37,1-.19,1,0s-.32.41-1.18.56a18.6,18.6,0,0,1-3.75.24A6.4,6.4,0,0,1,17.39,15c1.76,1.6,4.72,1,6.29.81a8.9,8.9,0,0,0-2,.09,7.39,7.39,0,0,1-2.27-.24c1,.36,2.93,0,4.21-.12,2.59-.27,3.9.77,4.24,2.09a1.53,1.53,0,0,1-1.49,2.09c-1.28-.29-.71-1.22-1.36-1.95a1.73,1.73,0,0,0-1.28-.47c-.48,0-.53-.45-.54-.69a2,2,0,0,0,0,1.91,3.74,3.74,0,0,0,5.12,1.22,1.68,1.68,0,0,0,.46-2.33c.57,0,.89.8.91,1.15a2.53,2.53,0,0,0-.53-2.68M25,19.09a1.53,1.53,0,0,0-1.2-1.4,1.06,1.06,0,0,1,1.2,1.4m2.78.37a1.6,1.6,0,0,0,.56-1.72,1.16,1.16,0,0,1-.56,1.72"/><path class="cls-1" d="M6.13,1.24A.32.32,0,0,1,6.47,1c.07.22.25.17.35.07s0-.45-.31-.4-.56.46-.38.59"/><path class="cls-1" d="M7.12.7a.25.25,0,0,1,.3.11c-.1.13,0,.22.1.25S7.8.91,7.63.71,7.14.55,7.12.7"/><path class="cls-1" d="M7.12.28a.22.22,0,0,1,.3-.06c0,.15.11.18.22.15S7.8.09,7.55,0,7,.14,7.12.28"/><path class="cls-1" d="M7.93.93A.19.19,0,0,1,8.09.72c.07.11.17.06.22,0S8.26.42,8.05.52,7.8.89,7.93.93"/><path class="cls-1" d="M8.48.58a.67.67,0,0,1,.63-.4c.48,0,.6.42.42.6s-.42.06-.4-.1.25,0,.25-.15-.53-.39-.9,0"/><path class="cls-1" d="M8.51,1.3A.41.41,0,0,1,8.9,1c.31,0,.39.27.27.38s-.27,0-.25-.06.16,0,.16-.09-.34-.25-.57,0"/><path class="cls-1" d="M9.85.53a.84.84,0,0,0,.78.29c.52-.06.52-.34.43-.43s-.18,0-.22.09-.41.07-.34-.17A.41.41,0,0,1,11.08,0a.43.43,0,0,1,0,.82C10.66,1.11,10,1,9.85.53"/><path class="cls-1" d="M56.21,21.85a.92.92,0,0,0-.92,0c-.52.25-.42.53-.3.61s.18-.1.2-.19.41-.21.42.07-.16.49-.52.5a.49.49,0,0,1-.32-.86c.39-.43,1.15-.53,1.44-.1"/><path class="cls-1" d="M11,1.53a1,1,0,0,1,.72.52s.17.44-.15.57-.44-.22-.27-.36,0-.18-.14-.12a.4.4,0,0,0-.11.67.62.62,0,0,0,1-.47c0-.6-.72-.84-1.09-.81"/><path class="cls-1" d="M56.71,24a1.49,1.49,0,0,1,.68-1.09s.62-.29.82.17-.25.66-.48.41c-.1-.09-.26,0-.15.23a.56.56,0,0,0,1,.09.91.91,0,0,0-.77-1.47c-.85,0-1.14,1.13-1.06,1.66"/><path class="cls-1" d="M10.59,1.58a1.48,1.48,0,0,0-1.06.24.49.49,0,0,0,.31.86c.43,0,.62-.23.59-.36s-.56.05-.58-.24.39-.48.74-.5"/><path class="cls-1" d="M10.19,3.92a.64.64,0,0,1,.69-.34c.54,0,.58.52.39.68s-.62,0-.55-.21.16,0,.33,0-.21-.69-.86-.12"/><path class="cls-1" d="M47.75,27a2.78,2.78,0,0,0-3.15.18,1.16,1.16,0,0,0-.23,1.6c-.53-1,.8-2,2.1-1.74a1.17,1.17,0,0,1,.91,1.8,2.1,2.1,0,0,0-2.15-.72c.4.29,0,.55.24,1.32.17.54,1,.92,2,.58a1.71,1.71,0,0,0,.28-3m-1.64,2.8c-.59-.34-.53-1.37-.22-1.21a.68.68,0,0,1,.2.52c0,.23,0,.64.54.65a1.63,1.63,0,0,0,1.25-.51c-.41.45-1.17.89-1.77.55"/><path class="cls-1" d="M43.06,29.92s.09.62-.44.47-.39,0-.71.17-.73,0-.82.5a1.27,1.27,0,0,1-.59-1,1.66,1.66,0,0,1,2-1.76,1.85,1.85,0,0,1,1.59,2.55c-.38,1.16-2.77,1.74-4,1.37,0,0,4-.15,3-2.34"/><path class="cls-1" d="M45.16,31.45c-.26.81-1.75.49-1.71-.36s1.59-1.26,2.48-.42.18,1.7-.48,2.18a3.64,3.64,0,0,1-3.3.26,2.64,2.64,0,0,0,2.91-.68c.28-.33.57-.84.28-1.28-.17-.27-.85-.5-1-.13s.49.69.81.43"/><path class="cls-1" d="M40.22,30.35s-.4,1.61-2.55,1.26c0,0,2.06.92,3.28-.41a1,1,0,0,1-.73-.85"/><path class="cls-1" d="M32.54,25.09s-.43-1.63,1.08-1.54c2,.1.26,4.08-3.15,1.62a3.43,3.43,0,0,0,3.8.78,2.07,2.07,0,0,0-1-4,1.64,1.64,0,0,0-1.32,2.43,2.39,2.39,0,0,0,.63.71"/><path class="cls-1" d="M26.91,21.05a2,2,0,0,0,2,1.42c1.55-.09.64-1.6-.34-1,0,0,1.24-1.11,2.1-.12s-.73,3.23-2.88,1.59a2.25,2.25,0,0,1-.86-1.89"/><path class="cls-1" d="M26.77,23.23a.93.93,0,0,0-1.13.45c-.4-.77.48-1.16.48-1.16a1.1,1.1,0,0,0-.65.33,1,1,0,0,0-.3.66.73.73,0,0,0,.71.81,1.16,1.16,0,0,0,1.07-.4.42.42,0,0,0-.18-.69m-.6.64c-.12.05-.25.06-.27,0s.08-.12.2-.18.26-.07.28,0-.08.13-.21.19"/><path class="cls-1" d="M27.26,25s-.06-.1-.09-.25a.87.87,0,0,1,.56-1c.86-.33,1.12.64,1.12.64s-.42,0-.46.25a.41.41,0,0,1-.67.21c-.19-.19-.35.26-.46.15"/><path class="cls-1" d="M29.79,25.4c0,.23-.29.43-.64.43s-.65-.2-.65-.43.29-.44.65-.44.64.19.64.44"/><path class="cls-1" d="M25,20.33c-1.58-1.17-3.16-.18-3.1.58s1.13.65,1.13.65,0,1.3,1.74,1.23c1.07-.05,1.82-1.28.23-2.46m-2.25.54c-.1,0-.21.12-.32.07a.22.22,0,0,1-.11-.25c0-.23.27-.39.45-.47a1.33,1.33,0,0,1,.71-.08,2.38,2.38,0,0,1,.52.15c.48.19,1.29.8.77,1.38a.58.58,0,0,1-.44.24c-.31,0-.36-.24-.47-.45,0,0,0-.06-.05-.09-.36-.94-1.06-.5-1.06-.5"/><path class="cls-1" d="M20.8,16.56a1.34,1.34,0,0,0-.93,1.15.65.65,0,0,0,.39.67c.12.05.39.06.45.19s-.32.45-.46.47a.85.85,0,0,0,1-.15c.42-.53-.13-1-1-1.28,0,0,1.71-.25,1.83,1s-1.52,2-2.57.84a1.73,1.73,0,0,1,1.25-2.85"/><path class="cls-1" d="M17,12.37a1.16,1.16,0,0,0,.36,1.53s-.43-1.17.13-.62c0,0,.28.46.43.41s-.18-.71.63-.83c.58-.09,1.57.22,1.41,1.2-.13.78-1.22,1-1.22,1a2.54,2.54,0,0,0,1.23-.25A1.5,1.5,0,0,0,20.66,13a2,2,0,0,0-3.71-.6m2.08,0a.72.72,0,0,0-.59-.28.91.91,0,0,0-.23.08.46.46,0,0,1,.23-.08,1.1,1.1,0,0,1,1.32.56s-.26.2-.73-.28"/><path class="cls-1" d="M16.21,9.21a1.65,1.65,0,0,0-.48,1.25.76.76,0,0,0,.81.62.36.36,0,0,0,.06-.71.66.66,0,0,0-.31,0c-.54.23.36-.9,1.25-.24a.75.75,0,0,1-.08,1.2,1.4,1.4,0,0,1-1.63.12,1.19,1.19,0,0,1-.48-1.22,2,2,0,0,1,.86-1"/><path class="cls-1" d="M15,8.28a.6.6,0,0,1,.27-.4c.64-.35,1.41.14,1.28.63s-1.09.86-1.76.6c-1.38-.55-.49-1.85.17-2,0,0-.91,1.23,0,1.44s.85-.74,0-.26"/><path class="cls-1" d="M57,30.13s0-1,.84-.82.18,1.32.18,1.32l1.07-.49s.53-1.2-1-1.56S56.3,29.91,57,30.13"/><path class="cls-1" d="M54.77,33.7a4.57,4.57,0,0,0-2.3,1,3.33,3.33,0,0,1,2-.56c-.36,0-1,.93.11.93s1.36-1.38.23-1.37m-.15.87c-.11,0,0-.21.1-.32s0-.17,0-.17.39,0,.42.21-.35.3-.47.28"/><path class="cls-1" d="M80.14,27.43s-.45.28-.92.6a1.8,1.8,0,0,1-2,.07,1.44,1.44,0,0,1,.18-2.42c1.55-1.19,5.11.6,7,.14,1.22-.3.22-1.25-1.16-1a2.39,2.39,0,0,1,2.24-.15c.57.35.17,1-.9,1.37-1.26.41-2.94.12-4.57.18-.73,0-2.71.18-2.49,1.11,0,0,.2.56.49.28a1.33,1.33,0,0,1,1.41-.35.88.88,0,0,0,.75.16"/><path class="cls-1" d="M81.15,27.1a.28.28,0,0,1-.17,0,.35.35,0,0,1-.22-.07.36.36,0,0,1-.18-.23.4.4,0,0,1,0-.19v-.05h0v-.05l0-.07a.41.41,0,0,1,.4-.23.75.75,0,0,1,.69.45.64.64,0,0,1,0,.47.33.33,0,0,1-.06.1l0,.06,0,0s-.06.08-.13.12a.8.8,0,0,1-.39.11,1.07,1.07,0,0,1-.32-.07,1.61,1.61,0,0,1-.38-.21l-.12-.13a0,0,0,0,1,0,0s0,0,0,0h0l.14.07a1.36,1.36,0,0,0,.37.11H81a.47.47,0,0,0,.19-.07s.08-.07.11-.1l0,0h0l0-.05a.2.2,0,0,0,0-.2.5.5,0,0,0-.36-.28.34.34,0,0,0-.14,0l0,.07h0v0s0,.06,0,.08A.32.32,0,0,0,81,27c.06,0,.15,0,.15,0s0,0,0,0,0,0,0,0"/><path class="cls-1" d="M80.48,28a1.37,1.37,0,0,0,.64.19,2.23,2.23,0,0,0,.67,0l.36-.12a.61.61,0,0,0,.25-.17.31.31,0,0,0,.06-.22.22.22,0,0,0-.12-.11l0,0-.07,0h-.07a.24.24,0,0,0-.13.1.22.22,0,0,0,0,.25l.11.09.17.11a.17.17,0,0,1,0,.23.16.16,0,0,1-.22,0,.16.16,0,0,1-.06-.17.43.43,0,0,1-.24-.08.53.53,0,0,1-.2-.27.63.63,0,0,1,0-.42A.71.71,0,0,1,82,27a.63.63,0,0,1,.31,0l.13,0s.09,0,.12.05a.66.66,0,0,1,.38.5.77.77,0,0,1-.18.58,1.18,1.18,0,0,1-.45.28,2.61,2.61,0,0,1-.46.08,3.06,3.06,0,0,1-.77-.07,1.59,1.59,0,0,1-.49-.24.62.62,0,0,1-.15-.14h0s0,0,0-.05h0"/><path class="cls-1" d="M82.46,26.65s0-.06.13-.17a1.82,1.82,0,0,1,.45-.31,2.15,2.15,0,0,1,.74-.22,2.26,2.26,0,0,1,.45,0,1.06,1.06,0,0,1,.5.2.71.71,0,0,1,.29.53.67.67,0,0,1-.28.57s-.08,0-.12.07l-.11,0a.71.71,0,0,1-.32,0,.67.67,0,0,1-.42-.28.53.53,0,0,1-.11-.41.47.47,0,0,1,.14-.29.61.61,0,0,1,.21-.13.18.18,0,0,1,.09-.21.16.16,0,0,1,.21.1.16.16,0,0,1,0,.17l-.16.14a.5.5,0,0,0-.08.12c0,.07,0,.15.07.23a.24.24,0,0,0,.16.07h0l.08,0,0,0a.17.17,0,0,0,.1-.13.28.28,0,0,0-.1-.2.61.61,0,0,0-.28-.12,1.42,1.42,0,0,0-.36-.05,2,2,0,0,0-.67.08,1.25,1.25,0,0,0-.6.3,0,0,0,0,1-.06,0,.06.06,0,0,1,0,0Z"/><path class="cls-3" d="M89.71,20.56a.87.87,0,0,0-1,0c-.31.34-.26.6,0,1.5a1.55,1.55,0,0,1-1.64,2,.91.91,0,1,1,.12-1.81c-.17.15-.35.5-.07.64s.86-.24,1-.57a7.06,7.06,0,0,0,0-1.38c.11-.82,1-.95,1.55-.39"/><path class="cls-3" d="M90.13,18.24a1,1,0,0,1-.7-1.08.92.92,0,0,1,.75-.92l1.37-.36c.53,1.12-1.24.79-1.47,1.62a3.61,3.61,0,0,0,0,.74"/><path class="cls-3" d="M92.43,14.53c0,.22-.27.44-.43.54a.94.94,0,0,1-.89,0,.59.59,0,0,1-.23-.78c.06-.12.28-.37.42-.36s.35.33.61.37.4,0,.48.1l0,.08"/><path class="cls-3" d="M93,13.05c-.55,0-.78-1.08,0-1,.16,0,.65.21.65.41s-.41.48-.55.53l-.12,0"/><path class="cls-3" d="M92.25,13.88a.25.25,0,0,1-.12,0c-.13,0-.39-.25-.4-.38a.91.91,0,0,1,.43-.57c.12,0,.66.29.62.38s-.29.54-.53.58"/><path class="cls-1" d="M35.4,29.08A1.42,1.42,0,0,1,37,27.83,1.63,1.63,0,0,1,36.43,31c-2.38.19-3-2.2-2-3.8a3.51,3.51,0,0,1,6.14.86,4.71,4.71,0,0,1,.18.5,1.62,1.62,0,0,0-.61,1.24,3.58,3.58,0,0,0-2.3-2.71c-2-.6-3.42.8-3.15,2.3.08.53.46,1.19,1.06,1.22,1.26.08,1-2.4-.39-1.54"/><path class="cls-1" d="M14.63,4.85a1.64,1.64,0,0,0-1.56-2.33,1.38,1.38,0,0,0-.91.37,1.77,1.77,0,0,0-.37,1.36c0-.11.22-.38.29-.45A1.21,1.21,0,0,1,13,3.32c.65,0,1.29.44,1.12,1.15a1.21,1.21,0,0,1-.05.18A.94.94,0,0,0,13.8,4c0,1.26-.88.87-.65.79s.2-.25.12-.42.14-.38.14-.38c-.28,0-1.38.29-1,1a1.19,1.19,0,0,0,1.29.51,1.2,1.2,0,0,0,.94-.7M12.4,3.15c0,.1,0,.23-.2.24a.51.51,0,0,0-.33.23s0-.51.74-.71c0,0-.21.14-.21.24"/><path class="cls-1" d="M14.3,5.66s-.08-1.38,1.25-1.16c1.17.19.72,1.82-.59,2.17,0,0,.7-1.08.2-1.42s-.86.41-.86.41"/><path class="cls-1" d="M58.85,27.25a1,1,0,0,1,1.07-.43c.64.22.18,1.39-.9,1.14,0,0,1.48.71,2-.55s-1.36-1.91-2.19-.16"/></g></g></svg>