<?xml version="1.0" encoding="utf-8"?>
<!-- Generator: Adobe Illustrator 16.0.0, SVG Export Plug-In . SVG Version: 6.00 Build 0)  -->
<!DOCTYPE svg PUBLIC "-//W3C//DTD SVG 1.1//EN" "http://www.w3.org/Graphics/SVG/1.1/DTD/svg11.dtd" [
	<!ENTITY ns_extend "http://ns.adobe.com/Extensibility/1.0/">
	<!ENTITY ns_ai "http://ns.adobe.com/AdobeIllustrator/10.0/">
	<!ENTITY ns_graphs "http://ns.adobe.com/Graphs/1.0/">
	<!ENTITY ns_vars "http://ns.adobe.com/Variables/1.0/">
	<!ENTITY ns_imrep "http://ns.adobe.com/ImageReplacement/1.0/">
	<!ENTITY ns_sfw "http://ns.adobe.com/SaveForWeb/1.0/">
	<!ENTITY ns_custom "http://ns.adobe.com/GenericCustomNamespace/1.0/">
	<!ENTITY ns_adobe_xpath "http://ns.adobe.com/XPath/1.0/">
]>
<svg version="1.1" id="Layer_1" xmlns:x="&ns_extend;" xmlns:i="&ns_ai;" xmlns:graph="&ns_graphs;"
	 xmlns="http://www.w3.org/2000/svg" xmlns:xlink="http://www.w3.org/1999/xlink" x="0px" y="0px" width="165px" height="107px"
	 viewBox="96 0 165 107" enable-background="new 96 0 165 107" xml:space="preserve">
<metadata>
	<sfw  xmlns="&ns_sfw;">
		<slices></slices>
		<sliceSourceBounds  width="158.852" height="100.939" x="99.711" y="2" bottomLeftOrigin="true"></sliceSourceBounds>
	</sfw>
</metadata>
<title>Artboard 1</title>
<path fill="#FFFFFF" d="M143.419,38.981c-0.096,4.701-1.659,9.254-4.47,13.023c-2.63,3.965-6.301,7.129-10.609,9.148
	c-4.047,1.729-8.414,2.585-12.814,2.514c-3.446,0.155-6.878-0.525-10.003-1.987c-0.416-0.249-0.887-0.389-1.371-0.406
	c-0.835,0.123-1.631,0.428-2.335,0.894c-0.583,0.365-1.207,0.661-1.857,0.885c-0.12,0.017-0.23-0.066-0.248-0.187
	c-0.002-0.017-0.003-0.035-0.001-0.053c0.434-0.768,0.936-1.497,1.5-2.175c0.993-1.342,1.54-2.116,1.649-2.335
	c1.94-3.378,4.87-8.447,8.791-15.208c4.946-8.576,7.42-13.158,7.42-13.748c0-0.269-0.218-0.408-0.646-0.408
	c-1.664,0.056-3.323,0.218-4.966,0.487c-1.644,0.27-3.303,0.434-4.967,0.487c-0.993,0-1.451-0.438-1.451-1.291
	c0-0.696,0.279-1.133,0.408-1.054c0.313,0.188,0.646,0.337,0.994,0.448c0.771,0.253,1.573,0.4,2.384,0.437
	c0.537,0,1.769-0.05,3.706-0.159c1.073-0.049,2.424-0.109,4.033-0.159l7.679-0.228C137.694,27.906,143.419,31.598,143.419,38.981z
	 M139.555,38.495c0.137-3.304-1.658-6.386-4.6-7.897c-2.901-1.441-6.12-2.125-9.357-1.987c-0.947-0.116-1.887,0.259-2.494,0.994
	c-5.903,9.279-11.315,18.861-16.211,28.708c-0.177,0.305-0.286,0.643-0.317,0.994c0.017,0.383,0.189,0.739,0.477,0.992
	c1.828,1.878,4.629,2.822,8.384,2.822c8.125,0,14.391-3.119,18.794-9.357C137.781,48.697,139.555,43.608,139.555,38.495z"/>
<path fill="#FFFFFF" d="M167.936,49.382c-0.011,0.084-0.038,0.165-0.08,0.239c-2.423,3.311-5.033,4.966-7.828,4.966
	c-2.003,0.083-3.878-0.98-4.837-2.742c-3.119,6.106-6.268,9.908-9.447,11.405c-0.749,0.387-1.573,0.605-2.414,0.646
	c-1.51,0-2.285-0.993-2.334-3.139c-0.053-2.961,1.529-6.374,4.748-10.242c2.1-2.652,5.186-4.339,8.553-4.679
	c0.159-1.51,0.695-2.344,1.609-2.503c0.523-0.075,1.036-0.208,1.529-0.397c0.068-0.06,0.159-0.088,0.249-0.079
	c0.195-0.029,0.376,0.105,0.406,0.301c0.004,0.032,0.005,0.064,0.001,0.097c-0.328,0.804-0.675,1.857-1.053,3.148
	c-0.105,0.72-0.159,1.447-0.159,2.176c0,3.437,1.262,5.166,3.785,5.166s4.729-1.46,6.775-4.361c0.038-0.148,0.175-0.248,0.328-0.238
	C167.867,49.181,167.934,49.276,167.936,49.382z M154.545,50.187c-0.18-0.929-0.26-1.875-0.239-2.821v-0.725
	c-0.129-0.056-0.267-0.083-0.407-0.08c-2.334,0-4.818,2.334-7.48,6.854c-1.834,3.119-2.722,5.697-2.663,7.737
	c0,0.995,0.368,1.541,1.123,1.541c0.223-0.019,0.442-0.075,0.645-0.17c1.779-0.854,3.577-2.662,5.404-5.403
	C152.387,54.951,153.601,52.625,154.545,50.187z"/>
<path fill="#FFFFFF" d="M199.783,11.158c0,1.774-1.183,4.599-3.547,8.473c-5.094,8.66-12,16.115-20.245,21.854
	c-0.804,0.427-1.986,1.103-3.466,1.987c-5.106,8.503-7.659,14.095-7.659,16.778c0,1.719,0.785,2.583,2.345,2.583
	c1.949-0.176,3.829-0.813,5.483-1.857c3.769-2.177,7.015-5.15,9.516-8.712c0.209-0.209,0.348-0.318,0.397-0.318
	s0.249,0.08,0.249,0.239c-0.053,0.152-0.138,0.291-0.249,0.407c-2.21,2.747-4.725,5.235-7.5,7.411
	c-3.549,2.708-6.749,4.059-9.596,4.052c-2.573,0-3.864-1.201-3.864-3.625c0.081-1.829,0.635-3.605,1.61-5.155
	c1.569-2.53,4.364-7.262,8.384-14.196l0.993-1.699c3.55-6.178,6.908-11.741,10.073-16.688c1.771-2.881,3.968-5.477,6.516-7.699
	c2.368-2.098,5.049-3.811,7.946-5.076c0.356-0.163,0.743-0.247,1.134-0.248c0.696-0.121,1.36,0.346,1.482,1.043
	C199.811,10.859,199.81,11.011,199.783,11.158z M196.077,13.254c0-0.854-0.317-1.282-0.993-1.282
	c-0.696,0.086-1.332,0.442-1.77,0.993c-2.363,2.364-5.674,6.881-9.933,13.549c-1.721,2.65-4.758,7.352-9.108,14.106
	c-0.339,0.642-0.718,1.262-1.133,1.858c0.915-0.537,1.808-1.103,2.662-1.699c7.359-5.15,13.41-11.954,17.663-19.867
	c1.161-2.176,2.013-4.503,2.531-6.914C196.061,13.755,196.087,13.504,196.077,13.254z"/>
<path fill="#FFFFFF" d="M202.116,50.833c0,0.06,0,0.139-0.157,0.249c-4.734,6.239-11.644,10.47-19.352,11.852
	c0,0-1.987,0.426-5.88,1.121c-1.729,2.961-4.633,8.176-8.712,15.646c-1.987,3.921-5.629,10.875-10.927,20.861
	c-0.646,1.191-2.533,2.216-5.642,3.069c-1.669,0.483-3.324,0.94-4.966,1.37h-0.08c-0.209,0-0.318-0.079-0.318-0.238
	c0-0.158,0.129-0.378,0.398-0.486c2.271-0.931,4.373-2.234,6.218-3.854c1.73-1.779,3.246-3.751,4.52-5.881
	c2.212-3.43,8.321-13.578,18.328-30.445c-0.359-0.156-0.579-0.524-0.547-0.915c0-0.338,0.447-0.585,1.341-0.744l3.746-6.03
	c0.867-1.609,2.477-4.487,4.826-8.632c1.663-2.863,3.554-5.587,5.653-8.146c0.537-0.646,1.719-0.993,3.546-0.993
	c0.318,0,0.478,0.109,0.478,0.328c-0.043,0.15-0.125,0.288-0.239,0.397c-3.524,3.274-6.663,6.941-9.357,10.927
	c3.231-3.377,5.627-5.069,7.183-5.076c1.23,0,1.857,0.706,1.857,2.096c-0.011,0.44-0.092,0.876-0.237,1.291
	c-1.889,5.484-6.567,10-14.038,13.551c0.109,0,0.478-0.063,1.124-0.161c8.841-1.197,15.705-4.943,20.592-11.234
	c0.06-0.109,0.199-0.159,0.408-0.159c0.112-0.018,0.219,0.06,0.236,0.173C202.12,50.79,202.12,50.811,202.116,50.833z
	 M190.674,48.985c0-0.815-0.317-1.212-0.993-1.212c-0.907,0-2.189,0.808-3.845,2.424c-1.146,1.074-2.171,2.273-3.05,3.576
	c-0.268,0.416-1.987,3.297-5.096,8.611c5.741-2.648,9.684-5.986,11.82-10.012C190.157,51.35,190.557,50.189,190.674,48.985z"/>
<path fill="#FFFFFF" d="M249.212,9.867c-0.018,0.948-0.099,1.894-0.237,2.831c-0.061,0.208-0.14,0.317-0.249,0.317
	s-0.238-0.129-0.238-0.238c-0.055-1.819-1.062-3.476-2.651-4.36c-1.526-0.934-3.287-1.41-5.077-1.372
	c-5.795,0-11.909,4.113-18.347,12.338c-6.014,7.689-12.305,18.199-18.874,31.529c1.397-1.262,2.863-2.445,4.39-3.546
	c2.245-1.563,3.901-2.34,4.968-2.334c0.477,0,0.715,0.189,0.715,0.566c-0.104,0.541-0.354,1.043-0.726,1.451
	c-2.395,3.365-4.319,7.041-5.721,10.926c-0.304,0.742-0.468,1.533-0.487,2.335c0,1.719,0.805,2.582,2.424,2.582
	c1.817,0,4.241-1.4,7.251-4.191c2.136-1.939,4.055-4.104,5.724-6.457c0.07-0.108,0.196-0.169,0.326-0.159
	c0.076-0.012,0.147,0.04,0.159,0.116c0.003,0.015,0.003,0.029,0,0.043c-0.013,0.148-0.067,0.291-0.159,0.407
	c-2.631,3.878-6.009,7.194-9.934,9.756c-2.504,1.549-4.54,2.254-6.129,2.254c-1.887,0-2.821-0.993-2.821-2.899
	c0.134-1.946,0.739-3.828,1.769-5.484c1.377-2.427,2.614-4.931,3.705-7.5c0.148-0.278,0.261-0.576,0.328-0.884
	c0.018-0.114-0.06-0.22-0.174-0.238c-0.021-0.003-0.044-0.003-0.065,0c-0.354,0.105-0.688,0.266-0.992,0.477
	c-2.49,1.625-4.649,3.703-6.369,6.13c-1.071,2.264-1.932,4.013-2.582,5.243c-1.396,2.775-2.499,4.163-3.307,4.163
	c-0.436-0.002-0.855-0.143-1.203-0.407c-0.151-0.155-0.229-0.37-0.208-0.586c0.011-0.313,0.096-0.619,0.249-0.896
	c7.954-15.033,17.065-29.427,27.246-43.051c7.398-9.774,14.127-14.662,20.185-14.662c1.771-0.054,3.508,0.454,4.968,1.451
	C248.45,6.528,249.252,8.153,249.212,9.867z"/>
<path fill="#FFFFFF" d="M237.134,52.362c-0.012,0.148-0.067,0.29-0.16,0.408c-2.52,3.28-5.572,6.113-9.029,8.383
	c-1.859,1.34-4.076,2.098-6.367,2.176c-2.37,0-3.556-0.914-3.556-2.742c0.082-1.121,0.387-2.214,0.893-3.219
	c1.586-3.533,3.5-6.909,5.724-10.082c0.483-0.772,1.275-1.3,2.176-1.451c0.06-0.004,0.118-0.033,0.157-0.079h0.09
	c0.367,0,0.556,0.159,0.556,0.487c-0.015,0.258-0.097,0.508-0.237,0.725c-2.496,3.729-4.447,7.792-5.802,12.07
	c-0.14,0.448-0.22,0.912-0.238,1.381c-0.113,0.92,0.543,1.757,1.463,1.869c0.141,0.018,0.283,0.018,0.424-0.002
	c1.288-0.062,2.536-0.456,3.626-1.143c3.872-2.154,7.209-5.151,9.765-8.771c0.158-0.169,0.269-0.249,0.319-0.249
	C237.047,52.15,237.128,52.247,237.134,52.362z M233.349,34.482c-0.038,0.736-0.359,1.43-0.896,1.937
	c-0.439,0.585-1.114,0.949-1.846,0.993c-0.465,0.085-0.909-0.223-0.994-0.688c-0.018-0.101-0.018-0.205,0-0.306
	c0.026-0.736,0.311-1.439,0.804-1.987c0.432-0.602,1.12-0.969,1.858-0.993c0.512-0.069,0.981,0.29,1.051,0.801
	c0.009,0.074,0.01,0.148,0.002,0.222L233.349,34.482z"/>
<path fill="#FFFFFF" d="M258.561,52.204c-0.014,0.147-0.07,0.289-0.159,0.408c-2.868,4.062-6.544,7.488-10.798,10.063
	c-1.683,1.136-3.63,1.819-5.652,1.986c-1.669,0-2.494-0.773-2.494-2.334c0.146-1.687,0.713-3.31,1.65-4.719
	c1.639-2.666,3.042-5.472,4.191-8.383v-0.239c0-0.169,0-0.248-0.159-0.248c-0.107,0.015-0.216,0.041-0.318,0.079
	c-2.757,1.802-5.254,3.974-7.42,6.457c-1.026,1.927-2.748,4.747-5.165,8.463c-0.269,0.268-0.458,0.406-0.566,0.406
	c-0.109,0-0.428-0.277-0.646-0.813c-0.172-0.379-0.278-0.786-0.318-1.201c0.022-0.458,0.159-0.901,0.397-1.292
	c0.993-1.4,2.375-3.546,4.201-6.457c1.127-2.364,2.576-5.186,4.351-8.463c0.124-0.246,0.373-0.403,0.646-0.408
	c0.306,0.044,0.589,0.188,0.806,0.408c0.328,0.268,0.486,0.506,0.486,0.725c0-0.377-0.994,1.778-3.069,6.446
	c3.14-2.854,6.513-5.443,10.081-7.738c0.151-0.087,0.316-0.141,0.488-0.158c0.646,0,0.991,0.298,0.991,0.884
	c-0.03,0.365-0.174,0.711-0.406,0.993c-2.688,3.822-4.9,7.958-6.585,12.318c-0.196,0.487-0.303,1.006-0.319,1.529
	c0,1.343,0.637,1.987,1.929,1.987c0.795-0.042,1.567-0.263,2.264-0.645c4.503-2.352,8.306-5.847,11.027-10.134
	c0.061-0.115,0.188-0.179,0.317-0.159c0.113-0.023,0.224,0.048,0.247,0.162C258.563,52.152,258.564,52.178,258.561,52.204z"/>
<path fill="#FFFFFF" d="M115.327,22.8l-0.656,0.298c-0.25,0.109-0.505,0.205-0.765,0.288c-0.272,0.079-0.56,0.148-0.865,0.208
	c-0.328,0.059-0.66,0.09-0.993,0.09c-0.657,0.008-1.312-0.093-1.937-0.298c-0.569-0.191-1.085-0.511-1.51-0.934
	c-0.443-0.451-0.783-0.993-0.993-1.589c-0.252-0.718-0.374-1.475-0.358-2.235c-0.008-0.733,0.106-1.461,0.337-2.156
	c0.208-0.604,0.547-1.153,0.994-1.609c0.42-0.438,0.933-0.778,1.5-0.993c0.638-0.229,1.311-0.339,1.987-0.328
	c0.532-0.001,1.063,0.062,1.58,0.189c0.602,0.158,1.185,0.381,1.739,0.665v1.589h-0.1c-0.477-0.414-1.017-0.749-1.6-0.993
	c-0.547-0.214-1.13-0.325-1.718-0.328c-0.458-0.007-0.913,0.074-1.341,0.238c-0.403,0.165-0.763,0.419-1.053,0.745
	c-0.322,0.363-0.562,0.79-0.706,1.252c-0.179,0.558-0.267,1.141-0.258,1.728c-0.011,0.604,0.083,1.206,0.278,1.778
	c0.159,0.445,0.406,0.854,0.725,1.202c0.298,0.32,0.666,0.567,1.073,0.725c0.414,0.152,0.851,0.229,1.292,0.229
	c0.601,0.003,1.197-0.104,1.758-0.318c0.57-0.234,1.092-0.571,1.54-0.993h0.089L115.327,22.8z"/>
<path fill="#FFFFFF" d="M118.317,23.505h-1.242V13.293h1.242V23.505z"/>
<path fill="#FFFFFF" d="M126.87,23.505h-1.271v-0.814c-0.366,0.298-0.766,0.552-1.192,0.754c-0.396,0.181-0.827,0.272-1.262,0.269
	c-0.673,0.038-1.33-0.219-1.798-0.705c-0.464-0.582-0.695-1.315-0.646-2.057v-4.778h1.203v4.172c-0.021,0.331-0.021,0.662,0,0.993
	c0.027,0.242,0.105,0.475,0.228,0.686c0.109,0.181,0.268,0.326,0.458,0.417c0.262,0.101,0.543,0.145,0.824,0.129
	c0.344-0.015,0.682-0.1,0.994-0.248c0.381-0.164,0.739-0.377,1.063-0.636v-5.513h1.401V23.505z"/>
<path fill="#FFFFFF" d="M135.711,19.79c0.005,0.561-0.082,1.118-0.258,1.649c-0.154,0.452-0.394,0.871-0.706,1.232
	c-0.275,0.326-0.612,0.592-0.993,0.784c-0.383,0.175-0.8,0.263-1.222,0.259c-0.37,0.007-0.738-0.043-1.093-0.149
	c-0.315-0.105-0.622-0.239-0.914-0.397l-0.08,0.337h-1.192V13.293h1.242v3.686c0.334-0.284,0.705-0.521,1.103-0.706
	c0.411-0.191,0.858-0.289,1.311-0.288c0.805-0.031,1.573,0.342,2.046,0.994C135.508,17.808,135.773,18.796,135.711,19.79z
	 M134.439,19.79c0.04-0.69-0.111-1.377-0.437-1.987c-0.31-0.461-0.846-0.72-1.4-0.675c-0.373,0.004-0.74,0.082-1.083,0.228
	c-0.357,0.158-0.69,0.361-0.994,0.606v4.202c0.29,0.139,0.593,0.25,0.903,0.328c0.281,0.063,0.567,0.093,0.855,0.089
	c0.582,0.024,1.144-0.208,1.54-0.636c0.454-0.611,0.673-1.366,0.615-2.125V19.79z"/>
<path fill="#FFFFFF" d="M149.925,23.505h-1.292v-4.778h-4.877v4.778h-1.301v-9.764h1.301v3.824h4.878v-3.824h1.291V23.505z"/>
<path fill="#FFFFFF" d="M158.708,19.85c0.058,1.023-0.272,2.03-0.924,2.821c-1.304,1.372-3.473,1.426-4.845,0.122
	c-0.042-0.04-0.082-0.08-0.121-0.122c-0.648-0.792-0.975-1.799-0.914-2.821c-0.057-1.042,0.283-2.069,0.954-2.871
	c1.328-1.372,3.516-1.407,4.887-0.079c0.027,0.026,0.053,0.051,0.079,0.079C158.469,17.791,158.784,18.816,158.708,19.85z
	 M157.436,19.85c0.059-0.749-0.141-1.496-0.566-2.115c-0.763-0.856-2.076-0.932-2.931-0.168c-0.06,0.053-0.116,0.109-0.168,0.168
	c-0.421,0.621-0.618,1.367-0.557,2.115c-0.053,0.738,0.143,1.473,0.557,2.086c0.369,0.477,0.947,0.744,1.55,0.715
	c0.6,0.026,1.175-0.235,1.549-0.706C157.288,21.331,157.487,20.592,157.436,19.85z"/>
<path fill="#FFFFFF" d="M164.418,23.436c-0.247,0.071-0.499,0.124-0.754,0.159c-0.243,0.038-0.489,0.057-0.735,0.06
	c-0.628,0.042-1.246-0.178-1.708-0.606c-0.433-0.548-0.639-1.241-0.575-1.937v-3.894h-0.825v-0.993h0.825v-2.156h1.241v2.106h2.532
	v0.994h-2.542v3.387c0,0.388,0,0.686,0,0.904c0.017,0.213,0.081,0.42,0.188,0.606c0.09,0.163,0.229,0.294,0.397,0.377
	c0.242,0.102,0.504,0.146,0.765,0.129c0.215-0.001,0.429-0.031,0.635-0.089c0.159-0.04,0.315-0.089,0.468-0.149h0.069
	L164.418,23.436z"/>
<path fill="#FFFFFF" d="M172.048,19.959h-5.443c-0.006,0.403,0.061,0.804,0.199,1.182c0.126,0.313,0.32,0.594,0.566,0.825
	c0.23,0.213,0.504,0.374,0.805,0.466c0.32,0.106,0.656,0.16,0.993,0.159c0.518-0.003,1.03-0.105,1.51-0.298
	c0.388-0.133,0.75-0.331,1.073-0.585h0.069v1.341c-0.412,0.18-0.837,0.326-1.271,0.438c-0.444,0.12-0.902,0.179-1.362,0.178
	c-1.044,0.058-2.068-0.3-2.851-0.993c-0.711-0.756-1.072-1.776-0.994-2.812c-0.047-1.042,0.309-2.063,0.994-2.851
	c0.683-0.707,1.641-1.082,2.623-1.023c0.851-0.052,1.682,0.264,2.285,0.865c0.575,0.687,0.863,1.569,0.805,2.463V19.959z
	 M170.846,18.966c0.028-0.543-0.145-1.077-0.486-1.5c-0.398-0.365-0.934-0.542-1.471-0.487c-0.584-0.03-1.155,0.182-1.579,0.586
	c-0.406,0.383-0.657,0.903-0.705,1.46L170.846,18.966z"/>
<path fill="#FFFFFF" d="M175.157,23.505h-1.231V13.293h1.231V23.505z"/>
<path fill="#FFFFFF" d="M107.003,28.214c-0.085,0.417-0.007,0.851,0.219,1.211c0.462,0.375,1.062,0.534,1.648,0.438
	c0.924,0,3.974-0.388,3.974-0.388l2.87-0.437l1.629-0.1c0.677-0.058,1.358-0.07,2.037-0.039c0.994,0.049,4.153-0.109,4.153-0.109
	l1.212-0.189l-0.498-0.238l-9.188,0.089l-4.649,0.07l-2.414-0.308H107.003z"/>
</svg>
