<svg xmlns="http://www.w3.org/2000/svg" width="165" height="55" xml:space="preserve"><switch><g><path fill="#F48120" d="m16.382 33.018-7.207-1.932-5.286-5.276-1.922-7.219 1.922-7.221 5.286-5.272 7.207-1.934 7.223 1.934 5.271 5.272 1.935 7.221-1.935 7.219-5.271 5.276-7.223 1.932z"/><path fill="#EF5023" d="M9.414 6.946c8.283-1.935 16.124 4.506 12.82 12.551 0 0-1.448 3.609-5.33 3.914-3.248.26-4.56-2.071-4.865-2.728-.498-1.085-.442-2.781.294-4.027 1.005-1.672 2.194-2.116 3.324-2.263.962-.125 3.204.429 4.12 2.887-.089-.34-.045-3.057-2.738-4.753-3.167-2.028-6.45-.679-8.157.702-2.06 1.652-3.282 4.311-2.707 7.887.487 3.103 2.423 5.612 5.477 7.241 3.371 1.81 7.82 1.856 11.24-.136 3.255-1.89 5.442-5.24 6.006-7.231.77-2.659 1.323-5.021-.871-9.133C25.752 7.616 18.012 2.24 9.414 6.946"/><path fill="#6D0020" d="m19.108 18.347-1.208.035-.015.001a1.44 1.44 0 0 0-.096-.372l1.074-.578 11.365-6.637-.173-.305-11.425 6.535-1.021.624-.024.017a1.378 1.378 0 0 0-.27-.28l.636-1.045 6.482-11.339.048-.083-.303-.176-6.638 11.37-.562 1.049-.015.026a1.32 1.32 0 0 0-.371-.098l.035-1.226-.065-13.058-.002-.099h-.353l-.056 13.159.034 1.198v.025a1.326 1.326 0 0 0-.371.098l-.59-1.078L8.6 4.744l-.304.176 6.523 11.426.631 1.017.014.024a1.478 1.478 0 0 0-.276.277l-1.042-.639-11.424-6.533-.174.305 11.367 6.638 1.053.563.022.013a1.373 1.373 0 0 0-.097.374l-1.236-.038-13.06.067H.5v.354l13.16.059 1.197-.035h.034c.016.13.048.255.097.372l-1.076.587L2.63 26.326l-.08.047.169.32 11.431-6.536 1.037-.647c.039.05.078.095.122.146.047.05.104.093.155.136l-.646 1.048-6.522 11.424.304.175 6.625-11.377.58-1.06.005-.015c.12.046.241.081.375.104l-.034 1.227.056 13.057v.098h.353l.069-13.158-.035-1.208v-.018c.135-.023.258-.058.371-.105l.58 1.079 6.584 11.292.05.084.303-.176-6.532-11.426-.628-1.037-.009-.013a1.54 1.54 0 0 0 .276-.277l1.044.649 11.425 6.535.171-.32-11.367-6.624-1.059-.582-.011-.004c.046-.114.078-.242.095-.372l1.225.035 13.057-.059h.099v-.354l-13.16-.067zm-2.725 1.293c-.58 0-1.048-.469-1.048-1.049s.468-1.048 1.048-1.048a1.047 1.047 0 1 1 0 2.097z"/><path fill="#F48120" d="M96.842 8.665c-1.771 0-3.274.213-4.479.629a35.824 35.824 0 0 0-3.544 1.479c-.55-.519-1.34-1.005-2.332-1.443-1.004-.452-2.425-.665-4.261-.665-1.31 0-2.459.136-3.463.417-.99.271-1.871.562-2.627.856l-4.409-1.476-.022 24.831h6.44V15.351c.53-.271 1.104-.495 1.703-.721.609-.216 1.397-.315 2.38-.315 1.115 0 1.95.416 2.491 1.25.542.835.81 2.221.81 4.162v13.566h6.441V18.439c0-.484-.045-.989-.124-1.522-.08-.529-.149-.855-.171-.982a7.249 7.249 0 0 1 1.962-1.126c.689-.27 1.513-.407 2.462-.407 1.285 0 2.14.51 2.604 1.513.462.99.688 2.277.688 3.856v13.521h6.393V18.499c0-2.955-.73-5.324-2.187-7.126-1.455-1.805-3.713-2.708-6.755-2.708M129.338 12.083c-.54-.939-1.216-1.672-2.039-2.213a8.083 8.083 0 0 0-2.63-1.139 11.833 11.833 0 0 0-2.639-.317c-1.566 0-3.246.171-5.041.521-1.78.341-3.596 1.073-5.424 2.187l2.608 5.155a11.681 11.681 0 0 1 3.607-1.838c1.264-.383 2.436-.565 3.518-.565.755 0 1.354.204 1.792.587.442.396.667.891.667 1.475v1.028c-1.413 0-2.865.101-4.354.304-1.487.192-2.841.611-4.062 1.254a8.362 8.362 0 0 0-2.997 2.683c-.78 1.139-1.175 2.648-1.175 4.522 0 .947.204 1.882.611 2.796a8.979 8.979 0 0 0 1.668 2.514 8.798 8.798 0 0 0 2.459 1.816 6.919 6.919 0 0 0 3.032.688c.521 0 1.094-.01 1.715-.045.631-.035 1.238-.09 1.838-.146.609-.08 1.183-.146 1.701-.225.521-.09.938-.158 1.229-.227l4.714 1.566v-18.82c.002-1.444-.255-2.638-.798-3.561m-5.58 15.501a4.488 4.488 0 0 1-.745.205c-.328.055-.676.111-1.052.169-.379.042-.775.09-1.181.125-.407.035-.78.043-1.106.043-.552 0-1.023-.236-1.397-.71-.383-.471-.563-1.048-.563-1.689 0-.734.169-1.309.507-1.771.348-.462.8-.824 1.388-1.061.565-.248 1.218-.405 1.939-.495.709-.08 1.454-.122 2.211-.122v5.306h-.001zM147.473 8.517c-1.184 0-2.333.181-3.461.565-1.128.37-2.042.823-2.729 1.352h-.202L137.1 7.965v25.383h6.438v-16.68c.464-.879 1.038-1.465 1.726-1.77.689-.291 1.365-.438 2.018-.438.621 0 1.254.147 1.918.438a6.178 6.178 0 0 1 1.818 1.287l3.156-5.503a8.354 8.354 0 0 0-2.931-1.634c-1.132-.36-2.395-.531-3.77-.531M158.061 9.635v23.658h6.439V6.984l-6.439 2.651zM55.837 3.995l-6.124-2.482-14.106 31.768h8.108l2.717-7.083h10.566l2.651 7.15h7.365L55.837 3.995zM48.856 20.11l3.032-7.76 2.933 7.76h-5.965z"/><g fill="#EF5023"><path d="M56.442 49.045c-.207-.225-.406-.371-.599-.445a1.62 1.62 0 0 0-.583-.111 1.98 1.98 0 0 0-.789.154 1.83 1.83 0 0 0-.607.43c-.169.182-.3.395-.393.639a2.193 2.193 0 0 0-.139.785c0 .301.046.578.139.832.093.256.224.475.393.658.169.186.372.33.607.438.235.105.498.158.789.158.228 0 .448-.055.663-.162.214-.109.413-.281.599-.52l.825.586a2.23 2.23 0 0 1-.928.762 2.905 2.905 0 0 1-1.166.238c-.434 0-.832-.07-1.194-.211a2.72 2.72 0 0 1-.937-.594 2.72 2.72 0 0 1-.615-.924 3.13 3.13 0 0 1-.222-1.199c0-.449.074-.857.222-1.225.148-.369.353-.682.615-.939.262-.26.574-.459.937-.6.362-.141.76-.211 1.194-.211.38 0 .733.068 1.059.203.325.135.628.363.908.686l-.778.572zM57.957 50.559c0-.449.073-.857.222-1.225.148-.369.353-.682.615-.939.262-.26.574-.459.937-.6.362-.141.76-.211 1.194-.211.439-.004.84.061 1.206.195.364.135.679.332.943.592.265.258.471.57.619.934.147.367.222.773.222 1.223 0 .439-.075.838-.222 1.199a2.724 2.724 0 0 1-.619.926c-.264.26-.579.463-.943.607a3.348 3.348 0 0 1-1.206.227c-.434 0-.832-.07-1.194-.211a2.72 2.72 0 0 1-.937-.594 2.72 2.72 0 0 1-.615-.924 3.115 3.115 0 0 1-.222-1.199zm1.047-.063c0 .301.046.578.139.832.092.256.224.475.393.658.169.186.372.33.607.438.235.105.499.158.79.158.291 0 .555-.053.793-.158.239-.107.441-.252.611-.438.169-.184.3-.402.393-.658.092-.254.139-.531.139-.832 0-.281-.046-.543-.139-.785-.093-.244-.224-.457-.393-.639s-.372-.326-.611-.43a1.992 1.992 0 0 0-.793-.154c-.291 0-.554.053-.79.154-.235.104-.438.248-.607.43s-.3.395-.393.639a2.171 2.171 0 0 0-.139.785zM65.104 47.727h1v4.713h2.387v.904h-3.387v-5.617zM69.158 50.559c0-.449.074-.857.222-1.225.148-.369.354-.682.615-.939.262-.26.574-.459.937-.6.362-.141.76-.211 1.193-.211.439-.004.841.061 1.207.195.364.135.679.332.943.592.265.258.471.57.619.934.147.367.222.773.222 1.223 0 .439-.075.838-.222 1.199a2.724 2.724 0 0 1-.619.926c-.264.26-.579.463-.943.607a3.345 3.345 0 0 1-1.207.227c-.434 0-.832-.07-1.193-.211a2.72 2.72 0 0 1-.937-.594 2.75 2.75 0 0 1-.615-.924 3.134 3.134 0 0 1-.222-1.199zm1.047-.063c0 .301.047.578.139.832.092.256.224.475.393.658.168.186.372.33.607.438.235.105.498.158.79.158.291 0 .555-.053.792-.158.238-.107.442-.252.611-.438.169-.184.3-.402.393-.658.092-.254.139-.531.139-.832 0-.281-.046-.543-.139-.785a1.948 1.948 0 0 0-.393-.639 1.817 1.817 0 0 0-.611-.43 1.99 1.99 0 0 0-.792-.154 1.98 1.98 0 0 0-.79.154 1.83 1.83 0 0 0-.607.43 1.93 1.93 0 0 0-.393.639 2.171 2.171 0 0 0-.139.785zM76.329 47.727h1.523l1.499 3.936 1.516-3.936h1.506v5.617h-.951V48.68h-.016L79.7 53.344h-.698l-1.706-4.664h-.016v4.664h-.952v-5.617zM83.89 47.727h2.188c.213 0 .421.025.627.076.207.051.39.133.553.246.159.113.291.26.391.439.101.18.151.396.151.65 0 .318-.09.58-.27.785a1.504 1.504 0 0 1-.707.445v.016c.175.021.338.07.489.146.149.078.279.174.385.293a1.375 1.375 0 0 1 .341.918c0 .307-.062.561-.184.764a1.41 1.41 0 0 1-.479.492 2.041 2.041 0 0 1-.682.266c-.257.053-.517.08-.782.08H83.89v-5.616zm1 2.285h.912c.332 0 .583-.064.748-.193a.62.62 0 0 0 .25-.514c0-.242-.085-.424-.258-.543-.171-.119-.448-.178-.829-.178h-.823v1.428zm0 2.474h.92c.125 0 .263-.008.408-.023s.279-.053.401-.111a.776.776 0 0 0 .301-.25.733.733 0 0 0 .119-.439c0-.297-.096-.502-.29-.619-.193-.115-.494-.176-.9-.176h-.959v1.618zM88.965 50.559c0-.449.075-.857.223-1.225.149-.369.354-.682.615-.939.263-.26.573-.459.937-.6a3.265 3.265 0 0 1 1.193-.211c.438-.004.841.061 1.206.195.364.135.681.332.943.592.266.258.472.57.619.934.147.367.223.773.223 1.223 0 .439-.075.838-.223 1.199a2.71 2.71 0 0 1-.619.926c-.263.26-.579.463-.943.607a3.348 3.348 0 0 1-1.206.227c-.433 0-.831-.07-1.193-.211a2.72 2.72 0 0 1-.937-.594 2.735 2.735 0 0 1-.615-.924 3.134 3.134 0 0 1-.223-1.199zm1.048-.063c0 .301.047.578.14.832.092.256.224.475.393.658.169.186.372.33.607.438.233.105.497.158.788.158s.556-.053.794-.158a1.854 1.854 0 0 0 1.004-1.096c.093-.254.138-.531.138-.832a2.17 2.17 0 0 0-.138-.785 1.847 1.847 0 0 0-1.798-1.223 1.83 1.83 0 0 0-1.395.584 1.93 1.93 0 0 0-.393.639c-.093.242-.14.504-.14.785zM98.651 50.535c0-.195.037-.377.112-.547.074-.17.175-.316.3-.445a1.388 1.388 0 0 1 .993-.412 1.377 1.377 0 0 1 .99.412c.128.129.228.275.303.445.074.17.109.352.109.547a1.37 1.37 0 0 1-.412.99 1.395 1.395 0 0 1-1.539.303 1.441 1.441 0 0 1-.744-.744 1.355 1.355 0 0 1-.112-.549zM108.243 48.934a.915.915 0 0 0-.425-.338 1.516 1.516 0 0 0-.56-.107c-.116 0-.229.014-.337.041a.91.91 0 0 0-.294.125.695.695 0 0 0-.211.227.652.652 0 0 0-.078.33c0 .191.064.336.198.438.132.1.295.186.491.26.194.074.411.146.643.215.234.068.446.164.643.285.194.121.359.283.491.484s.198.469.198.801c0 .301-.055.564-.167.789a1.592 1.592 0 0 1-.447.561 1.932 1.932 0 0 1-.654.332 2.93 2.93 0 0 1-1.793-.065 1.939 1.939 0 0 1-.833-.586l.755-.73c.122.186.281.33.479.434a1.335 1.335 0 0 0 .981.107c.116-.033.22-.08.316-.143a.756.756 0 0 0 .229-.242.633.633 0 0 0 .087-.338c0-.205-.064-.365-.196-.477a1.815 1.815 0 0 0-.493-.281 8.877 8.877 0 0 0-.643-.219 2.713 2.713 0 0 1-.643-.281 1.534 1.534 0 0 1-.491-.475c-.132-.199-.199-.465-.199-.799 0-.291.06-.541.179-.752a1.61 1.61 0 0 1 .468-.529c.193-.141.413-.244.662-.313.25-.068.504-.104.763-.104.295 0 .582.045.861.137.276.088.526.236.748.441l-.728.772zM110.28 47.727h1.952c.271 0 .53.025.782.076.251.051.473.137.67.258.196.121.352.285.468.492.117.205.175.469.175.785 0 .406-.112.748-.338 1.023-.225.275-.547.441-.963.5l1.491 2.482h-1.207l-1.301-2.379h-.729v2.379h-1.001v-5.616zm1.778 2.38c.143 0 .286-.008.43-.021.142-.012.273-.043.392-.094a.686.686 0 0 0 .291-.23c.072-.104.109-.246.109-.432a.682.682 0 0 0-.102-.396.637.637 0 0 0-.271-.227 1.218 1.218 0 0 0-.367-.1 3.35 3.35 0 0 0-.394-.023h-.864v1.523h.776zM115.492 47.727h1v5.617h-1v-5.617zM120.547 47.727h1v4.713h2.388v.904h-3.388v-5.617zM126.717 47.727h.864l2.422 5.617h-1.145l-.522-1.285h-2.435l-.509 1.285h-1.118l2.443-5.617zm1.269 3.474-.864-2.283-.881 2.283h1.745zM130.867 47.727h1.324l2.72 4.174h.016v-4.174h1.001v5.617h-1.27l-2.777-4.307h-.016v4.307h-.998v-5.617zM137.419 47.727h1v2.381h.047l2.325-2.381h1.348l-2.625 2.596 2.8 3.021h-1.404l-2.435-2.762h-.056v2.762h-1v-5.617zM144.908 47.727h.864l2.419 5.617h-1.142l-.522-1.285h-2.437l-.508 1.285h-1.118l2.444-5.617zm1.27 3.474-.865-2.283-.88 2.283h1.745z"/></g></g></switch></svg>
