<?xml version="1.0" encoding="utf-8"?>
<!-- Generator: Adobe Illustrator 24.0.2, SVG Export Plug-In . SVG Version: 6.00 Build 0)  -->
<svg version="1.1" id="Layer_1" xmlns="http://www.w3.org/2000/svg" xmlns:xlink="http://www.w3.org/1999/xlink" x="0px" y="0px"
	 viewBox="0 0 221.8 98.2" style="enable-background:new 0 0 221.8 98.2;" xml:space="preserve">
<style type="text/css">
	.st0{clip-path:url(#SVGID_2_);fill:#ffffff;}
</style>
<g>
	<defs>
		<rect id="SVGID_1_" y="0" width="221.8" height="98.2"/>
	</defs>
	<clipPath id="SVGID_2_">
		<use xlink:href="#SVGID_1_"  style="overflow:visible;"/>
	</clipPath>
	<path class="st0" d="M78.7,3.9c0,0.4-0.1,0.9-0.4,1.6c-0.4,0.9-0.6,1.4-0.7,1.5c-0.5,1.7-0.9,2.5-1.2,2.5c-0.3,0-0.4-0.1-0.4-0.4
		c0-0.1,0.1-0.4,0.2-0.7c0.1-0.3,0.2-0.6,0.2-0.8c0-1.8-0.9-3.2-2.6-4.1c-1.5-0.8-3.2-1.2-5.1-1.2c-2.8,0-5.1,0.8-6.8,2.5
		c-1.7,1.6-2.6,3.8-2.6,6.6c0,2,0.6,4.2,1.9,6.6c1.6,2.1,3.5,4.8,5.6,8c1.2,1.8,1.8,3.7,1.8,5.6c0,2.8-1.2,5.6-3.6,8.3
		c-2.1,2.3-4.5,4.2-7.4,5.5c-3.1,1.4-6.6,2.1-10.6,2.1c-3.7,0-6.7-0.6-9.2-1.8c-0.9-0.4-1.3-1.1-1.3-2c0-0.3,0.1-0.7,0.2-1.2
		c0.2-1.4,0.7-3.3,1.6-5.8c0.1-0.1,0.2-0.2,0.4-0.2c0.2,0,0.3,0.2,0.3,0.5v0.2c-0.2,0.4-0.3,0.9-0.3,1.5c0,2.6,1.1,4.6,3.2,5.9
		c1.7,1.2,4,1.8,6.7,1.8c2.8,0,5.3-0.5,7.4-1.5c5.1-2.4,7.7-5.9,7.7-10.5c0-2.2-1-4.6-2.9-7.1c-0.6-0.8-1.6-2.2-3.1-4.2
		c-1.6-2.3-2.4-4.7-2.4-7c0-3.5,1.4-7,4.3-10.3C62.9,1.9,67,0,72,0c2.7,0,4.7,0.8,6.1,2.4C78.5,2.9,78.7,3.4,78.7,3.9"/>
	<path class="st0" d="M95.8,32.3c0,0.1-0.1,0.3-0.2,0.5c-3.2,4.1-6.9,7.6-11.2,10.4c-2.7,1.8-5.4,2.7-7.9,2.7
		c-2.9,0-4.4-1.1-4.4-3.4c0-1,0.4-2.3,1.1-4c1.9-4.2,4.2-8.4,7.1-12.5c0.7-1,1.6-1.6,2.7-1.8c0.1,0,0.1,0,0.2-0.1h0.1
		c0.5,0,0.7,0.2,0.7,0.6c0,0.3-0.1,0.6-0.3,0.9c-3.6,5.7-6,10.7-7.2,15c-0.2,0.7-0.3,1.3-0.3,1.7c0,1.5,0.8,2.3,2.4,2.3
		c1.3,0,2.8-0.5,4.5-1.4c4.7-2.6,8.8-6.2,12.1-10.9c0.2-0.2,0.3-0.3,0.4-0.3C95.8,32.1,95.8,32.2,95.8,32.3 M91.1,10.1
		c0,0.8-0.4,1.6-1.1,2.4c-0.7,0.8-1.5,1.2-2.3,1.2c-0.8,0-1.2-0.4-1.2-1.2c0-0.9,0.3-1.7,1-2.5c0.7-0.8,1.4-1.2,2.3-1.2
		C90.7,8.8,91.1,9.2,91.1,10.1"/>
	<path class="st0" d="M115.5,18.8c0,0.6-0.2,1.2-0.5,1.8c-4.4,8.1-8.9,16.1-13.5,24c-3.3,5.5-9,15.1-17.1,28.8
		c-4.8,8.1-9.2,14-13.3,17.6c-5.5,4.8-11.7,7.2-18.7,7.2c-6.6,0-11.9-1.6-15.8-4.8c-3.5-2.9-5.3-6.6-5.3-10.9c0-1.4,0.2-2.7,0.7-4
		c0.1-0.3,0.3-0.5,0.5-0.5c0.1,0.1,0.2,0.2,0.2,0.3v0.3c-0.4,1.2-0.6,2.4-0.6,3.7c0,4,1.8,7.4,5.3,10.2c3.1,2.5,7.2,3.8,12.1,3.8
		c11.9,0,22.9-7.8,33.2-23.3c4.2-6.4,9.6-16.1,16.1-29c1.9-3.7,3.5-6.8,4.9-9.3c-2.3,2.9-4.9,6-7.8,9.3c-1.5,1.7-3,2.6-4.5,2.6
		c-1.4,0-2.1-0.8-2.1-2.5c0-0.8,0.2-1.8,0.6-2.9c1.4-4,3.8-7.8,7.2-11.5c3.9-4.3,7.7-6.5,11.5-6.5c0.5,0,0.8,0,1.1,0
		c1.4-2.2,2.6-4.1,3.4-5.7c0.5-0.9,0.9-1.3,1.3-1.3C115.2,16.2,115.5,17.1,115.5,18.8 M108.9,24.6c-0.1,0-0.3,0-0.5-0.1h-0.5
		c-2.2,0-3.8,0.4-4.9,1.3c-4.5,3.7-7.6,9.2-9.4,16.5c-0.1,0.5-0.2,0.9-0.2,1c0,0.5,0.2,0.8,0.5,0.8c0.4,0,1-0.4,1.8-1.3
		C100.1,38,104.5,31.9,108.9,24.6"/>
	<path class="st0" d="M135.4,32.3c0,0.1-0.1,0.3-0.2,0.5c-3.2,4.1-6.9,7.6-11.2,10.4c-2.7,1.8-5.4,2.7-7.9,2.7
		c-2.9,0-4.4-1.1-4.4-3.4c0-1,0.4-2.3,1.1-4c1.9-4.2,4.2-8.4,7.1-12.5c0.7-1,1.6-1.6,2.7-1.8c0.1,0,0.1,0,0.2-0.1h0.1
		c0.5,0,0.7,0.2,0.7,0.6c0,0.3-0.1,0.6-0.3,0.9c-3.6,5.7-6,10.7-7.2,15c-0.2,0.7-0.3,1.3-0.3,1.7c0,1.5,0.8,2.3,2.4,2.3
		c1.3,0,2.8-0.5,4.5-1.4c4.7-2.6,8.8-6.2,12.1-10.9c0.2-0.2,0.3-0.3,0.4-0.3C135.4,32.1,135.4,32.2,135.4,32.3 M130.7,10.1
		c0,0.8-0.4,1.6-1.1,2.4c-0.7,0.8-1.5,1.2-2.3,1.2c-0.8,0-1.2-0.4-1.2-1.2c0-0.9,0.3-1.7,1-2.5c0.7-0.8,1.4-1.2,2.3-1.2
		C130.3,8.8,130.7,9.2,130.7,10.1"/>
	<path class="st0" d="M152.5,25.1c0,0.1-0.3,0.6-1,1.7c-0.7,1-1,1.6-1.1,1.8c-0.1,0.2-0.2,0.3-0.5,0.3c-0.1,0-0.2-0.1-0.3-0.2
		c-0.6-1.1-1.7-1.7-3.3-1.7c-2.9,0-6.3,2.7-10,8.2c-1.6,2.3-4,5.9-7.1,10.6c-0.1,0.2-0.3,0.3-0.6,0.3c-0.7,0-1-0.5-1-1.5
		c0-0.4,0.2-1,0.7-1.8c0.9-1.7,2.6-4.6,4.9-8.7c1.6-2.8,3.4-6,5.4-9.5c0.3-0.5,0.6-0.8,0.9-0.8c1.1,0,1.6,0.6,1.6,1.8
		c0,0.3-0.9,1.9-2.6,4.9c-0.1,0.3-0.2,0.5-0.1,0.5c0.2-0.1,0.4-0.2,0.5-0.3c1.4-1.5,3.2-2.9,5.3-4.3c2.6-1.7,4.6-2.6,6.1-2.6
		C151.8,23.7,152.5,24.2,152.5,25.1"/>
	<path class="st0" d="M172.7,32.3c0,0.1-0.1,0.3-0.2,0.5c-3.2,4.1-6.9,7.6-11.2,10.4c-2.7,1.8-5.4,2.7-7.9,2.7
		c-2.9,0-4.4-1.1-4.4-3.4c0-1,0.4-2.3,1.1-4c1.9-4.2,4.2-8.4,7.1-12.5c0.7-1,1.6-1.6,2.7-1.8c0.1,0,0.1,0,0.2-0.1h0.1
		c0.5,0,0.7,0.2,0.7,0.6c0,0.3-0.1,0.6-0.3,0.9c-3.6,5.7-6,10.7-7.2,15c-0.2,0.7-0.3,1.3-0.3,1.7c0,1.5,0.8,2.3,2.4,2.3
		c1.3,0,2.8-0.5,4.5-1.4c4.7-2.6,8.8-6.2,12.1-10.9c0.2-0.2,0.3-0.3,0.4-0.3C172.7,32.1,172.7,32.2,172.7,32.3 M168,10.1
		c0,0.8-0.4,1.6-1.1,2.4c-0.7,0.8-1.5,1.2-2.3,1.2c-0.8,0-1.2-0.4-1.2-1.2c0-0.9,0.3-1.7,1-2.5c0.7-0.8,1.4-1.2,2.3-1.2
		C167.6,8.8,168,9.2,168,10.1"/>
	<path class="st0" d="M188.9,24.9c0,0.4-0.1,0.8-0.3,1.1c-1.9,3.3-4.1,6.4-6.6,9.4c-1.7,2-3.9,5.2-6.6,9.6
		c-14.3,23.3-25.4,37.1-33.1,41.4c-3.2,1.8-6.4,2.7-9.5,2.7c-5.9,0-8.8-2.6-8.8-7.8c0-0.3,0.1-1.2,0.3-2.8c0.1-0.3,0.2-0.4,0.3-0.4
		c0.1,0,0.2,0.1,0.2,0.3c0.1,2.3,1.2,4.1,3.3,5.4c1.9,1.1,4,1.7,6.4,1.7c7.2,0,14.8-5.1,22.8-15.4c4.3-5.5,7.9-10.5,10.6-15
		l8.4-13.6c0.1-0.1,0.1-0.1,0.1-0.2h-0.1c-0.1,0-0.2,0-0.3,0.1c-2.1,1.7-4.1,2.6-6,2.6c-1.9,0-2.8-0.8-2.8-2.3
		c0-0.6,0.2-1.3,0.5-2.1c0.7-1.7,2.3-4.4,4.6-8c0.1-0.1,0.9-1.5,2.6-4c0.4-0.6,0.8-1,1.2-1.1c0.4-0.1,0.8-0.2,1.3-0.3
		c0.4-0.1,0.7-0.2,0.9-0.2c0.3,0,0.4,0.1,0.4,0.3c0,0.1-0.1,0.3-0.2,0.5c-1.3,2.1-2.9,4.7-4.8,7.9c-1.9,3.2-2.8,5.5-2.8,6.8
		c0,0.7,0.3,1.1,1,1.1c1.3,0,2.7-0.7,4.4-2.2c0.7-0.7,1.5-1.7,2.2-3c1-1.9,2.8-5.2,5.4-9.8c1.9-3.5,3.3-5.2,4-5.2
		c0.1,0,0.2,0.2,0.3,0.5c0.1,0.4,0.3,0.7,0.5,0.9C188.8,24.2,188.9,24.5,188.9,24.9"/>
	<path class="st0" d="M221.8,31.6c0,0.1-0.1,0.3-0.2,0.5c-2,2.9-4.5,5.8-7.6,8.6c-4,3.6-7.2,5.4-9.7,5.4c-2.5,0-3.8-1.5-3.8-4.5
		c0-1.3,0.3-2.7,0.9-4.3c-4,4.9-7.2,7.4-9.6,7.4c-1.4,0-2.1-0.8-2.1-2.3c0-0.7,0.2-1.5,0.5-2.5c2.1-6.1,5.7-10.6,11-13.5
		c2.2-1.2,4.3-1.9,6.3-2.1h0.6c1-1.7,2.4-2.5,4.1-2.5c-0.5,0.9-1,1.8-1.4,2.6c0.9,0.1,1.8,0.4,2.8,0.9c-0.1,0.1-0.2,0.2-0.3,0.2
		c-0.1,0-0.1,0-0.1-0.1H213c-0.5-0.1-1.4-0.1-2.6-0.2c-0.5,0.9-1.5,3.1-3.2,6.6c-2.5,5.2-3.7,8.8-3.7,10.7c0,1.5,0.7,2.3,2,2.3
		c0.5,0,1-0.1,1.5-0.3c5-2,9.7-6.3,14-12.8c0.1-0.3,0.3-0.4,0.5-0.4C221.7,31.3,221.8,31.4,221.8,31.6 M207.6,25.1h-0.1
		c-1.9,0-3.6,0.7-5.3,2.1c-3.9,3.3-6.9,7.9-8.8,13.8c-0.1,0.7-0.2,1-0.2,1.1c0,0.6,0.2,0.9,0.6,0.9c0.3,0,0.6-0.2,1.1-0.5
		c3-2.2,6.1-6.1,9.4-11.7L207.6,25.1z"/>
	<polygon class="st0" points="11.1,21.4 9.2,21.4 9.2,14.3 1.9,14.3 1.9,21.4 0,21.4 0,6.9 1.9,6.9 1.9,12.6 9.2,12.6 9.2,6.9 
		11.1,6.9 	"/>
	<path class="st0" d="M24.2,16c0,1.8-0.5,3.2-1.4,4.2c-0.9,1-2.1,1.5-3.7,1.5c-1.5,0-2.8-0.5-3.7-1.5c-0.9-1-1.4-2.4-1.4-4.2
		c0-1.8,0.5-3.2,1.4-4.2c0.9-1,2.1-1.5,3.7-1.5c1.5,0,2.8,0.5,3.7,1.5C23.7,12.8,24.2,14.2,24.2,16 M22.3,16c0-1.4-0.3-2.5-0.8-3.1
		c-0.6-0.7-1.3-1-2.3-1c-1,0-1.8,0.3-2.3,1C16.3,13.5,16,14.5,16,16c0,1.4,0.3,2.4,0.8,3.1c0.6,0.7,1.3,1.1,2.3,1.1
		c1,0,1.7-0.4,2.3-1C22,18.4,22.3,17.3,22.3,16"/>
	<path class="st0" d="M32.7,21.3c-0.3,0.1-0.7,0.2-1.1,0.2c-0.4,0.1-0.8,0.1-1.1,0.1c-1.1,0-2-0.3-2.5-0.9c-0.6-0.6-0.9-1.6-0.9-2.9
		V12h-1.2v-1.5h1.2V7.4h1.8v3.1h3.8V12h-3.8v5c0,0.6,0,1,0,1.3c0,0.3,0.1,0.6,0.3,0.9c0.1,0.3,0.3,0.4,0.6,0.6
		c0.3,0.1,0.6,0.2,1.1,0.2c0.3,0,0.6,0,0.9-0.1c0.3-0.1,0.6-0.2,0.7-0.2h0.1V21.3z"/>
	<path class="st0" d="M44,16.1h-8c0,0.7,0.1,1.3,0.3,1.8c0.2,0.5,0.5,0.9,0.8,1.2c0.3,0.3,0.7,0.5,1.2,0.7c0.5,0.2,1,0.2,1.5,0.2
		c0.7,0,1.5-0.1,2.2-0.4c0.8-0.3,1.3-0.6,1.6-0.9h0.1v2c-0.6,0.3-1.3,0.5-1.9,0.7c-0.6,0.2-1.3,0.3-2,0.3c-1.8,0-3.2-0.5-4.2-1.5
		c-1-1-1.5-2.4-1.5-4.2c0-1.8,0.5-3.2,1.5-4.2c1-1,2.3-1.6,3.8-1.6c1.5,0,2.6,0.4,3.4,1.3c0.8,0.9,1.2,2.1,1.2,3.7V16.1z M42.2,14.7
		c0-1-0.2-1.7-0.7-2.2c-0.5-0.5-1.2-0.8-2.2-0.8c-1,0-1.8,0.3-2.3,0.9c-0.6,0.6-0.9,1.3-1,2.2H42.2z"/>
	<rect x="46.8" y="6.2" class="st0" width="1.8" height="15.2"/>
</g>
</svg>
