<svg xmlns="http://www.w3.org/2000/svg" width="130" height="40" viewBox="0 0 130 40" fill="none"><g clip-path="url(#clip0_160_26)"><path d="M0.013682 3.18103H0.13682C0.307775 3.48921 0.361244 3.84891 0.287322 4.1935V36.2436C0.333637 36.5171 0.275002 36.7981 0.123138 37.0303H0L0.013682 3.18103Z" fill="#BB9AC8"></path><path d="M109.271 0.102615C109.275 0.0684936 109.275 0.0341213 109.271 0H109.819V0.095774C109.785 0.135357 109.744 0.167279 109.697 0.189386C109.65 0.211492 109.599 0.223268 109.547 0.223916C109.495 0.224565 109.443 0.214071 109.396 0.193145C109.348 0.172219 109.306 0.141347 109.271 0.102615Z" fill="#FFEBCA"></path><path d="M85.9778 20.1057V36.4283C85.9778 36.9414 85.8342 37.1124 85.3416 37.0509C84.8496 37.0167 84.3559 37.0167 83.8639 37.0509C83.5493 37.0509 83.4535 36.9551 83.4603 36.6473V21.5081C83.4603 21.0635 83.3577 20.9198 82.8857 20.9198H60.9192C60.4814 20.9198 60.3788 21.0429 60.3788 21.4671V36.4215C60.3788 36.8798 60.3035 37.1056 59.7905 37.0303C59.3355 36.9859 58.8773 36.9859 58.4223 37.0303C57.9776 37.0714 57.8887 36.9004 57.8887 36.4831V3.76942C57.8887 3.27686 58.0118 3.08532 58.518 3.14004C58.9366 3.18108 59.3582 3.18108 59.7768 3.14004C60.242 3.09216 60.3925 3.22214 60.3856 3.72153V18.2381C60.3856 18.6281 60.454 18.7854 60.8919 18.7786H82.9678C83.4124 18.7786 83.4672 18.6007 83.4672 18.2244V3.76257C83.4672 3.28371 83.5629 3.07847 84.0897 3.12636C84.5237 3.17764 84.9623 3.17764 85.3963 3.12636C85.9162 3.07163 85.9846 3.2837 85.9846 3.74205C85.971 9.22169 85.9778 14.6671 85.9778 20.1057Z" fill="white"></path><path d="M0.136719 37.0304V3.22217H21.7201C22.2058 3.22217 22.3631 3.34531 22.3152 3.82418C22.2845 4.20665 22.2845 4.59098 22.3152 4.97346C22.3152 5.30867 22.2195 5.45233 21.8843 5.41129C21.7566 5.40445 21.6288 5.40445 21.5012 5.41129H3.20149C2.68841 5.41129 2.57211 5.55495 2.57211 6.0475V18.2655C2.57211 18.7923 2.74314 18.8881 3.25621 18.8881H20.9539C21.4464 18.8881 21.638 19.0249 21.5422 19.4969C21.4464 19.9689 21.7611 20.6736 21.4191 20.9609C21.077 21.2482 20.4818 21.043 19.9893 21.043H3.22885C2.76366 21.043 2.60632 21.1387 2.60632 21.6381V34.4034C2.60632 34.8549 2.71578 34.9781 3.17412 34.9781H22.0211C22.5478 34.9781 22.7394 35.1149 22.7052 35.6622C22.671 36.2095 22.9036 36.7841 22.6026 37.0851C22.3016 37.3861 21.6653 37.1809 21.1796 37.1809H0.793455L0.136719 37.0304Z" fill="white"></path><path d="M54.0232 3.18103C51.7999 5.43172 49.6449 7.63452 47.4627 9.8168C44.4207 12.8861 41.3651 15.9258 38.2957 18.9359C38.0563 19.1753 38.07 19.2916 38.2957 19.531C41.4882 22.9515 44.6943 26.372 47.9142 29.7925L54.331 36.6746C54.4131 36.7635 54.5363 36.8251 54.5431 37.044H51.0884C50.89 37.044 50.8011 36.9072 50.6916 36.7909C46.2222 31.8699 41.7527 26.9558 37.2833 22.0485L35.7782 20.3861C35.5548 20.0627 35.4391 19.6769 35.4477 19.2838C35.4563 18.8908 35.5887 18.5104 35.8261 18.197L42.2977 11.6844C44.9794 8.94799 47.6611 6.2344 50.3427 3.5436C50.4421 3.42855 50.5665 3.33786 50.7065 3.27856C50.8465 3.21925 50.9982 3.1929 51.15 3.20155C52.094 3.19471 53.0381 3.18103 54.0232 3.18103Z" fill="white"></path><path d="M28.3832 20.1125V3.74202C28.3832 3.28367 28.4926 3.13317 28.951 3.16738C29.4794 3.20151 30.0096 3.20151 30.5381 3.16738C30.8186 3.16738 30.9554 3.24263 30.9143 3.53679V36.3941C30.9143 36.9209 30.7912 37.0782 30.2302 37.044C29.7384 37.0064 29.2444 37.0064 28.7526 37.044C28.4447 37.044 28.3421 36.9619 28.349 36.6472V34.0203L28.3832 20.1125Z" fill="white"></path><path d="M104.524 20.0442C104.514 19.3631 104.641 18.687 104.897 18.056C105.154 17.4251 105.535 16.8522 106.017 16.3716C106.5 15.8909 107.074 15.5123 107.706 15.2582C108.338 15.0042 109.015 14.88 109.696 14.8929C110.716 14.8956 111.712 15.2006 112.558 15.7693C113.405 16.338 114.064 17.145 114.452 18.0881C114.84 19.0313 114.94 20.0683 114.739 21.0682C114.538 22.068 114.045 22.9858 113.322 23.7056C112.6 24.4253 111.68 24.9147 110.679 25.1118C109.679 25.3089 108.642 25.205 107.7 24.8132C106.759 24.4213 105.954 23.7591 105.389 22.9103C104.824 22.0614 104.523 21.064 104.524 20.0442Z" fill="#00B1AD"></path><path d="M119.368 13.3741C119.375 13.7166 119.315 14.057 119.189 14.3758C119.064 14.6945 118.876 14.9851 118.638 15.2308C118.399 15.4765 118.114 15.6723 117.799 15.8069C117.484 15.9414 117.145 16.0121 116.803 16.0148C116.103 16.0258 115.427 15.7592 114.923 15.2733C114.42 14.7874 114.129 14.1218 114.114 13.422C114.121 12.7219 114.401 12.0522 114.894 11.5553C115.387 11.0583 116.055 10.7733 116.755 10.7609C117.446 10.768 118.106 11.0456 118.595 11.5341C119.083 12.0227 119.361 12.6833 119.368 13.3741Z" fill="#FBB423"></path><path d="M118.917 27.1519C118.915 27.8426 118.64 28.5045 118.152 28.9929C117.663 29.4813 117.001 29.7565 116.311 29.7583C115.964 29.7574 115.621 29.6882 115.301 29.5547C114.981 29.4212 114.69 29.2259 114.445 28.9801C114.201 28.7342 114.007 28.4426 113.875 28.1219C113.743 27.8012 113.676 27.4576 113.677 27.1109C113.677 26.7642 113.748 26.4213 113.884 26.1024C114.02 25.7835 114.218 25.4952 114.468 25.2546C114.717 25.0141 115.013 24.8261 115.336 24.7019C115.66 24.5777 116.005 24.5199 116.352 24.5318C116.694 24.5298 117.033 24.5967 117.348 24.7284C117.664 24.86 117.95 25.0539 118.189 25.2983C118.429 25.5427 118.617 25.8328 118.741 26.1512C118.866 26.4696 118.926 26.8099 118.917 27.1519Z" fill="#FBB423"></path><path d="M119.361 17.7387C119.703 17.7351 120.043 17.799 120.36 17.9267C120.677 18.0544 120.966 18.2435 121.21 18.4831C121.454 18.7227 121.648 19.008 121.782 19.3229C121.915 19.6377 121.986 19.9758 121.988 20.3177C121.994 20.6642 121.931 21.0083 121.803 21.3304C121.675 21.6524 121.485 21.9461 121.244 22.1946C121.002 22.4431 120.714 22.6415 120.396 22.7784C120.077 22.9153 119.735 22.9881 119.389 22.9926C118.689 22.9854 118.019 22.7042 117.525 22.2093C117.03 21.7143 116.748 21.045 116.741 20.3451C116.748 19.6537 117.027 18.9928 117.517 18.5052C118.008 18.0175 118.67 17.7422 119.361 17.7387Z" fill="#FBB423"></path><path d="M112.582 10.3163C112.589 10.6583 112.528 10.9984 112.402 11.3164C112.276 11.6344 112.088 11.9241 111.848 12.1682C111.608 12.4123 111.322 12.6061 111.006 12.738C110.691 12.8699 110.352 12.9374 110.01 12.9364C109.663 12.94 109.318 12.875 108.997 12.7451C108.675 12.6152 108.382 12.423 108.135 12.1795C107.887 11.936 107.691 11.6461 107.556 11.3263C107.421 11.0066 107.35 10.6633 107.349 10.3163C107.357 9.62515 107.634 8.96437 108.12 8.47309C108.606 7.98181 109.264 7.69838 109.955 7.68248C110.302 7.67786 110.646 7.74288 110.967 7.87369C111.289 8.0045 111.58 8.19844 111.825 8.44403C112.07 8.68962 112.263 8.98186 112.393 9.30345C112.523 9.62504 112.588 9.96945 112.582 10.3163Z" fill="#FBB423"></path><path d="M109.36 32.3443C109.018 32.3545 108.676 32.2952 108.357 32.1702C108.038 32.0451 107.747 31.8568 107.502 31.6166C107.258 31.3763 107.064 31.0891 106.933 30.7721C106.802 30.4551 106.737 30.115 106.74 29.7721C106.74 29.079 107.016 28.4143 107.506 27.9242C107.996 27.4341 108.661 27.1588 109.354 27.1588C110.047 27.1588 110.711 27.4341 111.202 27.9242C111.692 28.4143 111.967 29.079 111.967 29.7721C111.966 30.1125 111.898 30.4494 111.766 30.7633C111.634 31.0772 111.442 31.3619 111.199 31.6011C110.957 31.8402 110.67 32.029 110.354 32.1565C110.039 32.2841 109.701 32.3479 109.36 32.3443Z" fill="#FBB423"></path><path d="M103.025 15.5633C102.335 15.567 101.671 15.297 101.178 14.8125C100.686 14.3279 100.406 13.6681 100.398 12.9774C100.397 12.277 100.672 11.6042 101.164 11.1058C101.656 10.6073 102.325 10.3235 103.025 10.3163C103.716 10.3181 104.377 10.5921 104.866 11.0788C105.356 11.5656 105.633 12.2257 105.639 12.9159C105.647 13.2629 105.585 13.6081 105.457 13.9308C105.329 14.2535 105.138 14.5471 104.894 14.7942C104.65 15.0412 104.359 15.2367 104.038 15.3688C103.717 15.5009 103.373 15.5671 103.025 15.5633Z" fill="white"></path><path d="M102.567 29.2795C102.224 29.2859 101.883 29.2234 101.565 29.0955C101.247 28.9677 100.957 28.7772 100.714 28.5353C100.471 28.2934 100.279 28.0052 100.149 27.6876C100.02 27.37 99.9556 27.0297 99.9602 26.6867C99.9548 26.1668 100.104 25.657 100.389 25.2223C100.675 24.7875 101.083 24.4475 101.562 24.2454C102.041 24.0432 102.569 23.9882 103.08 24.0873C103.59 24.1864 104.059 24.4352 104.428 24.8018C104.797 25.1685 105.048 25.6366 105.15 26.1465C105.251 26.6564 105.199 27.185 105 27.6651C104.8 28.1453 104.462 28.5551 104.029 28.8426C103.596 29.1301 103.087 29.2822 102.567 29.2795Z" fill="white"></path><path d="M99.9401 22.3427C99.3347 22.3378 98.7496 22.1235 98.2844 21.7361C97.8191 21.3487 97.5024 20.8121 97.388 20.2176C97.2736 19.6231 97.3687 19.0073 97.657 18.4749C97.9453 17.9425 98.4091 17.5264 98.9695 17.2973C99.5299 17.0683 100.152 17.0403 100.731 17.2183C101.31 17.3963 101.809 17.7691 102.144 18.2735C102.479 18.7779 102.629 19.3827 102.568 19.9851C102.507 20.5875 102.24 21.1503 101.811 21.5778C101.565 21.8226 101.273 22.0161 100.952 22.1474C100.631 22.2787 100.287 22.345 99.9401 22.3427Z" fill="white"></path><path d="M128.09 23.3552C127.894 23.3608 127.698 23.3263 127.515 23.2538C127.332 23.1813 127.165 23.0722 127.026 22.9333C126.886 22.7945 126.776 22.6286 126.703 22.4459C126.63 22.2632 126.594 22.0675 126.599 21.8707C126.624 21.4988 126.79 21.1505 127.062 20.8961C127.335 20.6416 127.694 20.5001 128.066 20.5001C128.439 20.5001 128.798 20.6416 129.07 20.8961C129.343 21.1505 129.508 21.4988 129.534 21.8707C129.539 22.0637 129.506 22.2558 129.436 22.4357C129.366 22.6156 129.26 22.7796 129.126 22.918C128.991 23.0564 128.83 23.1664 128.652 23.2415C128.475 23.3166 128.283 23.3553 128.09 23.3552Z" fill="#FBB424"></path><path d="M125.621 12.1838C125.233 12.1838 124.861 12.0296 124.586 11.755C124.311 11.4805 124.157 11.1081 124.157 10.7198C124.157 10.3316 124.311 9.9592 124.586 9.68465C124.861 9.4101 125.233 9.25586 125.621 9.25586C125.817 9.25674 126.011 9.29648 126.192 9.37276C126.373 9.44905 126.536 9.56038 126.674 9.70032C126.811 9.84026 126.919 10.006 126.992 10.1881C127.065 10.3701 127.102 10.5648 127.099 10.7609C127.088 11.1444 126.927 11.5083 126.651 11.7744C126.375 12.0405 126.005 12.1875 125.621 12.1838Z" fill="#FBB424"></path><path d="M108.286 38.5421C108.284 38.3487 108.319 38.1567 108.391 37.9772C108.463 37.7976 108.57 37.6341 108.705 37.4961C108.841 37.358 109.002 37.2482 109.181 37.173C109.359 37.0977 109.55 37.0585 109.744 37.0576C110.131 37.0626 110.501 37.2157 110.778 37.4855C111.056 37.7553 111.219 38.1212 111.235 38.5079C111.236 38.704 111.198 38.8983 111.123 39.0797C111.049 39.261 110.939 39.4258 110.8 39.5645C110.661 39.7031 110.497 39.8129 110.315 39.8876C110.134 39.9622 109.94 40.0002 109.744 39.9992C109.551 40.003 109.36 39.9678 109.182 39.8959C109.003 39.824 108.841 39.7168 108.705 39.5807C108.569 39.4447 108.462 39.2826 108.39 39.1041C108.318 38.9256 108.283 38.7345 108.286 38.5421Z" fill="#FBB424"></path><path d="M123.473 30.9076C123.664 30.904 123.854 30.9387 124.032 31.0098C124.209 31.0808 124.371 31.1868 124.506 31.3214C124.642 31.456 124.75 31.6165 124.823 31.7933C124.895 31.9702 124.932 32.1599 124.93 32.3511C124.929 32.5442 124.89 32.7353 124.815 32.9134C124.741 33.0915 124.632 33.2532 124.494 33.3891C124.357 33.525 124.194 33.6326 124.016 33.7057C123.837 33.7788 123.645 33.816 123.452 33.8151C123.259 33.8142 123.068 33.7752 122.89 33.7005C122.712 33.6257 122.55 33.5166 122.414 33.3794C122.278 33.2422 122.171 33.0796 122.098 32.9008C122.025 32.722 121.987 32.5306 121.988 32.3374C121.991 32.1458 122.032 31.9566 122.108 31.7807C122.184 31.6049 122.294 31.4459 122.432 31.3129C122.57 31.18 122.733 31.0757 122.912 31.0061C123.091 30.9366 123.281 30.9031 123.473 30.9076Z" fill="#FBB424"></path><path d="M113.581 39.5751C113.389 39.5778 113.199 39.5422 113.021 39.4704C112.844 39.3986 112.682 39.2919 112.547 39.1568C112.411 39.0217 112.303 38.8608 112.231 38.6835C112.158 38.5063 112.122 38.3163 112.123 38.1248C112.11 37.8193 112.19 37.517 112.352 37.2575C112.514 36.998 112.75 36.7936 113.03 36.6709C113.31 36.5482 113.621 36.513 113.921 36.57C114.222 36.627 114.498 36.7735 114.714 36.9902C114.929 37.2069 115.075 37.4838 115.13 37.7845C115.186 38.0852 115.149 38.3957 115.025 38.6752C114.901 38.9547 114.695 39.1902 114.435 39.3508C114.175 39.5114 113.872 39.5895 113.567 39.5751H113.581Z" fill="#FBB424"></path><path d="M114.881 1.95651C114.883 2.14833 114.846 2.33857 114.773 2.5159C114.7 2.69323 114.592 2.85403 114.455 2.98871C114.318 3.1234 114.156 3.22921 113.978 3.29987C113.799 3.37052 113.609 3.40456 113.417 3.39996C113.027 3.39179 112.656 3.229 112.386 2.9474C112.116 2.6658 111.969 2.28844 111.977 1.89836C111.985 1.50828 112.148 1.13741 112.429 0.867354C112.711 0.597296 113.088 0.450166 113.478 0.45833C113.67 0.462703 113.858 0.505151 114.032 0.583189C114.207 0.661227 114.364 0.773286 114.494 0.912804C114.625 1.05232 114.726 1.2165 114.793 1.39571C114.859 1.57493 114.889 1.76558 114.881 1.95651Z" fill="#FBB424"></path><path d="M125.819 25.6605C125.819 25.4693 125.856 25.2798 125.93 25.1032C126.003 24.9267 126.111 24.7667 126.248 24.6328C126.384 24.4988 126.546 24.3936 126.724 24.3234C126.902 24.2532 127.092 24.2193 127.283 24.2239C127.67 24.2273 128.039 24.3804 128.315 24.6509C128.591 24.9213 128.751 25.2882 128.761 25.6742C128.752 26.0699 128.589 26.4464 128.307 26.7237C128.024 27.0009 127.645 27.157 127.249 27.1587C126.862 27.1462 126.495 26.9822 126.228 26.702C125.961 26.4218 125.814 26.0478 125.819 25.6605Z" fill="#FBB424"></path><path d="M124.274 29.211C124.271 29.0198 124.307 28.8299 124.378 28.6524C124.449 28.4749 124.555 28.3133 124.689 28.1771C124.824 28.0409 124.984 27.9327 125.16 27.8589C125.337 27.7851 125.526 27.7471 125.717 27.7471C126.108 27.7471 126.482 27.902 126.757 28.1779C127.033 28.4537 127.188 28.8278 127.188 29.2179C127.188 29.608 127.033 29.9821 126.757 30.2579C126.482 30.5337 126.108 30.6887 125.717 30.6887C125.525 30.6897 125.334 30.6519 125.156 30.5776C124.978 30.5032 124.817 30.3939 124.682 30.256C124.548 30.1181 124.442 29.9545 124.372 29.775C124.302 29.5955 124.269 29.4037 124.274 29.211Z" fill="#FBB424"></path><path d="M121.893 7.57987C121.895 7.26469 121.998 6.95854 122.187 6.70652C122.377 6.45451 122.642 6.26996 122.944 6.18009C123.246 6.09021 123.569 6.09975 123.865 6.20731C124.162 6.31487 124.415 6.51476 124.59 6.77751C124.764 7.04027 124.849 7.35199 124.832 7.66674C124.816 7.9815 124.699 8.28263 124.498 8.52577C124.297 8.7689 124.024 8.94118 123.718 9.01721C123.412 9.09324 123.09 9.06901 122.799 8.94807C122.529 8.83591 122.299 8.64585 122.137 8.40215C121.976 8.15846 121.891 7.87218 121.893 7.57987Z" fill="#FBB424"></path><path d="M102.218 35.5117C102.505 35.5131 102.786 35.5999 103.024 35.761C103.262 35.9221 103.447 36.1503 103.555 36.4166C103.663 36.6829 103.689 36.9753 103.631 37.2567C103.573 37.5382 103.432 37.7959 103.227 37.9972C103.022 38.1985 102.761 38.3343 102.479 38.3873C102.196 38.4404 101.904 38.4084 101.64 38.2952C101.376 38.1821 101.151 37.993 100.995 37.752C100.838 37.511 100.757 37.2289 100.761 36.9415C100.768 36.5598 100.925 36.1962 101.197 35.9288C101.47 35.6614 101.836 35.5117 102.218 35.5117Z" fill="white"></path><path d="M120.614 36.4009C120.422 36.4092 120.231 36.3785 120.051 36.3107C119.872 36.2428 119.708 36.1392 119.57 36.0061C119.432 35.8731 119.322 35.7133 119.247 35.5366C119.173 35.3598 119.135 35.1698 119.136 34.9779C119.132 34.782 119.168 34.5872 119.241 34.4055C119.315 34.2237 119.424 34.0585 119.563 33.9199C119.701 33.7814 119.866 33.6721 120.048 33.5989C120.23 33.5256 120.425 33.4897 120.62 33.4934C121 33.5056 121.36 33.6627 121.628 33.9324C121.895 34.2022 122.049 34.5641 122.057 34.9437C122.061 35.1349 122.026 35.3249 121.955 35.5025C121.884 35.68 121.778 35.8415 121.643 35.9774C121.509 36.1132 121.348 36.2207 121.171 36.2935C120.995 36.3662 120.805 36.4027 120.614 36.4009Z" fill="#FBB424"></path><path d="M117.131 1.64867C117.47 1.65348 117.796 1.77526 118.054 1.9933C118.313 2.21135 118.488 2.51221 118.55 2.84475C118.612 3.17729 118.556 3.52099 118.394 3.81744C118.231 4.11389 117.97 4.34479 117.656 4.4709C117.342 4.59702 116.995 4.61056 116.672 4.50924C116.349 4.40791 116.072 4.19796 115.886 3.91507C115.701 3.63219 115.619 3.29382 115.655 2.95748C115.691 2.62113 115.842 2.30757 116.083 2.07008C116.221 1.93415 116.385 1.82694 116.565 1.75462C116.745 1.6823 116.937 1.64629 117.131 1.64867Z" fill="#FBB424"></path><path d="M95.8354 6.25265C96.1565 6.26254 96.4655 6.37725 96.7152 6.57926C96.9649 6.78127 97.1416 7.05947 97.2184 7.37136C97.2951 7.68326 97.2676 8.0117 97.1402 8.30652C97.0127 8.60133 96.7922 8.84632 96.5124 9.00404C96.2326 9.16176 95.9088 9.22356 95.5906 9.17998C95.2724 9.13641 94.9772 8.98986 94.7501 8.76273C94.523 8.53559 94.3764 8.24036 94.3329 7.92213C94.2894 7.60389 94.3512 7.28016 94.509 7.00037C94.6408 6.76657 94.8341 6.5733 95.0679 6.4415C95.3017 6.30969 95.5672 6.24439 95.8354 6.25265Z" fill="white"></path><path d="M128.077 16.5689C128.396 16.5907 128.698 16.7162 128.939 16.9262C129.18 17.1362 129.345 17.4191 129.41 17.7318C129.475 18.0446 129.436 18.37 129.299 18.6584C129.161 18.9468 128.934 19.1824 128.65 19.3293C128.366 19.4762 128.043 19.5264 127.728 19.4721C127.413 19.4178 127.125 19.262 126.907 19.0285C126.689 18.7951 126.553 18.4968 126.52 18.179C126.488 17.8613 126.56 17.5416 126.726 17.2687C126.865 17.0394 127.065 16.8529 127.303 16.7295C127.542 16.606 127.809 16.5505 128.077 16.5689Z" fill="#FBB424"></path><path d="M117.268 38.3644C116.976 38.3644 116.689 38.2771 116.447 38.1135C116.204 37.95 116.015 37.7177 115.905 37.4464C115.795 37.1751 115.768 36.8771 115.828 36.5905C115.888 36.304 116.033 36.0419 116.243 35.8378C116.453 35.6337 116.719 35.4968 117.007 35.4448C117.295 35.3928 117.592 35.4279 117.86 35.5457C118.128 35.6635 118.355 35.8585 118.512 36.106C118.668 36.3534 118.748 36.6419 118.739 36.9346C118.74 37.1262 118.703 37.3159 118.629 37.4926C118.555 37.6692 118.446 37.8291 118.308 37.9626C118.171 38.0961 118.008 38.2005 117.829 38.2695C117.651 38.3386 117.46 38.3708 117.268 38.3644Z" fill="#FBB424"></path><path d="M127.222 12.8063C127.414 12.7926 127.607 12.8197 127.788 12.8859C127.969 12.952 128.134 13.0556 128.272 13.1899C128.411 13.3243 128.519 13.4863 128.59 13.6654C128.661 13.8445 128.694 14.0367 128.686 14.2292C128.692 14.4251 128.659 14.6203 128.588 14.8028C128.516 14.9853 128.409 15.1514 128.271 15.291C128.133 15.4305 127.969 15.5406 127.787 15.6144C127.606 15.6883 127.411 15.7244 127.215 15.7206C126.829 15.7117 126.461 15.5535 126.19 15.2792C125.918 15.0049 125.763 14.6359 125.758 14.2498C125.756 14.0579 125.793 13.8677 125.866 13.6904C125.939 13.513 126.047 13.3522 126.184 13.2175C126.32 13.0829 126.483 12.977 126.661 12.9064C126.839 12.8357 127.03 12.8017 127.222 12.8063Z" fill="#FBB424"></path><path d="M109.271 0.102661H109.825C110.097 0.148188 110.351 0.269595 110.557 0.452904C110.763 0.636213 110.913 0.873969 110.99 1.1388C111.066 1.40363 111.067 1.68477 110.991 1.94984C110.915 2.21491 110.766 2.45314 110.56 2.6371C110.355 2.82106 110.102 2.94327 109.83 2.98965C109.558 3.03604 109.279 3.00472 109.024 2.8993C108.769 2.79387 108.549 2.61864 108.39 2.39376C108.23 2.16889 108.137 1.90352 108.122 1.6282C108.105 1.27963 108.21 0.936055 108.42 0.657305C108.63 0.378555 108.931 0.182283 109.271 0.102661Z" fill="#FBB424"></path><path d="M120.463 6.48531C120.272 6.48903 120.082 6.45406 119.904 6.38249C119.726 6.31092 119.565 6.20423 119.429 6.06881C119.294 5.93339 119.187 5.77203 119.116 5.59439C119.044 5.41675 119.009 5.2265 119.013 5.03502C119.013 4.64675 119.167 4.27438 119.442 3.99983C119.716 3.72528 120.089 3.57104 120.477 3.57104C120.865 3.57104 121.238 3.72528 121.512 3.99983C121.787 4.27438 121.941 4.64675 121.941 5.03502C121.942 5.22806 121.904 5.41934 121.83 5.59753C121.756 5.77572 121.646 5.93721 121.509 6.07243C121.371 6.20766 121.207 6.31387 121.028 6.38479C120.848 6.45571 120.656 6.48989 120.463 6.48531Z" fill="#FBB423"></path><path d="M91.2726 19.6337C91.0813 19.6355 90.8916 19.5993 90.7144 19.5272C90.5372 19.455 90.3762 19.3483 90.2406 19.2134C90.105 19.0785 89.9976 18.9179 89.9246 18.7411C89.8517 18.5643 89.8145 18.3747 89.8154 18.1834C89.8177 17.9903 89.858 17.7995 89.934 17.6219C90.0099 17.4443 90.1202 17.2834 90.2583 17.1484C90.3965 17.0134 90.5599 16.907 90.7392 16.8351C90.9185 16.7633 91.1102 16.7275 91.3034 16.7297C91.4965 16.732 91.6873 16.7722 91.8649 16.8482C92.0425 16.9242 92.2034 17.0344 92.3384 17.1726C92.4734 17.3108 92.5798 17.4742 92.6517 17.6535C92.7235 17.8328 92.7593 18.0245 92.7571 18.2176C92.7554 18.4089 92.7153 18.5979 92.6393 18.7735C92.5632 18.949 92.4527 19.1075 92.3142 19.2396C92.1758 19.3716 92.0123 19.4745 91.8334 19.5422C91.6544 19.6099 91.4637 19.641 91.2726 19.6337Z" fill="white"></path><path d="M90.6432 25.8248C90.6413 25.4377 90.7929 25.0657 91.0647 24.79C91.3365 24.5144 91.7064 24.3576 92.0935 24.354C92.489 24.3612 92.8659 24.5239 93.1424 24.8068C93.419 25.0898 93.573 25.4702 93.5711 25.8659C93.5586 26.2512 93.3953 26.6162 93.1164 26.8823C92.8375 27.1484 92.4652 27.2944 92.0798 27.2888C91.8883 27.2907 91.6983 27.254 91.5214 27.1807C91.3444 27.1075 91.184 26.9993 91.0499 26.8626C90.9158 26.7259 90.8106 26.5635 90.7407 26.3852C90.6708 26.2069 90.6376 26.0163 90.6432 25.8248Z" fill="white"></path><path d="M90.5885 14.4208C90.5839 14.2299 90.6177 14.04 90.6881 13.8625C90.7584 13.685 90.8637 13.5235 90.9977 13.3875C91.1318 13.2515 91.2918 13.1439 91.4683 13.0711C91.6448 12.9983 91.8342 12.9617 92.0251 12.9636C92.2164 12.96 92.4064 12.9944 92.5843 13.0649C92.7621 13.1354 92.9242 13.2405 93.0611 13.3742C93.1979 13.5079 93.3068 13.6674 93.3815 13.8436C93.4561 14.0197 93.495 14.2089 93.4959 14.4002C93.5005 14.5965 93.4656 14.7917 93.3932 14.9742C93.3208 15.1567 93.2125 15.3228 93.0746 15.4625C92.9368 15.6023 92.7722 15.7129 92.5907 15.7878C92.4092 15.8627 92.2146 15.9003 92.0182 15.8984C91.8267 15.8976 91.6372 15.8584 91.4609 15.7833C91.2847 15.7081 91.1253 15.5985 90.9921 15.4608C90.8588 15.3231 90.7545 15.1602 90.6852 14.9816C90.6159 14.803 90.583 14.6123 90.5885 14.4208Z" fill="white"></path><path d="M95.9659 31.017C96.1569 31.0143 96.3466 31.0493 96.5241 31.1202C96.7015 31.191 96.8632 31.2961 96.9999 31.4296C97.1365 31.5631 97.2455 31.7223 97.3205 31.898C97.3954 32.0738 97.4349 32.2626 97.4367 32.4536C97.4437 32.7461 97.3633 33.0339 97.2058 33.2805C97.0484 33.527 96.821 33.7211 96.5528 33.8378C96.2846 33.9545 95.9876 33.9886 95.6999 33.9358C95.4122 33.883 95.1467 33.7456 94.9374 33.5412C94.7282 33.3368 94.5846 33.0746 94.525 32.7882C94.4654 32.5018 94.4925 32.2042 94.6029 31.9333C94.7133 31.6623 94.9019 31.4305 95.1447 31.2673C95.3875 31.1041 95.6734 31.0169 95.9659 31.017Z" fill="white"></path><path d="M97.2856 5.0966C97.2847 4.90531 97.3219 4.71575 97.3948 4.53893C97.4678 4.36211 97.5752 4.20156 97.7108 4.06662C97.8464 3.93167 98.0074 3.82502 98.1846 3.75287C98.3618 3.68071 98.5515 3.64449 98.7428 3.64631C99.1234 3.66209 99.4833 3.82357 99.7482 4.09734C100.013 4.37111 100.163 4.73622 100.166 5.11712C100.17 5.31307 100.133 5.50774 100.059 5.68905C99.9845 5.87036 99.8736 6.03443 99.7331 6.17108C99.5926 6.30772 99.4255 6.41403 99.2422 6.48338C99.0589 6.55274 98.8633 6.58367 98.6675 6.57425C98.4771 6.57677 98.2883 6.53951 98.1131 6.46485C97.9379 6.3902 97.7802 6.2798 97.6501 6.14071C97.5201 6.00162 97.4205 5.83691 97.3577 5.65712C97.2949 5.47733 97.2704 5.28642 97.2856 5.0966Z" fill="white"></path><path d="M102.088 4.61769C101.896 4.63229 101.703 4.6061 101.521 4.54085C101.34 4.4756 101.174 4.37275 101.036 4.23905C100.897 4.10535 100.788 3.94381 100.716 3.76502C100.643 3.58624 100.61 3.39424 100.617 3.20161C100.61 3.00638 100.642 2.81168 100.713 2.62952C100.784 2.44736 100.891 2.28161 101.028 2.14251C101.165 2.0034 101.329 1.89388 101.511 1.82072C101.692 1.74755 101.886 1.71229 102.081 1.71711C102.468 1.71711 102.838 1.87063 103.112 2.14389C103.385 2.41716 103.538 2.78779 103.538 3.17424C103.541 3.36515 103.506 3.55467 103.434 3.7315C103.362 3.90834 103.255 4.06888 103.119 4.20357C102.984 4.33826 102.823 4.44433 102.646 4.51548C102.469 4.58662 102.279 4.62139 102.088 4.61769Z" fill="white"></path><path d="M92.1621 10.8772C92.1476 10.6856 92.1736 10.4931 92.2385 10.3122C92.3033 10.1313 92.4055 9.96607 92.5385 9.82731C92.6714 9.68855 92.8321 9.57935 93.0101 9.50683C93.188 9.43431 93.3793 9.4001 93.5714 9.40641C93.7703 9.39023 93.9704 9.41508 94.1593 9.47943C94.3482 9.54377 94.5219 9.64625 94.6696 9.78049C94.8173 9.91473 94.9358 10.0779 95.0179 10.2598C95.0999 10.4418 95.1437 10.6386 95.1465 10.8382C95.1493 11.0377 95.1111 11.2357 95.0343 11.4199C94.9574 11.6041 94.8435 11.7705 94.6997 11.9089C94.5558 12.0473 94.3851 12.1546 94.1981 12.2242C94.011 12.2939 93.8117 12.3244 93.6124 12.3138C93.4216 12.3194 93.2316 12.2862 93.054 12.2162C92.8764 12.1461 92.715 12.0407 92.5793 11.9064C92.4437 11.772 92.3368 11.6116 92.2651 11.4346C92.1933 11.2577 92.1583 11.0681 92.1621 10.8772Z" fill="white"></path><path d="M100.302 35.0465C100.308 35.2373 100.275 35.4273 100.205 35.6052C100.136 35.7831 100.031 35.9451 99.898 36.0817C99.7646 36.2183 99.605 36.3267 99.4289 36.4003C99.2527 36.474 99.0635 36.5114 98.8726 36.5104C98.6801 36.5105 98.4896 36.4721 98.3122 36.3974C98.1348 36.3227 97.9741 36.2133 97.8396 36.0756C97.7051 35.938 97.5995 35.7748 97.529 35.5957C97.4585 35.4166 97.4246 35.2252 97.4291 35.0328C97.4245 34.8419 97.4584 34.6521 97.5287 34.4745C97.599 34.297 97.7043 34.1355 97.8384 33.9995C97.9724 33.8635 98.1325 33.7559 98.309 33.6831C98.4855 33.6103 98.6748 33.5738 98.8657 33.5756C99.0601 33.5653 99.2543 33.5966 99.4356 33.6674C99.6169 33.7381 99.781 33.8467 99.9169 33.9859C100.053 34.1251 100.158 34.2917 100.224 34.4746C100.291 34.6575 100.317 34.8524 100.302 35.0465Z" fill="white"></path><path d="M105.768 3.41371C105.574 3.43242 105.378 3.40929 105.193 3.34589C105.008 3.28248 104.839 3.18027 104.697 3.04612C104.555 2.91197 104.444 2.749 104.37 2.56815C104.296 2.3873 104.262 2.19276 104.27 1.99762C104.259 1.80226 104.288 1.60665 104.356 1.42325C104.424 1.23984 104.53 1.07267 104.667 0.932374C104.803 0.792078 104.967 0.681735 105.149 0.608376C105.33 0.535017 105.525 0.500248 105.72 0.506286C105.912 0.503541 106.102 0.539128 106.28 0.610954C106.457 0.68278 106.619 0.789394 106.754 0.924524C106.89 1.05965 106.997 1.22057 107.07 1.39781C107.143 1.57505 107.179 1.76503 107.177 1.95658C107.182 2.14515 107.149 2.33275 107.08 2.50845C107.012 2.68416 106.909 2.84447 106.778 2.98006C106.647 3.11565 106.49 3.22381 106.317 3.29826C106.143 3.37271 105.957 3.41195 105.768 3.41371Z" fill="white"></path><path d="M105.933 36.6952C106.25 36.7216 106.549 36.851 106.786 37.0636C107.022 37.2761 107.183 37.5602 107.243 37.8725C107.303 38.1848 107.259 38.5081 107.118 38.7932C106.977 39.0782 106.747 39.3094 106.462 39.4513C106.177 39.5932 105.854 39.6381 105.542 39.5792C105.229 39.5203 104.945 39.3608 104.731 39.125C104.518 38.8893 104.387 38.5902 104.36 38.2734C104.332 37.9566 104.409 37.6395 104.579 37.3704C104.721 37.1447 104.923 36.9624 105.161 36.8434C105.4 36.7243 105.667 36.6731 105.933 36.6952Z" fill="white"></path><path d="M89.8357 21.9869C89.8483 21.6997 89.9461 21.4226 90.1166 21.191C90.287 20.9594 90.5225 20.7838 90.793 20.6863C91.0636 20.5888 91.357 20.574 91.636 20.6437C91.915 20.7134 92.167 20.8644 92.3599 21.0776C92.5529 21.2908 92.6781 21.5566 92.7196 21.8411C92.7612 22.1257 92.7173 22.4161 92.5934 22.6756C92.4695 22.9351 92.2712 23.1519 92.0238 23.2985C91.7764 23.4451 91.491 23.5148 91.2039 23.4988C91.0115 23.4999 90.821 23.4603 90.6449 23.3828C90.4688 23.3052 90.311 23.1914 90.1819 23.0487C90.0527 22.906 89.9552 22.7377 89.8955 22.5547C89.8359 22.3718 89.8155 22.1783 89.8357 21.9869Z" fill="white"></path><path d="M95.1381 29.3479C95.1484 29.5412 95.1189 29.7346 95.0515 29.9161C94.9841 30.0977 94.8802 30.2634 94.7462 30.4032C94.6122 30.543 94.4509 30.6538 94.2724 30.7288C94.0939 30.8037 93.9019 30.8413 93.7083 30.8392C93.509 30.8529 93.309 30.8254 93.1208 30.7586C92.9325 30.6917 92.7601 30.5869 92.6141 30.4505C92.468 30.3142 92.3516 30.1493 92.272 29.9661C92.1924 29.7829 92.1514 29.5852 92.1514 29.3855C92.1514 29.1857 92.1924 28.9881 92.272 28.8049C92.3516 28.6217 92.468 28.4568 92.6141 28.3204C92.7601 28.1841 92.9325 28.0793 93.1208 28.0124C93.309 27.9455 93.509 27.9181 93.7083 27.9318C93.8954 27.93 94.081 27.9653 94.2544 28.0356C94.4278 28.106 94.5855 28.21 94.7185 28.3417C94.8514 28.4733 94.9569 28.6301 95.029 28.8028C95.101 28.9755 95.1381 29.1607 95.1381 29.3479Z" fill="white"></path><path d="M96.8749 25.9615C97.0109 25.956 97.1467 25.9781 97.2739 26.0266C97.4012 26.075 97.5173 26.1489 97.6151 26.2435C97.713 26.3382 97.7906 26.4518 97.8433 26.5773C97.896 26.7029 97.9226 26.8378 97.9216 26.974C97.9252 27.2504 97.8194 27.5171 97.6271 27.7158C97.4349 27.9144 97.1718 28.029 96.8954 28.0344C96.6211 28.0293 96.3591 27.9195 96.1632 27.7274C95.9673 27.5353 95.8523 27.2755 95.8419 27.0014C95.8401 26.8649 95.8655 26.7294 95.9167 26.6029C95.9679 26.4763 96.0438 26.3613 96.14 26.2645C96.2362 26.1676 96.3507 26.091 96.4769 26.0389C96.6031 25.9869 96.7384 25.9606 96.8749 25.9615Z" fill="white"></path><path d="M105.556 32.9737C105.692 32.9719 105.827 32.9974 105.953 33.0487C106.079 33.1 106.193 33.1762 106.289 33.2726C106.384 33.369 106.46 33.4836 106.51 33.6098C106.561 33.7359 106.585 33.8709 106.583 34.0067C106.539 34.2496 106.41 34.469 106.219 34.6257C106.029 34.7824 105.789 34.8662 105.542 34.8621C105.295 34.858 105.058 34.7662 104.873 34.6033C104.687 34.4403 104.566 34.2167 104.53 33.9725C104.529 33.8388 104.555 33.7062 104.607 33.5827C104.658 33.4593 104.734 33.3476 104.83 33.2543C104.926 33.161 105.04 33.088 105.165 33.0398C105.29 32.9916 105.423 32.9691 105.556 32.9737Z" fill="white"></path><path d="M110.01 4.48087C110.148 4.46966 110.288 4.48681 110.419 4.53127C110.55 4.57573 110.671 4.64656 110.775 4.73944C110.878 4.83231 110.961 4.94526 111.019 5.07136C111.077 5.19747 111.108 5.33408 111.111 5.47282C111.099 5.7365 110.988 5.98589 110.8 6.17101C110.612 6.35613 110.361 6.46332 110.097 6.47111C109.833 6.47889 109.576 6.3867 109.377 6.21299C109.178 6.03929 109.053 5.7969 109.025 5.53439C109.018 5.39984 109.037 5.26518 109.083 5.13853C109.129 5.01188 109.201 4.89585 109.293 4.79742C109.385 4.69899 109.496 4.62021 109.619 4.56581C109.742 4.51141 109.875 4.48252 110.01 4.48087Z" fill="#01B1AD"></path><path d="M99.0512 31.106C98.91 31.096 98.7723 31.0573 98.6467 30.9922C98.521 30.9271 98.4099 30.8371 98.3202 30.7275C98.2306 30.618 98.1642 30.4913 98.1252 30.3553C98.0862 30.2192 98.0754 30.0766 98.0934 29.9362C98.1211 29.671 98.2523 29.4274 98.4585 29.2583C98.6647 29.0892 98.9293 29.0084 99.1949 29.0332C99.3334 29.04 99.4691 29.0748 99.5938 29.1355C99.7186 29.1962 99.8297 29.2816 99.9205 29.3864C100.011 29.4913 100.08 29.6135 100.122 29.7456C100.164 29.8777 100.179 30.0171 100.166 30.1551C100.135 30.4254 100.003 30.6738 99.7961 30.8503C99.5891 31.0268 99.3229 31.1182 99.0512 31.106Z" fill="white"></path><path d="M96.2326 12.4437C96.2299 12.307 96.2546 12.1711 96.3055 12.0442C96.3563 11.9172 96.4322 11.8018 96.5286 11.7047C96.625 11.6077 96.7399 11.5311 96.8665 11.4794C96.9931 11.4277 97.1289 11.402 97.2656 11.4039C97.5403 11.4092 97.802 11.5217 97.9949 11.7172C98.1879 11.9127 98.2969 12.1759 98.2986 12.4506C98.3154 12.5953 98.3013 12.7419 98.2574 12.8808C98.2134 13.0197 98.1406 13.1477 98.0437 13.2565C97.9468 13.3652 97.828 13.4523 97.6951 13.5118C97.5622 13.5714 97.4181 13.6023 97.2725 13.6023C97.1268 13.6023 96.9828 13.5714 96.8499 13.5118C96.7169 13.4523 96.5981 13.3652 96.5012 13.2565C96.4043 13.1477 96.3315 13.0197 96.2876 12.8808C96.2436 12.7419 96.2296 12.5953 96.2463 12.4506L96.2326 12.4437Z" fill="white"></path><path d="M123.781 17.6634C123.642 17.6663 123.505 17.6409 123.376 17.5888C123.248 17.5367 123.131 17.459 123.034 17.3604C122.937 17.2618 122.861 17.1444 122.81 17.0153C122.76 16.8863 122.736 16.7484 122.741 16.6099C122.748 16.3341 122.863 16.0721 123.061 15.8802C123.26 15.6883 123.525 15.5819 123.801 15.5838C123.938 15.5882 124.072 15.6195 124.197 15.6759C124.321 15.7322 124.433 15.8126 124.527 15.9124C124.62 16.0121 124.693 16.1293 124.741 16.2572C124.789 16.3851 124.811 16.5212 124.807 16.6578C124.808 16.7919 124.782 16.9248 124.73 17.0486C124.679 17.1724 124.603 17.2845 124.507 17.3784C124.411 17.4722 124.298 17.5458 124.173 17.5948C124.048 17.6438 123.915 17.6671 123.781 17.6634Z" fill="#04B1AD"></path><path d="M119.765 29.5668C120.032 29.581 120.283 29.6993 120.463 29.8963C120.643 30.0934 120.739 30.3533 120.73 30.6203C120.718 30.8955 120.599 31.1551 120.398 31.3441C120.198 31.5331 119.931 31.6366 119.656 31.6328C119.513 31.6305 119.373 31.5989 119.243 31.5399C119.113 31.4809 118.997 31.3958 118.901 31.29C118.805 31.1841 118.732 31.0597 118.687 30.9245C118.642 30.7893 118.624 30.6461 118.637 30.504C118.644 30.3664 118.68 30.2318 118.741 30.1086C118.803 29.9855 118.89 29.8765 118.996 29.7885C119.102 29.7004 119.225 29.6353 119.358 29.5971C119.49 29.559 119.629 29.5487 119.765 29.5668Z" fill="#01B1AD"></path><path d="M101.042 32.4331C101.042 32.2966 101.069 32.1615 101.122 32.0357C101.175 31.9098 101.252 31.7958 101.35 31.7002C101.447 31.6046 101.563 31.5295 101.69 31.4791C101.817 31.4288 101.952 31.4043 102.089 31.407C102.237 31.3826 102.39 31.3909 102.535 31.4312C102.68 31.4716 102.815 31.543 102.93 31.6407C103.045 31.7383 103.137 31.8597 103.201 31.9966C103.264 32.1334 103.297 32.2824 103.297 32.4331C103.297 32.5839 103.264 32.7329 103.201 32.8697C103.137 33.0066 103.045 33.128 102.93 33.2256C102.815 33.3232 102.68 33.3947 102.535 33.4351C102.39 33.4754 102.237 33.4837 102.089 33.4593C101.952 33.462 101.817 33.4375 101.69 33.3871C101.563 33.3368 101.447 33.2617 101.35 33.1661C101.252 33.0705 101.175 32.9565 101.122 32.8306C101.069 32.7048 101.042 32.5696 101.042 32.4331Z" fill="white"></path><path d="M121.236 10.0152C121.239 10.1514 121.214 10.2868 121.165 10.4136C121.115 10.5404 121.04 10.6561 120.946 10.7541C120.851 10.852 120.738 10.9302 120.612 10.9842C120.487 11.0382 120.353 11.0669 120.217 11.0687C119.943 11.059 119.683 10.9479 119.487 10.7569C119.291 10.5659 119.173 10.3088 119.156 10.0357C119.16 9.76036 119.27 9.4972 119.464 9.30186C119.658 9.10652 119.921 8.99433 120.196 8.98902C120.332 8.98532 120.468 9.00923 120.595 9.05931C120.722 9.1094 120.838 9.18462 120.935 9.28047C121.032 9.37631 121.109 9.4908 121.16 9.61706C121.212 9.74331 121.238 9.87873 121.236 10.0152Z" fill="#05B1AD"></path><path d="M123.179 20.4203C123.173 20.2837 123.195 20.1474 123.245 20.0199C123.294 19.8925 123.37 19.7766 123.466 19.6796C123.562 19.5826 123.678 19.5066 123.805 19.4563C123.932 19.406 124.068 19.3825 124.205 19.3873C124.479 19.3837 124.744 19.4888 124.942 19.6798C125.139 19.8707 125.253 20.1321 125.258 20.4066C125.245 20.6814 125.131 20.9416 124.938 21.1373C124.745 21.333 124.486 21.4504 124.212 21.467C123.936 21.4634 123.674 21.3515 123.48 21.1556C123.287 20.9597 123.179 20.6956 123.179 20.4203Z" fill="#04B1AD"></path><path d="M112.767 6.12264C112.76 5.98674 112.781 5.85093 112.828 5.72309C112.874 5.59525 112.946 5.47795 113.038 5.37801C113.13 5.27806 113.242 5.19747 113.365 5.14092C113.489 5.08437 113.623 5.05299 113.759 5.04861C113.9 5.0477 114.04 5.07459 114.17 5.12774C114.301 5.18088 114.42 5.25924 114.52 5.35834C114.621 5.45744 114.7 5.57534 114.755 5.7053C114.81 5.83527 114.839 5.97476 114.84 6.1158C114.828 6.37651 114.72 6.6237 114.537 6.80948C114.354 6.99527 114.108 7.10643 113.848 7.12143C113.71 7.1328 113.571 7.1154 113.44 7.07032C113.309 7.02525 113.189 6.95348 113.088 6.85958C112.986 6.76567 112.905 6.65168 112.85 6.52482C112.795 6.39796 112.766 6.26101 112.767 6.12264Z" fill="#06B1AD"></path><path d="M95.6986 14.8928C95.9703 14.8891 96.2324 14.9926 96.4283 15.1808C96.6242 15.369 96.7381 15.6268 96.7453 15.8984C96.7404 16.1741 96.6311 16.4377 96.4393 16.6358C96.2475 16.8339 95.9877 16.9518 95.7123 16.9656C95.5761 16.9674 95.4408 16.9423 95.3144 16.8916C95.1879 16.8409 95.0727 16.7657 94.9754 16.6704C94.8781 16.575 94.8007 16.4613 94.7475 16.3359C94.6943 16.2104 94.6665 16.0757 94.6656 15.9395C94.6609 15.8019 94.6844 15.6649 94.7344 15.5367C94.7845 15.4085 94.8602 15.2918 94.9569 15.1938C95.0536 15.0959 95.1692 15.0187 95.2967 14.9669C95.4243 14.9151 95.561 14.8899 95.6986 14.8928Z" fill="white"></path><path d="M101.699 7.27887C101.687 7.14102 101.705 7.00229 101.75 6.87169C101.796 6.7411 101.869 6.62157 101.963 6.5209C102.058 6.42022 102.173 6.34066 102.301 6.28738C102.429 6.2341 102.566 6.20831 102.704 6.21167C102.841 6.20804 102.976 6.23139 103.103 6.28039C103.231 6.32939 103.347 6.40307 103.445 6.49718C103.544 6.5913 103.623 6.70398 103.678 6.82874C103.732 6.95351 103.762 7.08789 103.765 7.22414C103.76 7.49982 103.651 7.76337 103.459 7.96149C103.267 8.15961 103.007 8.2775 102.732 8.29134C102.597 8.29314 102.464 8.26834 102.339 8.21835C102.214 8.16836 102.101 8.09418 102.005 8.00007C101.909 7.90597 101.832 7.7938 101.78 7.67002C101.727 7.54624 101.7 7.41331 101.699 7.27887Z" fill="white"></path><path d="M123.097 27.6514C123.099 27.7875 123.073 27.9226 123.022 28.0485C122.97 28.1744 122.893 28.2885 122.796 28.3838C122.698 28.4791 122.583 28.5537 122.456 28.603C122.329 28.6523 122.193 28.6753 122.057 28.6707C121.782 28.662 121.521 28.5477 121.327 28.3517C121.133 28.1556 121.023 27.8926 121.018 27.6172C121.02 27.4833 121.049 27.3513 121.103 27.2286C121.157 27.106 121.234 26.9951 121.331 26.9024C121.427 26.8096 121.541 26.7368 121.666 26.6881C121.79 26.6393 121.924 26.6157 122.057 26.6184C122.196 26.6094 122.334 26.6299 122.464 26.6786C122.594 26.7273 122.712 26.8029 122.81 26.9006C122.908 26.9982 122.985 27.1157 123.034 27.2451C123.084 27.3745 123.105 27.513 123.097 27.6514Z" fill="#04B1AD"></path><path d="M106.248 6.89569C106.111 6.89666 105.976 6.87009 105.849 6.81757C105.723 6.76506 105.609 6.68766 105.513 6.59C105.417 6.49233 105.342 6.3764 105.292 6.2491C105.242 6.1218 105.218 5.98574 105.222 5.84902C105.2 5.6999 105.211 5.54783 105.254 5.40334C105.297 5.25885 105.37 5.1254 105.47 5.01223C105.569 4.89906 105.692 4.80888 105.83 4.74792C105.968 4.68696 106.117 4.65669 106.268 4.6592C106.419 4.66171 106.567 4.69695 106.703 4.76246C106.839 4.82798 106.958 4.92221 107.054 5.03864C107.15 5.15506 107.219 5.29089 107.257 5.43673C107.295 5.58256 107.301 5.73491 107.274 5.88322C107.274 6.01734 107.248 6.15013 107.196 6.27386C107.144 6.3976 107.068 6.50983 106.973 6.60403C106.877 6.69822 106.764 6.77252 106.64 6.82258C106.515 6.87265 106.382 6.8975 106.248 6.89569Z" fill="white"></path><path d="M96.1432 19.6815C96.1451 19.8174 96.1196 19.9522 96.0682 20.078C96.0169 20.2038 95.9408 20.318 95.8444 20.4137C95.748 20.5095 95.6333 20.5848 95.5072 20.6353C95.3811 20.6858 95.2461 20.7104 95.1102 20.7077C94.8356 20.7023 94.5743 20.5885 94.3833 20.3911C94.1924 20.1937 94.0872 19.9288 94.0909 19.6542C94.0899 19.5177 94.1165 19.3824 94.1691 19.2565C94.2217 19.1306 94.2992 19.0166 94.397 18.9214C94.4947 18.8262 94.6107 18.7517 94.738 18.7025C94.8653 18.6532 95.0012 18.6302 95.1376 18.6349C95.2735 18.6338 95.4081 18.6604 95.5333 18.7132C95.6585 18.7659 95.7717 18.8436 95.8658 18.9416C95.9599 19.0396 96.0331 19.1558 96.0808 19.283C96.1285 19.4102 96.1497 19.5458 96.1432 19.6815Z" fill="white"></path><path d="M121.427 13.0527C121.427 12.9168 121.455 12.7822 121.508 12.6574C121.562 12.5325 121.64 12.4198 121.739 12.3263C121.838 12.2328 121.954 12.1604 122.082 12.1136C122.209 12.0667 122.345 12.0464 122.481 12.0539C122.755 12.0646 123.015 12.1821 123.204 12.3815C123.393 12.5809 123.497 12.8463 123.493 13.1211C123.476 13.3951 123.354 13.652 123.153 13.839C122.952 14.0261 122.687 14.129 122.412 14.1267C122.277 14.1223 122.143 14.0909 122.02 14.0343C121.896 13.9777 121.786 13.8969 121.694 13.7969C121.602 13.6968 121.531 13.5795 121.485 13.4517C121.44 13.3239 121.42 13.1882 121.427 13.0527Z" fill="#03B1AD"></path><path d="M95.5006 24.4566C95.3642 24.4595 95.2287 24.4344 95.1023 24.3829C94.976 24.3314 94.8615 24.2546 94.766 24.1572C94.6705 24.0597 94.596 23.9438 94.547 23.8164C94.498 23.6891 94.4757 23.5531 94.4813 23.4167C94.4903 23.1415 94.6073 22.8809 94.8071 22.6914C95.0068 22.5019 95.2732 22.3987 95.5485 22.4043C95.6848 22.4069 95.8191 22.4365 95.9439 22.4913C96.0687 22.5462 96.1814 22.6251 96.2755 22.7237C96.3696 22.8223 96.4433 22.9385 96.4923 23.0656C96.5413 23.1928 96.5646 23.3284 96.561 23.4646C96.5603 23.6006 96.5319 23.7349 96.4775 23.8595C96.4231 23.9841 96.3438 24.0962 96.2445 24.1891C96.1453 24.2819 96.0281 24.3536 95.9002 24.3995C95.7723 24.4455 95.6363 24.4649 95.5006 24.4566Z" fill="white"></path><path d="M124.63 24.1692C124.634 24.3056 124.611 24.4414 124.561 24.5685C124.511 24.6955 124.436 24.8109 124.34 24.9077C124.244 25.0045 124.129 25.0806 124.002 25.1312C123.876 25.1819 123.74 25.206 123.603 25.2022C123.455 25.2266 123.302 25.2183 123.157 25.178C123.012 25.1376 122.877 25.0662 122.762 24.9686C122.647 24.8709 122.555 24.7495 122.492 24.6127C122.428 24.4758 122.396 24.3268 122.396 24.1761C122.396 24.0253 122.428 23.8763 122.492 23.7395C122.555 23.6026 122.647 23.4812 122.762 23.3836C122.877 23.286 123.012 23.2145 123.157 23.1742C123.302 23.1338 123.455 23.1255 123.603 23.1499C123.738 23.1481 123.872 23.1732 123.997 23.2237C124.122 23.2741 124.235 23.3491 124.331 23.444C124.426 23.5389 124.502 23.6519 124.553 23.7765C124.605 23.901 124.631 24.0345 124.63 24.1692Z" fill="#02B1AD"></path><path d="M98.6271 9.51582C98.6206 9.37889 98.642 9.24207 98.69 9.11365C98.738 8.98523 98.8115 8.86789 98.9062 8.76874C99.0008 8.66959 99.1147 8.5907 99.2407 8.53685C99.3668 8.483 99.5025 8.45531 99.6396 8.45547C99.777 8.45455 99.9132 8.48104 100.04 8.5334C100.167 8.58576 100.283 8.66293 100.379 8.7604C100.476 8.85787 100.553 8.97367 100.604 9.10104C100.656 9.2284 100.681 9.36476 100.679 9.50214C100.681 9.6342 100.657 9.76533 100.608 9.88803C100.559 10.0107 100.487 10.1226 100.395 10.2173C100.302 10.3119 100.193 10.3875 100.071 10.4397C99.9499 10.4919 99.8195 10.5197 99.6875 10.5214C99.5504 10.5309 99.4129 10.5119 99.2836 10.4654C99.1543 10.419 99.036 10.3462 98.9363 10.2516C98.8366 10.1571 98.7577 10.0429 98.7045 9.91619C98.6512 9.78953 98.6249 9.65319 98.6271 9.51582Z" fill="white"></path><path d="M108.272 34.5813C108.27 34.4454 108.294 34.3104 108.344 34.1839C108.394 34.0575 108.468 33.9423 108.563 33.8449C108.658 33.7475 108.771 33.6699 108.896 33.6167C109.021 33.5634 109.156 33.5355 109.292 33.5347C109.428 33.5356 109.563 33.5633 109.689 33.6164C109.815 33.6695 109.929 33.7469 110.025 33.8441C110.121 33.9413 110.197 34.0564 110.248 34.1829C110.3 34.3094 110.326 34.4448 110.325 34.5813C110.327 34.7184 110.303 34.8546 110.252 34.9819C110.201 35.1093 110.125 35.2251 110.029 35.3227C109.933 35.4203 109.818 35.4975 109.691 35.55C109.565 35.6024 109.429 35.629 109.292 35.628C109.155 35.63 109.019 35.6041 108.893 35.5518C108.766 35.4995 108.652 35.4221 108.557 35.3241C108.461 35.2261 108.387 35.1097 108.338 34.982C108.289 34.8543 108.267 34.718 108.272 34.5813Z" fill="#03B1AD"></path><path d="M117.268 8.66074C117.135 8.66717 117.003 8.64699 116.878 8.60139C116.753 8.55579 116.638 8.48568 116.541 8.3952C116.443 8.30471 116.365 8.19566 116.31 8.07444C116.255 7.95323 116.225 7.82229 116.222 7.68932C116.21 7.41324 116.308 7.14381 116.494 6.93907C116.679 6.73433 116.938 6.61068 117.214 6.59476C117.348 6.58739 117.483 6.60726 117.61 6.6532C117.737 6.69914 117.854 6.7702 117.953 6.86214C118.052 6.95408 118.131 7.06502 118.186 7.18833C118.242 7.31165 118.271 7.44481 118.274 7.57987C118.287 7.71879 118.271 7.85903 118.227 7.99128C118.182 8.12353 118.11 8.24478 118.015 8.34698C117.92 8.44918 117.804 8.53 117.675 8.5841C117.547 8.63819 117.408 8.66432 117.268 8.66074Z" fill="#02B1AD"></path><path d="M116.626 31.7832C116.775 31.7588 116.927 31.7671 117.072 31.8075C117.217 31.8478 117.352 31.9193 117.467 32.0169C117.582 32.1145 117.674 32.2359 117.738 32.3728C117.801 32.5096 117.834 32.6586 117.834 32.8094C117.834 32.9601 117.801 33.1091 117.738 33.246C117.674 33.3828 117.582 33.5042 117.467 33.6019C117.352 33.6995 117.217 33.7709 117.072 33.8113C116.927 33.8516 116.775 33.8599 116.626 33.8355C116.352 33.8218 116.093 33.7048 115.901 33.5082C115.709 33.3115 115.599 33.0496 115.593 32.7752C115.61 32.5106 115.725 32.2621 115.917 32.0784C116.108 31.8948 116.361 31.7895 116.626 31.7832Z" fill="#01B1AD"></path><path d="M113.075 35.1969C112.938 35.2024 112.802 35.1801 112.674 35.1312C112.547 35.0823 112.43 35.0079 112.332 34.9125C112.234 34.8171 112.157 34.7027 112.105 34.5764C112.052 34.45 112.026 34.3143 112.028 34.1775C112.034 33.9005 112.148 33.6368 112.347 33.4434C112.545 33.2501 112.812 33.1427 113.089 33.1446C113.355 33.1499 113.609 33.2584 113.796 33.4474C113.984 33.6363 114.091 33.8908 114.094 34.157C114.101 34.2936 114.079 34.4301 114.031 34.5579C113.982 34.6857 113.908 34.8021 113.812 34.8997C113.716 34.9973 113.601 35.0742 113.475 35.1253C113.348 35.1764 113.212 35.2008 113.075 35.1969Z" fill="#02B1AD"></path></g><defs><clipPath id="clip0_160_26"><rect width="129.641" height="40" fill="white"></rect></clipPath></defs></svg>