<?xml version="1.0" encoding="UTF-8"?>
<svg version="1.1" xmlns="http://www.w3.org/2000/svg" width="194" height="71">
<path d="M0 0 C4.03406932 0.06421818 4.95882236 0.263705 8.3125 2.8125 C10.1875 5.4375 10.1875 5.4375 10.1875 7.4375 C11.734375 7.31375 11.734375 7.31375 13.3125 7.1875 C17.8379277 7.47946308 19.70950909 8.60657717 23.1875 11.4375 C25.52918764 14.95003146 25.68373677 16.30219356 25.1875 20.4375 C23.09491149 23.61246188 21.36058714 25.32210857 18.1875 27.4375 C18.22875 28.695625 18.27 29.95375 18.3125 31.25 C18.42589355 34.71480288 18.26543165 35.32303788 16.1875 38.375 C12.27229039 41.06670661 9.90904592 41.28269522 5.1875 41.4375 C4.5275 41.1075 3.8675 40.7775 3.1875 40.4375 C7.6474805 51.32964194 7.6474805 51.32964194 15.125 60.0625 C18.1875 62.4375 18.1875 62.4375 19.125 65.8125 C19.145625 66.67875 19.16625 67.545 19.1875 68.4375 C16.47987562 69.28363262 14.95246176 69.73319009 12.1875 69.4375 C8.0051134 66.90704347 4.90900751 63.8504522 2.6875 59.5 C2.44 58.4790625 2.44 58.4790625 2.1875 57.4375 C1.5275 57.4375 0.8675 57.4375 0.1875 57.4375 C0.084375 58.05625 -0.01875 58.675 -0.125 59.3125 C-0.8125 61.4375 -0.8125 61.4375 -3.8125 63.4375 C-7.95830669 63.90683661 -10.26013391 63.7190984 -14 61.8125 C-18.02358045 58.41480984 -20.44753452 55.50563772 -21.375 50.25 C-20.8125 47.4375 -20.8125 47.4375 -18.3125 45.5625 C-17.4875 45.19125 -16.6625 44.82 -15.8125 44.4375 C-16.8025 43.138125 -16.8025 43.138125 -17.8125 41.8125 C-19.97792753 38.15834104 -20.26287895 36.5809863 -19.8125 32.4375 C-19.565 31.7775 -19.3175 31.1175 -19.0625 30.4375 C-18.54947956 28.15577983 -18.54947956 28.15577983 -20.75 25.6875 C-23.49546209 21.36131731 -23.45428841 19.49158376 -22.8125 14.4375 C-21.375 11.5625 -21.375 11.5625 -18.8125 9.4375 C-16.50985826 8.83066662 -14.2138573 8.43133797 -11.8671875 8.03125 C-9.52442864 7.5729066 -9.52442864 7.5729066 -7.875 4.9375 C-7.524375 4.1125 -7.17375 3.2875 -6.8125 2.4375 C-4.34214288 -0.03285712 -3.4164993 0.08707719 0 0 Z M-4.8125 43.4375 C-5.4725 44.0975 -6.1325 44.7575 -6.8125 45.4375 C-5.8225 45.4375 -4.8325 45.4375 -3.8125 45.4375 C-4.1425 44.7775 -4.4725 44.1175 -4.8125 43.4375 Z " fill="#0F2E1E" transform="translate(23.8125,0.5625)"/>
<path d="M0 0 C4.03406932 0.06421818 4.95882236 0.263705 8.3125 2.8125 C10.1875 5.4375 10.1875 5.4375 10.1875 7.4375 C11.26 7.39625 12.3325 7.355 13.4375 7.3125 C16.84497485 7.4260825 18.39489631 7.65023364 21.1875 9.4375 C20.8575 10.0975 20.5275 10.7575 20.1875 11.4375 C19.5275 11.1075 18.8675 10.7775 18.1875 10.4375 C15.8545134 10.39727609 13.52043334 10.39429753 11.1875 10.4375 C13.1675 12.0875 15.1475 13.7375 17.1875 15.4375 C16.84680765 18.58890423 16.60673159 20.04531561 14.25 22.25 C12.1875 23.4375 12.1875 23.4375 10.1875 23.4375 C10.5278125 25.0771875 10.5278125 25.0771875 10.875 26.75 C11.1875 30.4375 11.1875 30.4375 10.046875 32.171875 C7.48337672 33.91677719 5.80969119 33.60333516 2.75 33.375 C-1.61671874 33.08128811 -1.61671874 33.08128811 -5.125 35.4375 C-5.681875 36.0975 -6.23875 36.7575 -6.8125 37.4375 C-9.9375 37.8125 -9.9375 37.8125 -12.8125 37.4375 C-13.4725 36.7775 -14.1325 36.1175 -14.8125 35.4375 C-14.35096154 28.97596154 -14.35096154 28.97596154 -11.8125 26.4375 C-12.3075 26.045625 -12.8025 25.65375 -13.3125 25.25 C-14.8125 23.4375 -14.8125 23.4375 -15.3125 21 C-14.8125 18.4375 -14.8125 18.4375 -12.5 16.125 C-9.8125 14.4375 -9.8125 14.4375 -6.8125 14.4375 C-6.4825 15.0975 -6.1525 15.7575 -5.8125 16.4375 C-4.8225 15.1175 -3.8325 13.7975 -2.8125 12.4375 C-3.8025 12.7675 -4.7925 13.0975 -5.8125 13.4375 C-6.1425 11.4575 -6.4725 9.4775 -6.8125 7.4375 C-7.1425 8.0975 -7.4725 8.7575 -7.8125 9.4375 C-10.34824127 10.04124792 -12.88705172 10.39531126 -15.46484375 10.77734375 C-18.16553044 11.26198203 -18.16553044 11.26198203 -19.8125 14.4375 C-20.29424437 17.47921154 -20.29375357 20.39509235 -19.8125 23.4375 C-17.85440477 25.73039472 -17.85440477 25.73039472 -15.8125 27.4375 C-16.0625 29.1875 -16.0625 29.1875 -16.8125 31.4375 C-17.04645254 35.28212002 -17.04252119 38.74743642 -15.8125 42.4375 C-16.4725 42.4375 -17.1325 42.4375 -17.8125 42.4375 C-19.916225 39.01894688 -20.06074843 36.40947482 -19.8125 32.4375 C-19.565 31.7775 -19.3175 31.1175 -19.0625 30.4375 C-18.54947956 28.15577983 -18.54947956 28.15577983 -20.75 25.6875 C-23.49546209 21.36131731 -23.45428841 19.49158376 -22.8125 14.4375 C-21.375 11.5625 -21.375 11.5625 -18.8125 9.4375 C-16.50985826 8.83066662 -14.2138573 8.43133797 -11.8671875 8.03125 C-9.52442864 7.5729066 -9.52442864 7.5729066 -7.875 4.9375 C-7.524375 4.1125 -7.17375 3.2875 -6.8125 2.4375 C-4.34214288 -0.03285712 -3.4164993 0.08707719 0 0 Z " fill="#193523" transform="translate(23.8125,0.5625)"/>
<path d="M0 0 C2.27156921 0.06001504 4.54239274 0.14879968 6.8125 0.25 C8.07707031 0.29640625 9.34164062 0.3428125 10.64453125 0.390625 C14 1 14 1 15.95703125 2.82421875 C17.55244139 6.15247136 16.89152829 8.49756742 16 12 C14.4453125 13.71484375 14.4453125 13.71484375 13 15 C13.92652701 16.17539996 14.86663387 17.34010577 15.8125 18.5 C16.33457031 19.1496875 16.85664062 19.799375 17.39453125 20.46875 C18.99204833 22.34509128 18.99204833 22.34509128 22 22 C24.97 14.74 27.94 7.48 31 0 C31.66 0 32.32 0 33 0 C34.50585523 3.45581315 36.00368289 6.91504753 37.5 10.375 C37.92925781 11.35984375 38.35851562 12.3446875 38.80078125 13.359375 C39.20683594 14.30039062 39.61289063 15.24140625 40.03125 16.2109375 C40.59682617 17.51490479 40.59682617 17.51490479 41.17382812 18.84521484 C42 21 42 21 42 23 C42.99 23 43.98 23 45 23 C44.505 24.485 44.505 24.485 44 26 C41.36 26 38.72 26 36 26 C36.2784375 24.88625 36.2784375 24.88625 36.5625 23.75 C36.99203108 21.05009037 36.85122974 19.55368923 36 17 C32.04 17.495 32.04 17.495 28 18 C27.67 20.64 27.34 23.28 27 26 C17.45166374 26.11892946 17.45166374 26.11892946 14.07421875 23.515625 C12.6029634 21.73643248 11.29631399 19.90904118 10 18 C8.68409365 16.64946454 7.35921586 15.30693833 6 14 C6 16.97 6 19.94 6 23 C6.99 23.33 7.98 23.66 9 24 C9 24.66 9 25.32 9 26 C6.03 26 3.06 26 0 26 C0.495 24.515 0.495 24.515 1 23 C1.66 23 2.32 23 3 23 C2.67 22.34 2.34 21.68 2 21 C1.90190142 18.32248582 1.8609603 15.67690283 1.875 13 C1.87113281 12.26265625 1.86726563 11.5253125 1.86328125 10.765625 C1.8733402 5.2533196 1.8733402 5.2533196 3 3 C2.01 3 1.02 3 0 3 C0 2.01 0 1.02 0 0 Z M6 3 C6 5.97 6 8.94 6 12 C8.41645782 12.16687448 8.41645782 12.16687448 11 12 C13.2491908 10.17296773 13.2491908 10.17296773 13.25 7.5 C13.2491908 4.82703227 13.2491908 4.82703227 11 3 C8.41645782 2.83312552 8.41645782 2.83312552 6 3 Z M31 8 C30.34 10.31 29.68 12.62 29 15 C30.98 15 32.96 15 35 15 C34.34 12.69 33.68 10.38 33 8 C32.34 8 31.68 8 31 8 Z " fill="#B2A184" transform="translate(75,10)"/>
<path d="M0 0 C4.03406932 0.06421818 4.95882236 0.263705 8.3125 2.8125 C10.1875 5.4375 10.1875 5.4375 10.1875 7.4375 C11.26 7.39625 12.3325 7.355 13.4375 7.3125 C16.84497485 7.4260825 18.39489631 7.65023364 21.1875 9.4375 C20.8575 10.0975 20.5275 10.7575 20.1875 11.4375 C19.5275 11.1075 18.8675 10.7775 18.1875 10.4375 C15.8545134 10.39727609 13.52043334 10.39429753 11.1875 10.4375 C13.1675 12.0875 15.1475 13.7375 17.1875 15.4375 C16.84680765 18.58890423 16.60673159 20.04531561 14.25 22.25 C12.1875 23.4375 12.1875 23.4375 10.1875 23.4375 C10.5278125 25.0771875 10.5278125 25.0771875 10.875 26.75 C11.1875 30.4375 11.1875 30.4375 10.25 32.375 C6.93241303 34.08405995 3.88308797 33.61925023 0.1875 33.4375 C0.97125 32.81875 1.755 32.2 2.5625 31.5625 C5.15587647 29.53891339 5.15587647 29.53891339 7.1875 27.4375 C7.22813832 25.77132885 7.230221 24.10361905 7.1875 22.4375 C7.5175 22.1075 7.8475 21.7775 8.1875 21.4375 C8.01182642 17.95694126 8.01182642 17.95694126 7.1875 14.4375 C6.1975 13.7775 5.2075 13.1175 4.1875 12.4375 C4.1875 11.7775 4.1875 11.1175 4.1875 10.4375 C0.83316891 11.38683899 -2.50496505 12.33498835 -5.8125 13.4375 C-6.1425 11.4575 -6.4725 9.4775 -6.8125 7.4375 C-7.1425 8.0975 -7.4725 8.7575 -7.8125 9.4375 C-10.34824127 10.04124792 -12.88705172 10.39531126 -15.46484375 10.77734375 C-18.16553044 11.26198203 -18.16553044 11.26198203 -19.8125 14.4375 C-20.29424437 17.47921154 -20.29375357 20.39509235 -19.8125 23.4375 C-17.85440477 25.73039472 -17.85440477 25.73039472 -15.8125 27.4375 C-16.0625 29.1875 -16.0625 29.1875 -16.8125 31.4375 C-17.04645254 35.28212002 -17.04252119 38.74743642 -15.8125 42.4375 C-16.4725 42.4375 -17.1325 42.4375 -17.8125 42.4375 C-19.916225 39.01894688 -20.06074843 36.40947482 -19.8125 32.4375 C-19.565 31.7775 -19.3175 31.1175 -19.0625 30.4375 C-18.54947956 28.15577983 -18.54947956 28.15577983 -20.75 25.6875 C-23.49546209 21.36131731 -23.45428841 19.49158376 -22.8125 14.4375 C-21.375 11.5625 -21.375 11.5625 -18.8125 9.4375 C-16.50985826 8.83066662 -14.2138573 8.43133797 -11.8671875 8.03125 C-9.52442864 7.5729066 -9.52442864 7.5729066 -7.875 4.9375 C-7.524375 4.1125 -7.17375 3.2875 -6.8125 2.4375 C-4.34214288 -0.03285712 -3.4164993 0.08707719 0 0 Z " fill="#283E29" transform="translate(23.8125,0.5625)"/>
<path d="M0 0 C0.64964023 1.89453221 1.29455115 3.79068649 1.9375 5.6875 C2.29714844 6.74324219 2.65679688 7.79898438 3.02734375 8.88671875 C3.87206518 11.59050583 4.50893785 14.21386842 5 17 C4.34 17 3.68 17 3 17 C2.896875 17.61875 2.79375 18.2375 2.6875 18.875 C2 21 2 21 -1 23 C-5.14580669 23.46933661 -7.44763391 23.2815984 -11.1875 21.375 C-14.26749099 18.77411872 -16.13958179 16.57772733 -18 13 C-18.25 9.625 -18.25 9.625 -18 7 C-15.35261084 5.5393715 -14.10551666 5 -11 5 C-11.33 4.01 -11.66 3.02 -12 2 C-10.63875 2.061875 -10.63875 2.061875 -9.25 2.125 C-5.70215167 1.98854429 -3.33917672 0 0 0 Z M-2 3 C-2.66 3.66 -3.32 4.32 -4 5 C-3.01 5 -2.02 5 -1 5 C-1.33 4.34 -1.66 3.68 -2 3 Z " fill="#AE9661" transform="translate(21,41)"/>
<path d="M0 0 C46.86 0 93.72 0 142 0 C142 0.66 142 1.32 142 2 C95.14 2 48.28 2 0 2 C0 1.34 0 0.68 0 0 Z " fill="#2D4A31" transform="translate(50,58)"/>
<path d="M0 0 C2.97 0.495 2.97 0.495 6 1 C6 2.65 6 4.3 6 6 C6.66 6.33 7.32 6.66 8 7 C8.33 5.02 8.66 3.04 9 1 C9.99 1 10.98 1 12 1 C12.33 2.98 12.66 4.96 13 7 C13.66 7 14.32 7 15 7 C14.67 4.69 14.34 2.38 14 0 C16.97 0.33 19.94 0.66 23 1 C23 2.98 23 4.96 23 7 C23.66 6.67 24.32 6.34 25 6 C25.65555119 3.47266765 25.65555119 3.47266765 26 1 C28.97777997 0.00740668 30.07915764 -0.01418361 33.0625 0.4375 C36.66707056 1.04714045 36.66707056 1.04714045 39 1 C42 6.75 42 6.75 42 9 C41.01 9 40.02 9 39 9 C39 8.34 39 7.68 39 7 C38.34 7 37.68 7 37 7 C37 7.66 37 8.32 37 9 C33.25 10.125 33.25 10.125 31 9 C30.27306096 7.02111039 29.60183749 5.02045442 29 3 C29 5.31 29 7.62 29 10 C26.54159395 10.02691685 24.08348118 10.04679802 21.625 10.0625 C20.92632812 10.07087891 20.22765625 10.07925781 19.5078125 10.08789062 C14.2265625 10.11328125 14.2265625 10.11328125 12 9 C12 8.34 12 7.68 12 7 C11.01 7 10.02 7 9 7 C9 7.66 9 8.32 9 9 C7.54263913 9.19491452 6.08405407 9.38069358 4.625 9.5625 C3.81289062 9.66691406 3.00078125 9.77132812 2.1640625 9.87890625 C0 10 0 10 -2 9 C-2 8.34 -2 7.68 -2 7 C-2.99 7 -3.98 7 -5 7 C-5 7.66 -5 8.32 -5 9 C-5.66 9 -6.32 9 -7 9 C-5.125 3.25 -5.125 3.25 -4 1 C-3.34 1 -2.68 1 -2 1 C-1.34 2.65 -0.68 4.3 0 6 C0 4.02 0 2.04 0 0 Z M17 3 C17.99 3.495 17.99 3.495 19 4 C19.33 4.66 19.66 5.32 20 6 C20 5.01 20 4.02 20 3 C19.01 3 18.02 3 17 3 Z M35 3 C34.34 3.66 33.68 4.32 33 5 C33.33 5.99 33.66 6.98 34 8 C34.66 7.34 35.32 6.68 36 6 C35.67 5.01 35.34 4.02 35 3 Z " fill="#958363" transform="translate(149,45)"/>
<path d="M0 0 C1.8253125 -0.185625 1.8253125 -0.185625 3.6875 -0.375 C4.71423828 -0.47941406 4.71423828 -0.47941406 5.76171875 -0.5859375 C9.37260249 0.35932002 11.10873952 2.96473229 13 6 C14.26519552 8.79042318 15.21139383 11.64049143 16.125 14.5625 C17.68967792 19.42991699 19.25784663 23.64338355 22 28 C22 28.66 22 29.32 22 30 C24.31 30.33 26.62 30.66 29 31 C28.67 31.99 28.34 32.98 28 34 C23.10494044 33.54464562 20.44916647 32.53993401 17 29 C14.7528625 25.36944561 13 22.31884414 13 18 C10.03 18 7.06 18 4 18 C3.06619039 22.53140653 3.06619039 22.53140653 4 27 C1.36 27 -1.28 27 -4 27 C-4 26.01 -4 25.02 -4 24 C-3.01 24 -2.02 24 -1 24 C-0.82984375 23.46632813 -0.6596875 22.93265625 -0.484375 22.3828125 C1.20852469 17.17804643 3.12030431 12.11657509 5.23046875 7.06640625 C6.116329 5.05513126 6.116329 5.05513126 6 3 C3.03 2.505 3.03 2.505 0 2 C0 1.34 0 0.68 0 0 Z M8 7 C7.01 9.97 6.02 12.94 5 16 C7.31 16 9.62 16 12 16 C11.01 13.03 10.02 10.06 9 7 C8.67 7 8.34 7 8 7 Z " fill="#A6895C" transform="translate(53,9)"/>
<path d="M0 0 C3.59845359 0.63372233 3.59845359 0.63372233 6.9375 -0.4375 C9.08492039 -0.42606234 11.23233718 -0.33082193 13.375 -0.1875 C14.52871094 -0.12046875 15.68242188 -0.0534375 16.87109375 0.015625 C20.04343946 0.58139366 21.04272537 1.03613383 22.9375 3.5625 C23.2675 2.2425 23.5975 0.9225 23.9375 -0.4375 C24.5975 -0.1075 25.2575 0.2225 25.9375 0.5625 C25.9375 3.2025 25.9375 5.8425 25.9375 8.5625 C24.6175 7.9025 23.2975 7.2425 21.9375 6.5625 C20.9475 8.0475 20.9475 8.0475 19.9375 9.5625 C16.75 9.890625 16.75 9.890625 12.9375 9.8125 C11.679375 9.79703125 10.42125 9.7815625 9.125 9.765625 C5.9375 9.5625 5.9375 9.5625 3.9375 8.5625 C3.6075 9.2225 3.2775 9.8825 2.9375 10.5625 C-5.63392857 9.84821429 -5.63392857 9.84821429 -9.0625 6.5625 C-8.75 4.1875 -8.75 4.1875 -8.0625 1.5625 C-4.61051853 -0.73882098 -3.92965808 -0.56137973 0 0 Z M5.9375 1.5625 C5.6075 3.2125 5.2775 4.8625 4.9375 6.5625 C5.5975 6.5625 6.2575 6.5625 6.9375 6.5625 C6.9375 4.9125 6.9375 3.2625 6.9375 1.5625 C6.6075 1.5625 6.2775 1.5625 5.9375 1.5625 Z M-6.0625 2.5625 C-6.0625 3.8825 -6.0625 5.2025 -6.0625 6.5625 C-5.0725 6.5625 -4.0825 6.5625 -3.0625 6.5625 C-2.7325 5.2425 -2.4025 3.9225 -2.0625 2.5625 C-3.3825 2.5625 -4.7025 2.5625 -6.0625 2.5625 Z M8.9375 3.5625 C10.2575 4.5525 11.5775 5.5425 12.9375 6.5625 C12.9375 4.9125 12.9375 3.2625 12.9375 1.5625 C11.47524984 1.47004997 11.47524984 1.47004997 8.9375 3.5625 Z M14.9375 2.5625 C15.9275 3.0575 15.9275 3.0575 16.9375 3.5625 C17.2675 4.2225 17.5975 4.8825 17.9375 5.5625 C17.9375 4.5725 17.9375 3.5825 17.9375 2.5625 C16.9475 2.5625 15.9575 2.5625 14.9375 2.5625 Z M-1.0625 5.5625 C-0.0625 7.5625 -0.0625 7.5625 -0.0625 7.5625 Z " fill="#87775A" transform="translate(59.0625,45.4375)"/>
<path d="M0 0 C2.27156921 0.06001504 4.54239274 0.14879968 6.8125 0.25 C8.07707031 0.29640625 9.34164062 0.3428125 10.64453125 0.390625 C14 1 14 1 15.95703125 2.82421875 C17.55244139 6.15247136 16.89152829 8.49756742 16 12 C14.4375 13.9375 14.4375 13.9375 13 15 C13.66 16.32 14.32 17.64 15 19 C10.61031544 19 9.23094261 16.87194899 6 14 C6 16.97 6 19.94 6 23 C6.99 23.33 7.98 23.66 9 24 C9 24.66 9 25.32 9 26 C6.03 26 3.06 26 0 26 C0.495 24.515 0.495 24.515 1 23 C1.66 23 2.32 23 3 23 C2.67 22.34 2.34 21.68 2 21 C1.90190142 18.32248582 1.8609603 15.67690283 1.875 13 C1.87113281 12.26265625 1.86726563 11.5253125 1.86328125 10.765625 C1.8733402 5.2533196 1.8733402 5.2533196 3 3 C2.01 3 1.02 3 0 3 C0 2.01 0 1.02 0 0 Z M6 3 C6 5.97 6 8.94 6 12 C8.41645782 12.16687448 8.41645782 12.16687448 11 12 C13.2491908 10.17296773 13.2491908 10.17296773 13.25 7.5 C13.2491908 4.82703227 13.2491908 4.82703227 11 3 C8.41645782 2.83312552 8.41645782 2.83312552 6 3 Z " fill="#B09161" transform="translate(75,10)"/>
<path d="M0 0 C0.66 0 1.32 0 2 0 C2.25692627 0.65597168 2.51385254 1.31194336 2.77856445 1.98779297 C3.94675814 4.95415831 5.12941776 7.91454305 6.3125 10.875 C6.71662109 11.90753906 7.12074219 12.94007812 7.53710938 14.00390625 C7.93349609 14.99003906 8.32988281 15.97617187 8.73828125 16.9921875 C9.09962158 17.90339355 9.46096191 18.81459961 9.83325195 19.75341797 C10.92590868 22.299258 10.92590868 22.299258 14 24 C14 24.66 14 25.32 14 26 C11.03 26 8.06 26 5 26 C5 23.03 5 20.06 5 17 C2.03 17 -0.94 17 -4 17 C-4.93380961 21.53140653 -4.93380961 21.53140653 -4 26 C-6.64 26 -9.28 26 -12 26 C-12 25.01 -12 24.02 -12 23 C-11.01 23 -10.02 23 -9 23 C-8.62875 21.80375 -8.2575 20.6075 -7.875 19.375 C-5.67845479 12.74291907 -2.80865569 6.38991894 0 0 Z M0 7 C-1.485 10.96 -1.485 10.96 -3 15 C-0.69 15 1.62 15 4 15 C3.01 12.36 2.02 9.72 1 7 C0.67 7 0.34 7 0 7 Z " fill="#E3CFAA" transform="translate(179,10)"/>
<path d="M0 0 C3.3 0 6.6 0 10 0 C9.7525 0.721875 9.505 1.44375 9.25 2.1875 C8.68262931 5.1794348 8.68262931 5.1794348 10.9375 7.8125 C11.618125 8.534375 12.29875 9.25625 13 10 C15.03435531 6.27034861 16 4.33094958 16 0 C18.64 0 21.28 0 24 0 C24 0.99 24 1.98 24 3 C22.68 3 21.36 3 20 3 C19.731875 3.721875 19.46375 4.44375 19.1875 5.1875 C18 8 18 8 16.375 10.1875 C13.95943265 15.12843323 14.27991665 20.83974996 16 26 C13.36 26 10.72 26 8 26 C8 25.01 8 24.02 8 23 C8.66 23 9.32 23 10 23 C9.85205516 16.43662891 8.93884805 11.95795424 5.05859375 6.59375 C4 5 4 5 4 3 C2.68 3 1.36 3 0 3 C0 2.01 0 1.02 0 0 Z " fill="#C4B292" transform="translate(148,10)"/>
<path d="M0 0 C3.26954202 0.56371414 4.82575883 1.49962266 7 4 C7.33 3.34 7.66 2.68 8 2 C9.9375 1.3125 9.9375 1.3125 12 1 C12.66 1.33 13.32 1.66 14 2 C14 3.98 14 5.96 14 8 C14.66 8 15.32 8 16 8 C16 6.02 16 4.04 16 2 C16.63808594 2.01160156 17.27617187 2.02320313 17.93359375 2.03515625 C18.75988281 2.04417969 19.58617187 2.05320313 20.4375 2.0625 C21.67306641 2.07990234 21.67306641 2.07990234 22.93359375 2.09765625 C24.99163938 2.23267348 24.99163938 2.23267348 26 1 C26.99 1.33 27.98 1.66 29 2 C28.125 7.75 28.125 7.75 27 10 C26.34 10 25.68 10 25 10 C24.67 9.34 24.34 8.68 24 8 C23.67 8.66 23.34 9.32 23 10 C22.34 10 21.68 10 21 10 C20.67 9.01 20.34 8.02 20 7 C19.443125 7.639375 18.88625 8.27875 18.3125 8.9375 C15.69297844 11.27383004 14.51427555 12.08571404 11 12 C8.1875 9.5625 8.1875 9.5625 6 7 C5.67 7.99 5.34 8.98 5 10 C4.34 10 3.68 10 3 10 C2.87625 8.865625 2.7525 7.73125 2.625 6.5625 C2.41875 5.386875 2.2125 4.21125 2 3 C1.34 2.67 0.68 2.34 0 2 C0 1.34 0 0.68 0 0 Z M8 5 C9 7 9 7 9 7 Z M10 8 C10.33 8.66 10.66 9.32 11 10 C11.66 9.67 12.32 9.34 13 9 C12.01 8.67 11.02 8.34 10 8 Z " fill="#9D8B6C" transform="translate(114,44)"/>
<path d="M0 0 C2.76088839 3.34125532 4.39420572 6.88088332 6.1875 10.8125 C8.77937081 16.29249592 11.58646231 20.15094379 16.49609375 23.765625 C16.99238281 24.17296875 17.48867188 24.5803125 18 25 C18 25.66 18 26.32 18 27 C15.16365679 27.53181435 13.73304427 27.7308706 11 27 C4.48295965 21.99433265 0.66495235 14.96541953 -1 7 C-1.0134797 4.40740393 -0.67362071 2.52607768 0 0 Z " fill="#0C2C1D" transform="translate(23,40)"/>
<path d="M0 0 C2.64 0 5.28 0 8 0 C8 0.99 8 1.98 8 3 C7.34 3 6.68 3 6 3 C6 9.6 6 16.2 6 23 C9.96 22.505 9.96 22.505 14 22 C14.33 21.01 14.66 20.02 15 19 C15.66 19 16.32 19 17 19 C16.34 20.98 15.68 22.96 15 25 C10.05 25.33 5.1 25.66 0 26 C0 25.01 0 24.02 0 23 C0.66 23 1.32 23 2 23 C2 16.4 2 9.8 2 3 C1.34 3 0.68 3 0 3 C0 2.01 0 1.02 0 0 Z " fill="#CFBC9A" transform="translate(121,10)"/>
<path d="M0 0 C2.83834019 0.35287552 2.83834019 0.35287552 4.8984375 -0.87890625 C5.8884375 -0.21890625 6.8784375 0.44109375 7.8984375 1.12109375 C7.2384375 1.78109375 6.5784375 2.44109375 5.8984375 3.12109375 C5.25075957 5.69170686 5.25075957 5.69170686 4.8984375 8.12109375 C3.9084375 8.12109375 2.9184375 8.12109375 1.8984375 8.12109375 C1.5684375 6.47109375 1.2384375 4.82109375 0.8984375 3.12109375 C-0.0915625 2.79109375 -1.0815625 2.46109375 -2.1015625 2.12109375 C-1.7715625 4.43109375 -1.4415625 6.74109375 -1.1015625 9.12109375 C-2.4215625 9.12109375 -3.7415625 9.12109375 -5.1015625 9.12109375 C-4.7715625 6.81109375 -4.4415625 4.50109375 -4.1015625 2.12109375 C-5.0915625 2.12109375 -6.0815625 2.12109375 -7.1015625 2.12109375 C-6.7715625 4.10109375 -6.4415625 6.08109375 -6.1015625 8.12109375 C-6.7203125 7.91484375 -7.3390625 7.70859375 -7.9765625 7.49609375 C-8.6778125 7.37234375 -9.3790625 7.24859375 -10.1015625 7.12109375 C-10.7615625 7.78109375 -11.4215625 8.44109375 -12.1015625 9.12109375 C-14.36431038 8.76753939 -16.05245102 8.14564949 -18.1015625 7.12109375 C-18.1015625 5.14109375 -18.1015625 3.16109375 -18.1015625 1.12109375 C-12.42833542 -2.1207503 -6.27362488 -0.57097035 0 0 Z M-10.1015625 1.12109375 C-9.1015625 3.12109375 -9.1015625 3.12109375 -9.1015625 3.12109375 Z M-16.1015625 2.12109375 C-16.1015625 3.44109375 -16.1015625 4.76109375 -16.1015625 6.12109375 C-15.1115625 6.45109375 -14.1215625 6.78109375 -13.1015625 7.12109375 C-12.1115625 6.13109375 -11.1215625 5.14109375 -10.1015625 4.12109375 C-10.7615625 3.46109375 -11.4215625 2.80109375 -12.1015625 2.12109375 C-13.4215625 2.12109375 -14.7415625 2.12109375 -16.1015625 2.12109375 Z " fill="#817156" transform="translate(106.1015625,45.87890625)"/>
<path d="M0 0 C-0.165 0.495 -0.33 0.99 -0.5 1.5 C-1.35804782 5.79023912 -1.61009004 10.11888905 -0.25 14.3125 C1.24897273 16.33611319 2.91288943 17.60859295 5 19 C2.53884629 21.27183419 1.26379801 21.9736202 -2.125 22.3125 C-5 22 -5 22 -7 20 C-6.53846154 13.53846154 -6.53846154 13.53846154 -4 11 C-4.495 10.608125 -4.99 10.21625 -5.5 9.8125 C-7 8 -7 8 -7.375 5.5 C-7 3 -7 3 -5.75 1.1875 C-4 0 -4 0 0 0 Z " fill="#D0BA90" transform="translate(16,16)"/>
<path d="M0 0 C2.64 0 5.28 0 8 0 C8 0.99 8 1.98 8 3 C7.34 3 6.68 3 6 3 C6 9.6 6 16.2 6 23 C6.99 23.33 7.98 23.66 9 24 C9 24.66 9 25.32 9 26 C6.03 26 3.06 26 0 26 C0.495 24.515 0.495 24.515 1 23 C1.14573058 21.52034074 1.24663268 20.03596157 1.31640625 18.55078125 C1.35830078 17.70322266 1.40019531 16.85566406 1.44335938 15.98242188 C1.50233398 14.66081055 1.50233398 14.66081055 1.5625 13.3125 C1.60568359 12.41982422 1.64886719 11.52714844 1.69335938 10.60742188 C1.79935353 8.40509892 1.90142051 6.20266527 2 4 C1.34 3.67 0.68 3.34 0 3 C0 2.01 0 1.02 0 0 Z " fill="#DEC9A5" transform="translate(139,10)"/>
<path d="M0 0 C4.29 0 8.58 0 13 0 C12.67 0.66 12.34 1.32 12 2 C8.7 2 5.4 2 2 2 C7.31754268 14.19551112 7.31754268 14.19551112 16.43359375 23.60546875 C18 25 18 25 19 28.4375 C19 29.283125 19 30.12875 19 31 C16.29237562 31.84613262 14.76496176 32.29569009 12 32 C7.8176134 29.46954347 4.72150751 26.4129522 2.5 22.0625 C2.335 21.381875 2.17 20.70125 2 20 C7 25 7 25 8.375 26.75 C10.9752158 28.750166 13.8107651 28.69912878 17 29 C15.03356225 26.378083 13.31803162 24.22387752 10.625 22.328125 C7.21335618 19.30232185 5.63067724 16.07071664 3.6875 12 C3.32849609 11.2884375 2.96949219 10.576875 2.59960938 9.84375 C0.78284368 6.13408748 0 4.27600674 0 0 Z " fill="#8D7E56" transform="translate(24,38)"/>
<path d="M0 0 C3.24102432 0.42199355 3.24102432 0.42199355 6.5 0.5625 C9.5 6.3125 9.5 6.3125 9.5 8.5625 C8.51 8.5625 7.52 8.5625 6.5 8.5625 C6.5 7.9025 6.5 7.2425 6.5 6.5625 C5.84 6.5625 5.18 6.5625 4.5 6.5625 C4.5 7.2225 4.5 7.8825 4.5 8.5625 C0.75 9.6875 0.75 9.6875 -1.5 8.5625 C-2.22693904 6.58361039 -2.89816251 4.58295442 -3.5 2.5625 C-3.5 4.8725 -3.5 7.1825 -3.5 9.5625 C-6.14 9.2325 -8.78 8.9025 -11.5 8.5625 C-11.5 6.5825 -11.5 4.6025 -11.5 2.5625 C-13.15 2.8925 -14.8 3.2225 -16.5 3.5625 C-16.17 2.5725 -15.84 1.5825 -15.5 0.5625 C-13.52 0.5625 -11.54 0.5625 -9.5 0.5625 C-9.5 2.5425 -9.5 4.5225 -9.5 6.5625 C-8.84 6.2325 -8.18 5.9025 -7.5 5.5625 C-7.335 4.7375 -7.17 3.9125 -7 3.0625 C-6.835 2.2375 -6.67 1.4125 -6.5 0.5625 C-4.00157063 -0.68671469 -2.74449196 -0.36088287 0 0 Z M2.5 2.5625 C1.84 3.2225 1.18 3.8825 0.5 4.5625 C0.83 5.5525 1.16 6.5425 1.5 7.5625 C2.16 6.9025 2.82 6.2425 3.5 5.5625 C3.17 4.5725 2.84 3.5825 2.5 2.5625 Z " fill="#7C6C53" transform="translate(181.5,45.4375)"/>
<path d="M0 0 C3.66679392 0.05298835 4.75610884 0.09394007 7.75 2.375 C8.430625 3.365 8.430625 3.365 9.125 4.375 C8.795 5.365 8.465 6.355 8.125 7.375 C7.63 6.55 7.135 5.725 6.625 4.875 C3.95934657 2.20934657 3.59084742 1.97896604 0.0625 1.875 C-3.70035463 2.06478216 -3.70035463 2.06478216 -5.8125 3.625 C-6.96957711 5.53077406 -7.37956757 7.21473606 -7.875 9.375 C-8.57367188 9.48457031 -9.27234375 9.59414062 -9.9921875 9.70703125 C-10.90226563 9.86558594 -11.81234375 10.02414062 -12.75 10.1875 C-13.65492187 10.33832031 -14.55984375 10.48914062 -15.4921875 10.64453125 C-18.21912478 11.20551301 -18.21912478 11.20551301 -19.875 14.375 C-20.35674437 17.41671154 -20.35625357 20.33259235 -19.875 23.375 C-17.91690477 25.66789472 -17.91690477 25.66789472 -15.875 27.375 C-16.125 29.125 -16.125 29.125 -16.875 31.375 C-17.10895254 35.21962002 -17.10502119 38.68493642 -15.875 42.375 C-16.535 42.375 -17.195 42.375 -17.875 42.375 C-19.978725 38.95644688 -20.12324843 36.34697482 -19.875 32.375 C-19.6275 31.715 -19.38 31.055 -19.125 30.375 C-18.61197956 28.09327983 -18.61197956 28.09327983 -20.8125 25.625 C-23.55796209 21.29881731 -23.51678841 19.42908376 -22.875 14.375 C-21.4375 11.5 -21.4375 11.5 -18.875 9.375 C-16.57235826 8.76816662 -14.2763573 8.36883797 -11.9296875 7.96875 C-9.58692864 7.5104066 -9.58692864 7.5104066 -7.9375 4.875 C-7.586875 4.05 -7.23625 3.225 -6.875 2.375 C-4.38459058 -0.11540942 -3.44345643 0.05108986 0 0 Z " fill="#D8C39D" transform="translate(23.875,0.625)"/>
<path d="M0 0 C-1.98 0.33 -3.96 0.66 -6 1 C-6 1.66 -6 2.32 -6 3 C-5.38511719 2.97679687 -4.77023438 2.95359375 -4.13671875 2.9296875 C-3.32847656 2.91164062 -2.52023438 2.89359375 -1.6875 2.875 C-0.88699219 2.85179687 -0.08648437 2.82859375 0.73828125 2.8046875 C3 3 3 3 6 5 C5.67 6.65 5.34 8.3 5 10 C5.66 10 6.32 10 7 10 C7 10.66 7 11.32 7 12 C3.15185513 12.58305225 1.23691365 11.7002883 -1.8125 9.5 C-2.88364055 8.67780256 -3.9491359 7.84795951 -5 7 C-4.67 8.65 -4.34 10.3 -4 12 C-5.70840281 10.36587557 -6.93453047 9.13093906 -8 7 C-8.039992 5.00039988 -8.04346799 2.99952758 -8 1 C-4.93251126 -0.86240388 -3.40254489 -1.2151946 0 0 Z " fill="#C5AE7F" transform="translate(11,47)"/>
<path d="M0 0 C0.49628906 0.37253906 0.99257812 0.74507812 1.50390625 1.12890625 C5.18357655 3.6914091 7.15428603 5.01409523 11.75 4.9375 C14.40808469 4.1707448 16.63704737 3.41777158 19 2 C19.33 2.99 19.66 3.98 20 5 C17.66666667 9.66666667 17.66666667 9.66666667 15 11 C10.88176382 11.39598425 8.45541935 11.21482045 4.6875 9.4375 C1.4348458 6.48741829 0.81794223 4.25329959 0 0 Z " fill="#384630" transform="translate(5,53)"/>
<path d="M0 0 C1.32 0.66 2.64 1.32 4 2 C4.35098791 5.77312005 4.30640454 7.53511035 2.1875 10.75 C0 13 0 13 -3 15 C-2.95875 16.258125 -2.9175 17.51625 -2.875 18.8125 C-2.76160645 22.27730288 -2.92206835 22.88553788 -5 25.9375 C-8.91520961 28.62920661 -11.27845408 28.84519522 -16 29 C-16.66 28.67 -17.32 28.34 -18 28 C-18.33 28.66 -18.66 29.32 -19 30 C-19.33 28.68 -19.66 27.36 -20 26 C-19.24074219 26.05800781 -18.48148438 26.11601563 -17.69921875 26.17578125 C-11.77058321 26.68997127 -11.77058321 26.68997127 -6.8125 24.0625 C-6.04524136 21.17052513 -6.02297638 19.36989165 -6.1875 16.4375 C-6.29296875 14.0625 -6.29296875 14.0625 -6 12 C-4.01924973 10.63823419 -2.01920337 9.30406884 0 8 C0.56204103 5.1622438 0.29198326 2.91983262 0 0 Z " fill="#4B4026" transform="translate(45,13)"/>
<path d="M0 0 C2.05436403 3.08154604 3.20114677 5.91403132 4.5 9.375 C5.96648876 13.26477202 7.44115503 17.14618882 9 21 C11.31 21.33 13.62 21.66 16 22 C15.67 22.99 15.34 23.98 15 25 C10.10494044 24.54464562 7.44916647 23.53993401 4 20 C0 13.42019544 0 13.42019544 0 10 C0.66 10 1.32 10 2 10 C1.505 8.63875 1.505 8.63875 1 7.25 C0 4 0 4 0 0 Z " fill="#947A51" transform="translate(66,18)"/>
<path d="M0 0 C0.99 0 1.98 0 3 0 C3 6.93 3 13.86 3 21 C4.32 21.33 5.64 21.66 7 22 C7 22.66 7 23.32 7 24 C4.03 24 1.06 24 -2 24 C-1.505 22.515 -1.505 22.515 -1 21 C-0.34 21 0.32 21 1 21 C0.67 20.34 0.34 19.68 0 19 C-0.08342159 17.55151418 -0.10732861 16.09929131 -0.09765625 14.6484375 C-0.09443359 13.79765625 -0.09121094 12.946875 -0.08789062 12.0703125 C-0.07951172 11.18085938 -0.07113281 10.29140625 -0.0625 9.375 C-0.05798828 8.4778125 -0.05347656 7.580625 -0.04882812 6.65625 C-0.03702591 4.43743352 -0.02056155 2.21874982 0 0 Z " fill="#D8B378" transform="translate(77,12)"/>
<path d="M0 0 C2.13717262 3.20575893 3.46050001 6.386415 4.90234375 9.94140625 C5.9592141 12.31457464 5.9592141 12.31457464 9 14 C9 14.66 9 15.32 9 16 C6.03 16 3.06 16 0 16 C0 13.03 0 10.06 0 7 C-2.97 7 -5.94 7 -9 7 C-9.33 7.66 -9.66 8.32 -10 9 C-9.67 7.35 -9.34 5.7 -9 4 C-5.7 4.66 -2.4 5.32 1 6 C0.67 4.02 0.34 2.04 0 0 Z " fill="#847862" transform="translate(184,20)"/>
<path d="M0 0 C0.99 0.33 1.98 0.66 3 1 C2.125 6.75 2.125 6.75 1 9 C0.34 9 -0.32 9 -1 9 C-1.33 8.34 -1.66 7.68 -2 7 C-2.33 7.66 -2.66 8.32 -3 9 C-3.66 9 -4.32 9 -5 9 C-5.33 8.01 -5.66 7.02 -6 6 C-7.32 7.32 -8.64 8.64 -10 10 C-10.99 9.67 -11.98 9.34 -13 9 C-11.68 8.67 -10.36 8.34 -9 8 C-9 5.69 -9 3.38 -9 1 C-7.700625 1.020625 -6.40125 1.04125 -5.0625 1.0625 C-3.70834367 1.08399454 -2.35243917 1.07148199 -1 1 C-0.67 0.67 -0.34 0.34 0 0 Z " fill="#6B5E4B" transform="translate(140,45)"/>
<path d="M0 0 C3.28993102 -0.36554789 4.63099885 -0.26218503 7.375 1.6875 C9 4 9 4 9 6.5625 C7.81415618 9.45299431 6.68426724 10.4545128 4 12 C3.34 12 2.68 12 2 12 C1.93941406 11.38511719 1.87882812 10.77023438 1.81640625 10.13671875 C1.73261719 9.32847656 1.64882813 8.52023438 1.5625 7.6875 C1.48128906 6.88699219 1.40007813 6.08648437 1.31640625 5.26171875 C1.04734307 2.83912821 1.04734307 2.83912821 0 0 Z " fill="#B89D66" transform="translate(32,12)"/>
<path d="M0 0 C1.67542976 0.28604898 3.34385343 0.61781233 5 1 C5.4247346 5.3322929 5.47048413 7.34962488 2.875 10.9375 C-0.44265187 13.3175546 -2.0076185 13.54441566 -6 13 C-7 12 -7 12 -7.0625 8.9375 C-7.041875 7.968125 -7.02125 6.99875 -7 6 C-6.34 5.67 -5.68 5.34 -5 5 C-4.67 6.65 -4.34 8.3 -4 10 C-2.35 9.67 -0.7 9.34 1 9 C1.66 7.02 2.32 5.04 3 3 C1.02 3.66 -0.96 4.32 -3 5 C-1.125 1.125 -1.125 1.125 0 0 Z " fill="#C09F61" transform="translate(25,16)"/>
<path d="M0 0 C0.9590625 -0.02578125 1.918125 -0.0515625 2.90625 -0.078125 C5.5 0.25 5.5 0.25 7.34375 1.515625 C8.5 3.25 8.5 3.25 8.5 7.25 C5.12537285 6.70276317 3.41765 6.1951 0.5 4.25 C-1.77912938 3.79605448 -1.77912938 3.79605448 -4.1875 3.625 C-4.99574219 3.55023438 -5.80398437 3.47546875 -6.63671875 3.3984375 C-7.25160156 3.34945312 -7.86648437 3.30046875 -8.5 3.25 C-8.5 2.59 -8.5 1.93 -8.5 1.25 C-5.45059327 0.23353109 -3.19630097 0.05155324 0 0 Z " fill="#203A28" transform="translate(13.5,46.75)"/>
<path d="M0 0 C0.80824219 0.11085937 1.61648437 0.22171875 2.44921875 0.3359375 C3.37154297 0.47902344 3.37154297 0.47902344 4.3125 0.625 C3.9825 1.285 3.6525 1.945 3.3125 2.625 C2.6525 2.295 1.9925 1.965 1.3125 1.625 C1.3125 4.265 1.3125 6.905 1.3125 9.625 C-4.10288462 9.99423077 -4.10288462 9.99423077 -7.0625 8.125 C-7.59875 7.63 -8.135 7.135 -8.6875 6.625 C-8.375 4.25 -8.375 4.25 -7.6875 1.625 C-4.33422361 -0.61051759 -3.78006343 -0.54783528 0 0 Z M-5.6875 2.625 C-5.6875 3.945 -5.6875 5.265 -5.6875 6.625 C-4.6975 6.625 -3.7075 6.625 -2.6875 6.625 C-2.3575 5.305 -2.0275 3.985 -1.6875 2.625 C-3.0075 2.625 -4.3275 2.625 -5.6875 2.625 Z M-0.6875 5.625 C0.3125 7.625 0.3125 7.625 0.3125 7.625 Z " fill="#A59271" transform="translate(58.6875,45.375)"/>
<path d="M0 0 C0.33 0 0.66 0 1 0 C2.41428571 8.17142857 2.41428571 8.17142857 1 11 C-2.4972544 14.66379032 -3.75925392 15.89993983 -8.875 16.3125 C-9.90625 16.209375 -10.9375 16.10625 -12 16 C-12 15.01 -12 14.02 -12 13 C-11.0925 12.7525 -10.185 12.505 -9.25 12.25 C-5.75067048 10.90410403 -4.24738236 9.96975527 -2 7 C-0.72234735 3.36456099 -0.72234735 3.36456099 0 0 Z " fill="#0E2C1E" transform="translate(31,17)"/>
<path d="M0 0 C2.29240007 0.05985379 4.58406206 0.14859027 6.875 0.25 C8.78925781 0.31960938 8.78925781 0.31960938 10.7421875 0.390625 C11.81726563 0.59171875 12.89234375 0.7928125 14 1 C14.66 2.32 15.32 3.64 16 5 C12.7 4.34 9.4 3.68 6 3 C6 9.6 6 16.2 6 23 C5.67 23 5.34 23 5 23 C5 16.07 5 9.14 5 2 C3.35 2.33 1.7 2.66 0 3 C0 2.01 0 1.02 0 0 Z " fill="#776242" transform="translate(75,10)"/>
<path d="M0 0 C2.50298434 2.93828597 3.46930939 5.17902761 4 9 C4.99 9 5.98 9 7 9 C6.67 9.99 6.34 10.98 6 12 C3.36 12 0.72 12 -2 12 C-1.814375 11.29875 -1.62875 10.5975 -1.4375 9.875 C-0.94843024 6.66111302 -1.33768442 4.16439664 -2 1 C-1.34 0.67 -0.68 0.34 0 0 Z " fill="#A5967B" transform="translate(113,24)"/>
<path d="M0 0 C0.99 0.33 1.98 0.66 3 1 C3 3.64 3 6.28 3 9 C1.68 8.34 0.36 7.68 -1 7 C-1.99 8.485 -1.99 8.485 -3 10 C-3.66 9.67 -4.32 9.34 -5 9 C-5 6.36 -5 3.72 -5 1 C-3.02 1.99 -3.02 1.99 -1 3 C-0.67 2.67 -0.34 2.34 0 2 C0 1.34 0 0.68 0 0 Z " fill="#968568" transform="translate(82,45)"/>
<path d="M0 0 C0.66 0 1.32 0 2 0 C1.84402344 0.83144531 1.68804687 1.66289062 1.52734375 2.51953125 C1.33269531 3.60621094 1.13804687 4.69289063 0.9375 5.8125 C0.74027344 6.89144531 0.54304687 7.97039063 0.33984375 9.08203125 C-0.21580075 12.05901781 -0.21580075 12.05901781 1 15 C-1.64 15 -4.28 15 -7 15 C-7 14.01 -7 13.02 -7 12 C-6.01 12 -5.02 12 -4 12 C-3.79503906 11.38511719 -3.59007812 10.77023438 -3.37890625 10.13671875 C-2.25260417 6.7578125 -1.12630208 3.37890625 0 0 Z " fill="#D1BE9C" transform="translate(174,21)"/>
<path d="M0 0 C2.31 0 4.62 0 7 0 C7 0.99 7 1.98 7 3 C6.34 3 5.68 3 5 3 C5 9.6 5 16.2 5 23 C5.99 23.33 6.98 23.66 8 24 C8 24.66 8 25.32 8 26 C5.03 26 2.06 26 -1 26 C-0.505 24.515 -0.505 24.515 0 23 C1.32 23.33 2.64 23.66 4 24 C4 16.74 4 9.48 4 2 C2.68 2 1.36 2 0 2 C0 1.34 0 0.68 0 0 Z " fill="#413B30" transform="translate(140,10)"/>
<path d="M0 0 C-1.98 0.33 -3.96 0.66 -6 1 C-6 1.66 -6 2.32 -6 3 C-4.02 3 -2.04 3 0 3 C-0.99 3.99 -1.98 4.98 -3 6 C-0.525 7.98 -0.525 7.98 2 10 C-0.38564077 9.42415568 -2.66682784 8.77772405 -5 8 C-4.67 9.32 -4.34 10.64 -4 12 C-5.70840281 10.36587557 -6.93453047 9.13093906 -8 7 C-8.039992 5.00039988 -8.04346799 2.99952758 -8 1 C-4.93251126 -0.86240388 -3.40254489 -1.2151946 0 0 Z " fill="#DDC79E" transform="translate(11,47)"/>
<path d="M0 0 C0.99 0.66 1.98 1.32 3 2 C2.67 2.66 2.34 3.32 2 4 C2.99 4 3.98 4 5 4 C5.66 3.34 6.32 2.68 7 2 C7.33 2.33 7.66 2.66 8 3 C7.71269945 5.33944736 7.38063221 7.6739143 7 10 C0.25 10.125 0.25 10.125 -2 9 C-2 8.34 -2 7.68 -2 7 C-1.01 7 -0.02 7 1 7 C0.67 4.69 0.34 2.38 0 0 Z " fill="#9C8967" transform="translate(163,45)"/>
<path d="M0 0 C5 5 5 5 6.375 6.75 C8.9752158 8.750166 11.8107651 8.69912878 15 9 C15.33 7.68 15.66 6.36 16 5 C16.33 6.98 16.66 8.96 17 11 C14.29237562 11.84613262 12.76496176 12.29569009 10 12 C5.8176134 9.46954347 2.72150751 6.4129522 0.5 2.0625 C0.335 1.381875 0.17 0.70125 0 0 Z " fill="#786947" transform="translate(26,58)"/>
<path d="M0 0 C1.32 0 2.64 0 4 0 C4.25 2.3125 4.25 2.3125 4 5 C2.25 6.875 2.25 6.875 0 8 C-2.25 7.6875 -2.25 7.6875 -4 7 C-4 5.02 -4 3.04 -4 1 C-3.67 1.66 -3.34 2.32 -3 3 C-2.01 3 -1.02 3 0 3 C0 2.01 0 1.02 0 0 Z " fill="#0D2C1D" transform="translate(24,19)"/>
<path d="M0 0 C1.8125 1.4375 1.8125 1.4375 2.75 3.875 C2.8125 6.4375 2.8125 6.4375 1.625 8.3125 C-0.1875 9.4375 -0.1875 9.4375 -2.25 9.1875 C-4.1875 8.4375 -4.1875 8.4375 -6.1875 7.4375 C-6.1875 5.4575 -6.1875 3.4775 -6.1875 1.4375 C-3.81799524 -0.08575306 -2.78817159 -0.71695841 0 0 Z M-4.1875 2.4375 C-4.1875 3.7575 -4.1875 5.0775 -4.1875 6.4375 C-3.1975 6.7675 -2.2075 7.0975 -1.1875 7.4375 C-0.1975 6.4475 0.7925 5.4575 1.8125 4.4375 C1.1525 3.7775 0.4925 3.1175 -0.1875 2.4375 C-1.5075 2.4375 -2.8275 2.4375 -4.1875 2.4375 Z " fill="#7B6C54" transform="translate(94.1875,45.5625)"/>
<path d="M0 0 C-0.99 3.3 -1.98 6.6 -3 10 C-4.32 9.34 -5.64 8.68 -7 8 C-7.36275695 3.52599758 -7.36275695 3.52599758 -5.75 1.1875 C-4 0 -4 0 0 0 Z " fill="#D7C096" transform="translate(16,16)"/>
<path d="M0 0 C0.66 0.33 1.32 0.66 2 1 C2.21620175 3.6664882 2.30894168 5.44004321 1 7.8125 C-2.23988962 9.73618446 -5.2825819 9.18282384 -9 9 C-8.2575 8.443125 -7.515 7.88625 -6.75 7.3125 C-4.08292005 5.06972822 -2.08443768 2.77925025 0 0 Z " fill="#C7AC77" transform="translate(33,25)"/>
<path d="M0 0 C3.66679392 0.05298835 4.75610884 0.09394007 7.75 2.375 C8.430625 3.365 8.430625 3.365 9.125 4.375 C8.795 5.365 8.465 6.355 8.125 7.375 C7.63 6.55 7.135 5.725 6.625 4.875 C3.95934657 2.20934657 3.59084742 1.97896604 0.0625 1.875 C-3.70035463 2.06478216 -3.70035463 2.06478216 -5.8125 3.625 C-6.97289619 5.53624078 -7.49620265 7.17797535 -7.875 9.375 C-9.855 9.375 -11.835 9.375 -13.875 9.375 C-13.545 8.715 -13.215 8.055 -12.875 7.375 C-11.885 7.375 -10.895 7.375 -9.875 7.375 C-8.26592892 4.99887135 -8.26592892 4.99887135 -6.875 2.375 C-4.38459058 -0.11540942 -3.44345643 0.05108986 0 0 Z " fill="#D3BB8F" transform="translate(23.875,0.625)"/>
<path d="M0 0 C0.66 0 1.32 0 2 0 C2.66 2.31 3.32 4.62 4 7 C4.66 7 5.32 7 6 7 C6.33 6.34 6.66 5.68 7 5 C7.33 6.32 7.66 7.64 8 9 C5.03 8.505 5.03 8.505 2 8 C2 7.34 2 6.68 2 6 C1.01 6 0.02 6 -1 6 C-1 6.66 -1 7.32 -1 8 C-1.66 8 -2.32 8 -3 8 C-1.125 2.25 -1.125 2.25 0 0 Z " fill="#584C3C" transform="translate(145,46)"/>
<path d="M0 0 C1.32 0.66 2.64 1.32 4 2 C4 2.66 4 3.32 4 4 C6.31 4.33 8.62 4.66 11 5 C10.67 5.99 10.34 6.98 10 8 C4.64951939 7.62671065 2.49087093 6.0042343 -1 2 C-0.67 1.34 -0.34 0.68 0 0 Z " fill="#9D8257" transform="translate(71,35)"/>
<path d="M0 0 C3.3 0 6.6 0 10 0 C9.34 2.31 8.68 4.62 8 7 C7.01 7 6.02 7 5 7 C4.67 5.68 4.34 4.36 4 3 C2.68 3 1.36 3 0 3 C0 2.01 0 1.02 0 0 Z " fill="#A6977C" transform="translate(148,10)"/>
<path d="M0 0 C0.33 0.66 0.66 1.32 1 2 C1.99 2.33 2.98 2.66 4 3 C4.66 6.3 5.32 9.6 6 13 C5.34 13 4.68 13 4 13 C4 12.34 4 11.68 4 11 C1.36 11 -1.28 11 -4 11 C-4 10.67 -4 10.34 -4 10 C-1.69 10 0.62 10 3 10 C2.505 8.906875 2.01 7.81375 1.5 6.6875 C0 3 0 3 0 0 Z " fill="#D3AE74" transform="translate(62,15)"/>
<path d="M0 0 C0.33 1.65 0.66 3.3 1 5 C0.01 4.67 -0.98 4.34 -2 4 C-2.99 4.495 -2.99 4.495 -4 5 C-6.3329866 5.04022391 -8.66706666 5.04320247 -11 5 C-11.33 4.01 -11.66 3.02 -12 2 C-11.0925 2.04125 -10.185 2.0825 -9.25 2.125 C-5.70215167 1.98854429 -3.33917672 0 0 0 Z " fill="#807458" transform="translate(21,41)"/>
<path d="M0 0 C2.64 0 5.28 0 8 0 C8 0.99 8 1.98 8 3 C7.34 3 6.68 3 6 3 C6 9.6 6 16.2 6 23 C5.67 23 5.34 23 5 23 C5 16.07 5 9.14 5 2 C3.35 2 1.7 2 0 2 C0 1.34 0 0.68 0 0 Z " fill="#28241E" transform="translate(121,10)"/>
<path d="M0 0 C0.66 0.99 1.32 1.98 2 3 C-0.75 7.875 -0.75 7.875 -3 9 C-5.3329866 9.04022391 -7.66706666 9.04320247 -10 9 C-10 8.67 -10 8.34 -10 8 C-7.36 7.34 -4.72 6.68 -2 6 C-2.33 6 -2.66 6 -3 6 C-3.66 5.67 -4.32 5.34 -5 5 C-5 4.34 -5 3.68 -5 3 C-2.5 1.375 -2.5 1.375 0 0 Z " fill="#0E1810" transform="translate(23,55)"/>
<path d="M0 0 C0.99 0.33 1.98 0.66 3 1 C2.125 6.75 2.125 6.75 1 9 C0.34 9 -0.32 9 -1 9 C-2.76462683 5.91190305 -3 4.76687864 -3 1 C-2.34 1 -1.68 1 -1 1 C-0.67 0.67 -0.34 0.34 0 0 Z " fill="#7D6B4C" transform="translate(140,45)"/>
<path d="M0 0 C2.64 0 5.28 0 8 0 C8 0.99 8 1.98 8 3 C6.68 3 5.36 3 4 3 C3.34 4.65 2.68 6.3 2 8 C1.67 8 1.34 8 1 8 C1 6.35 1 4.7 1 3 C0.34 3 -0.32 3 -1 3 C-0.67 2.01 -0.34 1.02 0 0 Z " fill="#8A7E67" transform="translate(164,10)"/>
<path d="M0 0 C2.64 0.33 5.28 0.66 8 1 C8 3 8 5 8 7 C4.21388773 6.45912682 2.44599233 4.88277668 0 2 C0 1.34 0 0.68 0 0 Z " fill="#A28659" transform="translate(81,22)"/>
<path d="M0 0 C0.66 0.33 1.32 0.66 2 1 C1.67 2.65 1.34 4.3 1 6 C0.34 6 -0.32 6 -1 6 C-1 7.32 -1 8.64 -1 10 C-2.32 9.67 -3.64 9.34 -5 9 C-4.34 9 -3.68 9 -3 9 C-3 6.36 -3 3.72 -3 1 C-1 2 -1 2 0 3 C0 2.01 0 1.02 0 0 Z " fill="#625542" transform="translate(63,46)"/>
<path d="M0 0 C0.99 0.33 1.98 0.66 3 1 C3 2.98 3 4.96 3 7 C3.66 7 4.32 7 5 7 C5 5.02 5 3.04 5 1 C5.33 1 5.66 1 6 1 C6 3.31 6 5.62 6 8 C4.33388095 8.042721 2.66617115 8.04063832 1 8 C0 7 0 7 -0.0625 3.4375 C-0.041875 2.303125 -0.02125 1.16875 0 0 Z " fill="#9E8B6B" transform="translate(125,45)"/>
<path d="M0 0 C3.625 0.375 3.625 0.375 7 1 C7 1.66 7 2.32 7 3 C5.9275 3.12375 4.855 3.2475 3.75 3.375 C0.62136385 3.89643936 -1.33480424 4.40088254 -4 6 C-2.84826645 3.53199953 -1.95216435 1.95216435 0 0 Z " fill="#BCA87B" transform="translate(22,8)"/>
<path d="M0 0 C3.63 0.33 7.26 0.66 11 1 C11 1.33 11 1.66 11 2 C9.02 2 7.04 2 5 2 C5.33 2.99 5.66 3.98 6 5 C5.34 5.66 4.68 6.32 4 7 C3.01 6.67 2.02 6.34 1 6 C1 5.01 1 4.02 1 3 C0.67 2.01 0.34 1.02 0 0 Z " fill="#304732" transform="translate(19,33)"/>
<path d="M0 0 C0.66 0.33 1.32 0.66 2 1 C1.67 2.32 1.34 3.64 1 5 C1.99 4.34 2.98 3.68 4 3 C4.99 3.33 5.98 3.66 7 4 C4.69 5.65 2.38 7.3 0 9 C0 8.01 0 7.02 0 6 C-1.98 6.33 -3.96 6.66 -6 7 C-5.34 6.34 -4.68 5.68 -4 5 C-2.68 5 -1.36 5 0 5 C0 3.35 0 1.7 0 0 Z " fill="#062618" transform="translate(17,9)"/>
<path d="M0 0 C0.226875 0.639375 0.45375 1.27875 0.6875 1.9375 C1.85250896 4.27193661 1.85250896 4.27193661 4.625 4.75 C5.40875 4.8325 6.1925 4.915 7 5 C7 5.33 7 5.66 7 6 C5.35 6 3.7 6 2 6 C2 6.99 2 7.98 2 9 C0.68 8.34 -0.64 7.68 -2 7 C-2 5.68 -2 4.36 -2 3 C-1.34 3 -0.68 3 0 3 C0 2.01 0 1.02 0 0 Z " fill="#223B29" transform="translate(17,24)"/>
<path d="M0 0 C0.99 0 1.98 0 3 0 C2.938125 1.093125 2.87625 2.18625 2.8125 3.3125 C2.64402086 6.92126083 2.64402086 6.92126083 4.5 8.9375 C4.995 9.288125 5.49 9.63875 6 10 C4.35 9.67 2.7 9.34 1 9 C0.45627049 5.94152152 0 3.11227195 0 0 Z " fill="#65563E" transform="translate(122,46)"/>
<path d="M0 0 C0.33 0 0.66 0 1 0 C1.33 1.65 1.66 3.3 2 5 C3.65 5.33 5.3 5.66 7 6 C6.67 6.66 6.34 7.32 6 8 C4.00045254 8.04254356 1.99958364 8.04080783 0 8 C-1 7 -1 7 -1.125 4 C-1 1 -1 1 0 0 Z " fill="#CBB488" transform="translate(19,21)"/>
<path d="M0 0 C3 2 3 2 3.6875 4.625 C3.790625 5.40875 3.89375 6.1925 4 7 C3.01 7.495 3.01 7.495 2 8 C1.01 7.67 0.02 7.34 -1 7 C-1.04254356 5.00045254 -1.04080783 2.99958364 -1 1 C-0.67 0.67 -0.34 0.34 0 0 Z " fill="#C1A369" transform="translate(36,14)"/>
<path d="M0 0 C0.33 0 0.66 0 1 0 C1.06058594 0.68707031 1.12117187 1.37414062 1.18359375 2.08203125 C1.26738281 2.98308594 1.35117188 3.88414063 1.4375 4.8125 C1.51871094 5.70582031 1.59992188 6.59914063 1.68359375 7.51953125 C1.93489767 10.12743559 1.93489767 10.12743559 3 13 C0.36 13 -2.28 13 -5 13 C-5 12.01 -5 11.02 -5 10 C-2.525 10.495 -2.525 10.495 0 11 C0 7.37 0 3.74 0 0 Z " fill="#5C5344" transform="translate(161,23)"/>
<path d="M0 0 C2 2 2 2 2 6 C3.32 6.66 4.64 7.32 6 8 C3.69 8.33 1.38 8.66 -1 9 C-1.09765625 2.84765625 -1.09765625 2.84765625 -1 1 C-0.67 0.67 -0.34 0.34 0 0 Z " fill="#D2BF9D" transform="translate(185,27)"/>
<path d="M0 0 C3.63 0 7.26 0 11 0 C13 5 13 5 12 8 C11.505 7.030625 11.01 6.06125 10.5 5.0625 C7.85518031 1.82259588 7.59264712 1.56785827 3.75 1.125 C1.89375 1.063125 1.89375 1.063125 0 1 C0 0.67 0 0.34 0 0 Z " fill="#BFA775" transform="translate(11,46)"/>
<path d="M0 0 C0.66 0 1.32 0 2 0 C1.34 1.98 0.68 3.96 0 6 C-2.97 5.67 -5.94 5.34 -9 5 C-9 4.67 -9 4.34 -9 4 C-6.36 3.67 -3.72 3.34 -1 3 C-0.67 2.01 -0.34 1.02 0 0 Z " fill="#A4957B" transform="translate(136,29)"/>
<path d="M0 0 C-0.33 0.99 -0.66 1.98 -1 3 C-3.31 3 -5.62 3 -8 3 C-8 2.01 -8 1.02 -8 0 C-4.71303767 -0.79953138 -3.28976808 -1.09658936 0 0 Z " fill="#072618" transform="translate(27,30)"/>
<path d="M0 0 C2.4375 1.1875 2.4375 1.1875 5 3 C5.8125 5.6875 5.8125 5.6875 6 8 C3.53199953 6.84826645 1.95216435 5.95216435 0 4 C0 2.68 0 1.36 0 0 Z " fill="#C5A36D" transform="translate(87,27)"/>
<path d="M0 0 C2.475 0.495 2.475 0.495 5 1 C4.67 3.31 4.34 5.62 4 8 C3.01 8.33 2.02 8.66 1 9 C0.67 6.03 0.34 3.06 0 0 Z " fill="#907E61" transform="translate(96,45)"/>
<path d="M0 0 C3.465 1.485 3.465 1.485 7 3 C7.33 2.01 7.66 1.02 8 0 C8.66 0.66 9.32 1.32 10 2 C9.67 2.99 9.34 3.98 9 5 C6.36 4.67 3.72 4.34 1 4 C0.67 2.68 0.34 1.36 0 0 Z " fill="#7E6F57" transform="translate(92,31)"/>
<path d="M0 0 C0.33 0 0.66 0 1 0 C1.25 5.625 1.25 5.625 -1 9 C-2.32 9 -3.64 9 -5 9 C-4.01593623 6.04780869 -2.87752159 4.42513206 -1 2 C-0.67 1.34 -0.34 0.68 0 0 Z " fill="#A8997E" transform="translate(164,14)"/>
<path d="M0 0 C0.99 0.33 1.98 0.66 3 1 C3 3.64 3 6.28 3 9 C1.68 8.34 0.36 7.68 -1 7 C-0.67 4.69 -0.34 2.38 0 0 Z " fill="#877452" transform="translate(82,45)"/>
<path d="M0 0 C3 3.625 3 3.625 3 7 C2.34 7 1.68 7 1 7 C0.67 7.66 0.34 8.32 0 9 C-1.125 2.25 -1.125 2.25 0 0 Z " fill="#062618" transform="translate(23,40)"/>
<path d="M0 0 C1.98 0.495 1.98 0.495 4 1 C4.33 2.65 4.66 4.3 5 6 C3.35 5.67 1.7 5.34 0 5 C0 4.01 0 3.02 0 2 C1.485 2.99 1.485 2.99 3 4 C2.01 2.68 1.02 1.36 0 0 Z " fill="#0E2B1C" transform="translate(17,48)"/>
<path d="M0 0 C0.625 2.375 0.625 2.375 1 5 C0.34 5.66 -0.32 6.32 -1 7 C-1 5.35 -1 3.7 -1 2 C-2.65 2.33 -4.3 2.66 -6 3 C-6 2.01 -6 1.02 -6 0 C-3.50907189 -1.24546405 -2.58919267 -0.7767578 0 0 Z " fill="#635745" transform="translate(58,46)"/>
<path d="M0 0 C1.99097846 2.98646769 2.94124926 5.59687262 4 9 C3.01 9.33 2.02 9.66 1 10 C0.34 8.68 -0.32 7.36 -1 6 C-0.34 6 0.32 6 1 6 C0.67 4.02 0.34 2.04 0 0 Z " fill="#866F4A" transform="translate(69,27)"/>
<path d="M0 0 C0.66 0 1.32 0 2 0 C3.0625 1.8125 3.0625 1.8125 4 4 C3.67 4.99 3.34 5.98 3 7 C2.01 7.33 1.02 7.66 0 8 C0 5.36 0 2.72 0 0 Z " fill="#0F2E1E" transform="translate(14,20)"/>
<path d="M0 0 C0.66 0 1.32 0 2 0 C2.99 2.31 3.98 4.62 5 7 C4.34 7 3.68 7 3 7 C3 6.34 3 5.68 3 5 C1.68 5 0.36 5 -1 5 C-0.67 3.35 -0.34 1.7 0 0 Z " fill="#A99268" transform="translate(186,46)"/>
<path d="M0 0 C1.98 0.495 1.98 0.495 4 1 C2.515 4.465 2.515 4.465 1 8 C-1 5 -1 5 -0.625 2.3125 C-0.41875 1.549375 -0.2125 0.78625 0 0 Z " fill="#91846C" transform="translate(176,16)"/>
<path d="M0 0 C0.66 0 1.32 0 2 0 C2.66 2.97 3.32 5.94 4 9 C3.34 9 2.68 9 2 9 C2 7.68 2 6.36 2 5 C1.01 5 0.02 5 -1 5 C-0.67 3.35 -0.34 1.7 0 0 Z " fill="#C7B695" transform="translate(106,10)"/>
<path d="M0 0 C6.4 -0.49230769 6.4 -0.49230769 9.4375 2 C10.2109375 2.99 10.2109375 2.99 11 4 C10.67 4.99 10.34 5.98 10 7 C9.46375 6.195625 8.9275 5.39125 8.375 4.5625 C5.56894631 1.53491576 4.03174806 1.27489191 0 1 C0 0.67 0 0.34 0 0 Z " fill="#AA966B" transform="translate(22,1)"/>
<path d="M0 0 C0.66 0 1.32 0 2 0 C2 1.65 2 3.3 2 5 C1.01 5 0.02 5 -1 5 C-1 5.99 -1 6.98 -1 8 C-1.66 8 -2.32 8 -3 8 C-1.125 2.25 -1.125 2.25 0 0 Z " fill="#A3906D" transform="translate(145,46)"/>
<path d="M0 0 C0.33 0 0.66 0 1 0 C1.1546875 1.8871875 1.1546875 1.8871875 1.3125 3.8125 C1.69609156 7.13957417 1.69609156 7.13957417 3.5625 9.875 C4.036875 10.24625 4.51125 10.6175 5 11 C5 11.66 5 12.32 5 13 C2 12 2 12 0 9 C-0.1953125 6.73828125 -0.1953125 6.73828125 -0.125 4.3125 C-0.10695312 3.50425781 -0.08890625 2.69601563 -0.0703125 1.86328125 C-0.04710938 1.24839844 -0.02390625 0.63351563 0 0 Z " fill="#A69C7D" transform="translate(2,16)"/>
<path d="M0 0 C0.66 0 1.32 0 2 0 C2.99 3.3 3.98 6.6 5 10 C2 7 2 7 0 4 C0 2.68 0 1.36 0 0 Z " fill="#6F6552" transform="translate(179,10)"/>
<path d="M0 0 C0.99 0.66 1.98 1.32 3 2 C3 2.66 3 3.32 3 4 C0.36 4 -2.28 4 -5 4 C-5 3.01 -5 2.02 -5 1 C-2.525 1.495 -2.525 1.495 0 2 C0 1.34 0 0.68 0 0 Z " fill="#897C66" transform="translate(172,32)"/>
<path d="M0 0 C2.31 0 4.62 0 7 0 C7.33 0.99 7.66 1.98 8 3 C5.03 3 2.06 3 -1 3 C-0.67 2.01 -0.34 1.02 0 0 Z " fill="#877B64" transform="translate(140,33)"/>
<path d="M0 0 C2.31 0 4.62 0 7 0 C7.33 0.99 7.66 1.98 8 3 C5.03 3 2.06 3 -1 3 C-0.67 2.01 -0.34 1.02 0 0 Z " fill="#8E754F" transform="translate(76,33)"/>
<path d="M0 0 C1.32 1.32 2.64 2.64 4 4 C3.67 4.99 3.34 5.98 3 7 C1.68 6.34 0.36 5.68 -1 5 C-0.67 3.35 -0.34 1.7 0 0 Z " fill="#725E3F" transform="translate(62,11)"/>
<path d="M0 0 C0.66 0 1.32 0 2 0 C2 0.99 2 1.98 2 3 C1.34 3 0.68 3 0 3 C0 2.01 0 1.02 0 0 Z " fill="#847357" transform="translate(112,52)"/>
<path d="" fill="#C9AC7D" transform="translate(0,0)"/>
<path d="" fill="#52453F" transform="translate(0,0)"/>
</svg>
